G04 #@! TF.GenerationSoftware,KiCad,Pcbnew,9.0.6-9.0.6~ubuntu22.04.1*
G04 #@! TF.CreationDate,2025-11-28T11:55:00+01:00*
G04 #@! TF.ProjectId,OZE_PowerBank,4f5a455f-506f-4776-9572-42616e6b2e6b,rev?*
G04 #@! TF.SameCoordinates,Original*
G04 #@! TF.FileFunction,Legend,Bot*
G04 #@! TF.FilePolarity,Positive*
%FSLAX46Y46*%
G04 Gerber Fmt 4.6, Leading zero omitted, Abs format (unit mm)*
G04 Created by KiCad (PCBNEW 9.0.6-9.0.6~ubuntu22.04.1) date 2025-11-28 11:55:00*
%MOMM*%
%LPD*%
G01*
G04 APERTURE LIST*
G04 Aperture macros list*
%AMRoundRect*
0 Rectangle with rounded corners*
0 $1 Rounding radius*
0 $2 $3 $4 $5 $6 $7 $8 $9 X,Y pos of 4 corners*
0 Add a 4 corners polygon primitive as box body*
4,1,4,$2,$3,$4,$5,$6,$7,$8,$9,$2,$3,0*
0 Add four circle primitives for the rounded corners*
1,1,$1+$1,$2,$3*
1,1,$1+$1,$4,$5*
1,1,$1+$1,$6,$7*
1,1,$1+$1,$8,$9*
0 Add four rect primitives between the rounded corners*
20,1,$1+$1,$2,$3,$4,$5,0*
20,1,$1+$1,$4,$5,$6,$7,0*
20,1,$1+$1,$6,$7,$8,$9,0*
20,1,$1+$1,$8,$9,$2,$3,0*%
G04 Aperture macros list end*
%ADD10R,1.700000X1.700000*%
%ADD11C,1.700000*%
%ADD12RoundRect,0.250000X1.050000X-1.050000X1.050000X1.050000X-1.050000X1.050000X-1.050000X-1.050000X0*%
%ADD13C,2.600000*%
%ADD14C,2.200000*%
%ADD15RoundRect,0.250000X-1.050000X-1.050000X1.050000X-1.050000X1.050000X1.050000X-1.050000X1.050000X0*%
%ADD16R,2.520000X2.520000*%
%ADD17C,2.520000*%
%ADD18O,1.700000X1.100000*%
%ADD19RoundRect,0.250001X0.949999X0.949999X-0.949999X0.949999X-0.949999X-0.949999X0.949999X-0.949999X0*%
%ADD20C,2.400000*%
%ADD21RoundRect,0.250000X-1.050000X1.050000X-1.050000X-1.050000X1.050000X-1.050000X1.050000X1.050000X0*%
%ADD22C,3.000000*%
%ADD23RoundRect,0.250000X-0.750000X0.600000X-0.750000X-0.600000X0.750000X-0.600000X0.750000X0.600000X0*%
%ADD24O,2.000000X1.700000*%
%ADD25R,2.000000X4.600000*%
%ADD26O,2.000000X4.200000*%
%ADD27O,4.200000X2.000000*%
%ADD28R,1.905000X2.000000*%
%ADD29O,1.905000X2.000000*%
%ADD30O,3.000000X2.500000*%
G04 APERTURE END LIST*
%LPC*%
D10*
G04 #@! TO.C,J14*
X207920000Y-119000000D03*
D11*
X210460000Y-119000000D03*
X213000000Y-119000000D03*
X215540000Y-119000000D03*
G04 #@! TD*
D10*
G04 #@! TO.C,J13*
X174040000Y-91500000D03*
D11*
X171500000Y-91500000D03*
X168960000Y-91500000D03*
X166420000Y-91500000D03*
G04 #@! TD*
D12*
G04 #@! TO.C,J17*
X214000000Y-42500000D03*
D13*
X214000000Y-37500000D03*
G04 #@! TD*
D10*
G04 #@! TO.C,J3*
X186500000Y-74080000D03*
D11*
X186500000Y-71540000D03*
X186500000Y-69000000D03*
X186500000Y-66460000D03*
G04 #@! TD*
D14*
G04 #@! TO.C,H3*
X123500000Y-124000000D03*
G04 #@! TD*
D10*
G04 #@! TO.C,J4*
X156420000Y-124500000D03*
D11*
X158960000Y-124500000D03*
X161500000Y-124500000D03*
X164040000Y-124500000D03*
G04 #@! TD*
D15*
G04 #@! TO.C,J12*
X180000000Y-121500000D03*
D13*
X185000000Y-121500000D03*
X190000000Y-121500000D03*
X195000000Y-121500000D03*
G04 #@! TD*
D10*
G04 #@! TO.C,J8*
X169000000Y-58500000D03*
D11*
X171540000Y-58500000D03*
X174080000Y-58500000D03*
X176620000Y-58500000D03*
X179160000Y-58500000D03*
X181700000Y-58500000D03*
X184240000Y-58500000D03*
X186780000Y-58500000D03*
X189320000Y-58500000D03*
X191860000Y-58500000D03*
G04 #@! TD*
D16*
G04 #@! TO.C,SW2*
X131800000Y-98000000D03*
D17*
X136500000Y-98000000D03*
X141200000Y-98000000D03*
G04 #@! TD*
D14*
G04 #@! TO.C,H1*
X214500000Y-124000000D03*
G04 #@! TD*
D18*
G04 #@! TO.C,J9*
X213000000Y-113320000D03*
X216800000Y-113320000D03*
X213000000Y-104680000D03*
X216800000Y-104680000D03*
G04 #@! TD*
D14*
G04 #@! TO.C,H4*
X124000000Y-31500000D03*
G04 #@! TD*
D19*
G04 #@! TO.C,J11*
X159000000Y-33000000D03*
D20*
X155500000Y-33000000D03*
X152000000Y-33000000D03*
X148500000Y-33000000D03*
G04 #@! TD*
D21*
G04 #@! TO.C,J1*
X126500000Y-79500000D03*
D13*
X126500000Y-84500000D03*
G04 #@! TD*
D22*
G04 #@! TO.C,J10*
X209300000Y-97070000D03*
X209300000Y-83930000D03*
G04 #@! TD*
D23*
G04 #@! TO.C,J16*
X214525000Y-51750000D03*
D24*
X214525000Y-54250000D03*
G04 #@! TD*
D10*
G04 #@! TO.C,J5*
X186500000Y-80460000D03*
D11*
X186500000Y-83000000D03*
X186500000Y-85540000D03*
X186500000Y-88080000D03*
G04 #@! TD*
D10*
G04 #@! TO.C,J15*
X175300000Y-33025000D03*
D11*
X172760000Y-33025000D03*
X170220000Y-33025000D03*
X167680000Y-33025000D03*
G04 #@! TD*
D25*
G04 #@! TO.C,J2*
X130300000Y-67500000D03*
D26*
X124000000Y-67500000D03*
D27*
X127400000Y-72300000D03*
G04 #@! TD*
D10*
G04 #@! TO.C,J7*
X203000000Y-58840000D03*
D11*
X203000000Y-61380000D03*
X203000000Y-63920000D03*
X203000000Y-66460000D03*
X203000000Y-69000000D03*
X203000000Y-71540000D03*
X203000000Y-74080000D03*
X203000000Y-76620000D03*
X203000000Y-79160000D03*
X203000000Y-81700000D03*
G04 #@! TD*
D10*
G04 #@! TO.C,J6*
X193025000Y-72700000D03*
D11*
X193025000Y-75240000D03*
X193025000Y-77780000D03*
X193025000Y-80320000D03*
G04 #@! TD*
D28*
G04 #@! TO.C,Q3*
X156960000Y-45450000D03*
D29*
X159500000Y-45450000D03*
X162040000Y-45450000D03*
G04 #@! TD*
D30*
G04 #@! TO.C,SW1*
X142500000Y-118037500D03*
X130000000Y-118037500D03*
X142500000Y-113037500D03*
X130000000Y-113037500D03*
G04 #@! TD*
D14*
G04 #@! TO.C,H2*
X214500000Y-31500000D03*
G04 #@! TD*
D28*
G04 #@! TO.C,Q2*
X145460000Y-45450000D03*
D29*
X148000000Y-45450000D03*
X150540000Y-45450000D03*
G04 #@! TD*
%LPD*%
M02*
