%TF.GenerationSoftware,KiCad,Pcbnew,9.0.6-9.0.6~ubuntu22.04.1*%
%TF.CreationDate,2025-11-28T11:55:00+01:00*%
%TF.ProjectId,OZE_PowerBank,4f5a455f-506f-4776-9572-42616e6b2e6b,rev?*%
%TF.SameCoordinates,Original*%
%TF.FileFunction,Drillmap*%
%TF.FilePolarity,Positive*%
%FSLAX45Y45*%
G04 Gerber Fmt 4.5, Leading zero omitted, Abs format (unit mm)*
G04 Created by KiCad (PCBNEW 9.0.6-9.0.6~ubuntu22.04.1) date 2025-11-28 11:55:00*
%MOMM*%
%LPD*%
G01*
G04 APERTURE LIST*
%ADD10C,0.050000*%
%ADD11C,0.200000*%
%ADD12C,0.100000*%
%ADD13C,0.110000*%
%ADD14C,0.120000*%
%ADD15C,0.130000*%
%ADD16C,0.168000*%
%ADD17C,0.230000*%
G04 APERTURE END LIST*
D10*
X11900000Y-2775000D02*
X21900000Y-2775000D01*
X21900000Y-12775000D01*
X11900000Y-12775000D01*
X11900000Y-2775000D01*
D11*
D12*
X12235000Y-3485000D02*
X12265000Y-3515000D01*
X12265000Y-3485000D02*
X12235000Y-3515000D01*
X12235000Y-3985000D02*
X12265000Y-4015000D01*
X12265000Y-3985000D02*
X12235000Y-4015000D01*
X12235000Y-5985000D02*
X12265000Y-6015000D01*
X12265000Y-5985000D02*
X12235000Y-6015000D01*
X12235000Y-6235000D02*
X12265000Y-6265000D01*
X12265000Y-6235000D02*
X12235000Y-6265000D01*
X12235000Y-6485000D02*
X12265000Y-6515000D01*
X12265000Y-6485000D02*
X12235000Y-6515000D01*
X12235000Y-6985000D02*
X12265000Y-7015000D01*
X12265000Y-6985000D02*
X12235000Y-7015000D01*
X12235000Y-7235000D02*
X12265000Y-7265000D01*
X12265000Y-7235000D02*
X12235000Y-7265000D01*
X12235000Y-7485000D02*
X12265000Y-7515000D01*
X12265000Y-7485000D02*
X12235000Y-7515000D01*
X12235000Y-9485000D02*
X12265000Y-9515000D01*
X12265000Y-9485000D02*
X12235000Y-9515000D01*
X12235000Y-9985000D02*
X12265000Y-10015000D01*
X12265000Y-9985000D02*
X12235000Y-10015000D01*
X12235000Y-10485000D02*
X12265000Y-10515000D01*
X12265000Y-10485000D02*
X12235000Y-10515000D01*
X12235000Y-10985000D02*
X12265000Y-11015000D01*
X12265000Y-10985000D02*
X12235000Y-11015000D01*
X12235000Y-11485000D02*
X12265000Y-11515000D01*
X12265000Y-11485000D02*
X12235000Y-11515000D01*
X12235000Y-11985000D02*
X12265000Y-12015000D01*
X12265000Y-11985000D02*
X12235000Y-12015000D01*
X12485000Y-3485000D02*
X12515000Y-3515000D01*
X12515000Y-3485000D02*
X12485000Y-3515000D01*
X12485000Y-3985000D02*
X12515000Y-4015000D01*
X12515000Y-3985000D02*
X12485000Y-4015000D01*
X12485000Y-5985000D02*
X12515000Y-6015000D01*
X12515000Y-5985000D02*
X12485000Y-6015000D01*
X12485000Y-6235000D02*
X12515000Y-6265000D01*
X12515000Y-6235000D02*
X12485000Y-6265000D01*
X12485000Y-7485000D02*
X12515000Y-7515000D01*
X12515000Y-7485000D02*
X12485000Y-7515000D01*
X12485000Y-9485000D02*
X12515000Y-9515000D01*
X12515000Y-9485000D02*
X12485000Y-9515000D01*
X12485000Y-9985000D02*
X12515000Y-10015000D01*
X12515000Y-9985000D02*
X12485000Y-10015000D01*
X12485000Y-10485000D02*
X12515000Y-10515000D01*
X12515000Y-10485000D02*
X12485000Y-10515000D01*
X12485000Y-10985000D02*
X12515000Y-11015000D01*
X12515000Y-10985000D02*
X12485000Y-11015000D01*
X12485000Y-11485000D02*
X12515000Y-11515000D01*
X12515000Y-11485000D02*
X12485000Y-11515000D01*
X12485000Y-11985000D02*
X12515000Y-12015000D01*
X12515000Y-11985000D02*
X12485000Y-12015000D01*
X12685000Y-4685000D02*
X12715000Y-4715000D01*
X12715000Y-4685000D02*
X12685000Y-4715000D01*
X12735000Y-2985000D02*
X12765000Y-3015000D01*
X12765000Y-2985000D02*
X12735000Y-3015000D01*
X12735000Y-3485000D02*
X12765000Y-3515000D01*
X12765000Y-3485000D02*
X12735000Y-3515000D01*
X12735000Y-3985000D02*
X12765000Y-4015000D01*
X12765000Y-3985000D02*
X12735000Y-4015000D01*
X12735000Y-5235000D02*
X12765000Y-5265000D01*
X12765000Y-5235000D02*
X12735000Y-5265000D01*
X12735000Y-5485000D02*
X12765000Y-5515000D01*
X12765000Y-5485000D02*
X12735000Y-5515000D01*
X12735000Y-5985000D02*
X12765000Y-6015000D01*
X12765000Y-5985000D02*
X12735000Y-6015000D01*
X12735000Y-6235000D02*
X12765000Y-6265000D01*
X12765000Y-6235000D02*
X12735000Y-6265000D01*
X12735000Y-6485000D02*
X12765000Y-6515000D01*
X12765000Y-6485000D02*
X12735000Y-6515000D01*
X12735000Y-6735000D02*
X12765000Y-6765000D01*
X12765000Y-6735000D02*
X12735000Y-6765000D01*
X12735000Y-6985000D02*
X12765000Y-7015000D01*
X12765000Y-6985000D02*
X12735000Y-7015000D01*
X12735000Y-7485000D02*
X12765000Y-7515000D01*
X12765000Y-7485000D02*
X12735000Y-7515000D01*
X12735000Y-9485000D02*
X12765000Y-9515000D01*
X12765000Y-9485000D02*
X12735000Y-9515000D01*
X12735000Y-9985000D02*
X12765000Y-10015000D01*
X12765000Y-9985000D02*
X12735000Y-10015000D01*
X12735000Y-10485000D02*
X12765000Y-10515000D01*
X12765000Y-10485000D02*
X12735000Y-10515000D01*
X12735000Y-10985000D02*
X12765000Y-11015000D01*
X12765000Y-10985000D02*
X12735000Y-11015000D01*
X12735000Y-12485000D02*
X12765000Y-12515000D01*
X12765000Y-12485000D02*
X12735000Y-12515000D01*
X12985000Y-2985000D02*
X13015000Y-3015000D01*
X13015000Y-2985000D02*
X12985000Y-3015000D01*
X12985000Y-3485000D02*
X13015000Y-3515000D01*
X13015000Y-3485000D02*
X12985000Y-3515000D01*
X12985000Y-3985000D02*
X13015000Y-4015000D01*
X13015000Y-3985000D02*
X12985000Y-4015000D01*
X12985000Y-4985000D02*
X13015000Y-5015000D01*
X13015000Y-4985000D02*
X12985000Y-5015000D01*
X12985000Y-5235000D02*
X13015000Y-5265000D01*
X13015000Y-5235000D02*
X12985000Y-5265000D01*
X12985000Y-6235000D02*
X13015000Y-6265000D01*
X13015000Y-6235000D02*
X12985000Y-6265000D01*
X12985000Y-8485000D02*
X13015000Y-8515000D01*
X13015000Y-8485000D02*
X12985000Y-8515000D01*
X12985000Y-9485000D02*
X13015000Y-9515000D01*
X13015000Y-9485000D02*
X12985000Y-9515000D01*
X12985000Y-9985000D02*
X13015000Y-10015000D01*
X13015000Y-9985000D02*
X12985000Y-10015000D01*
X12985000Y-10485000D02*
X13015000Y-10515000D01*
X13015000Y-10485000D02*
X12985000Y-10515000D01*
X12985000Y-10985000D02*
X13015000Y-11015000D01*
X13015000Y-10985000D02*
X12985000Y-11015000D01*
X12985000Y-12485000D02*
X13015000Y-12515000D01*
X13015000Y-12485000D02*
X12985000Y-12515000D01*
X13235000Y-2985000D02*
X13265000Y-3015000D01*
X13265000Y-2985000D02*
X13235000Y-3015000D01*
X13235000Y-3485000D02*
X13265000Y-3515000D01*
X13265000Y-3485000D02*
X13235000Y-3515000D01*
X13235000Y-3985000D02*
X13265000Y-4015000D01*
X13265000Y-3985000D02*
X13235000Y-4015000D01*
X13235000Y-4485000D02*
X13265000Y-4515000D01*
X13265000Y-4485000D02*
X13235000Y-4515000D01*
X13235000Y-4735000D02*
X13265000Y-4765000D01*
X13265000Y-4735000D02*
X13235000Y-4765000D01*
X13235000Y-4985000D02*
X13265000Y-5015000D01*
X13265000Y-4985000D02*
X13235000Y-5015000D01*
X13235000Y-5235000D02*
X13265000Y-5265000D01*
X13265000Y-5235000D02*
X13235000Y-5265000D01*
X13235000Y-5735000D02*
X13265000Y-5765000D01*
X13265000Y-5735000D02*
X13235000Y-5765000D01*
X13235000Y-6485000D02*
X13265000Y-6515000D01*
X13265000Y-6485000D02*
X13235000Y-6515000D01*
X13235000Y-6735000D02*
X13265000Y-6765000D01*
X13265000Y-6735000D02*
X13235000Y-6765000D01*
X13235000Y-6985000D02*
X13265000Y-7015000D01*
X13265000Y-6985000D02*
X13235000Y-7015000D01*
X13235000Y-7235000D02*
X13265000Y-7265000D01*
X13265000Y-7235000D02*
X13235000Y-7265000D01*
X13235000Y-7485000D02*
X13265000Y-7515000D01*
X13265000Y-7485000D02*
X13235000Y-7515000D01*
X13235000Y-7735000D02*
X13265000Y-7765000D01*
X13265000Y-7735000D02*
X13235000Y-7765000D01*
X13235000Y-8235000D02*
X13265000Y-8265000D01*
X13265000Y-8235000D02*
X13235000Y-8265000D01*
X13235000Y-8485000D02*
X13265000Y-8515000D01*
X13265000Y-8485000D02*
X13235000Y-8515000D01*
X13235000Y-8735000D02*
X13265000Y-8765000D01*
X13265000Y-8735000D02*
X13235000Y-8765000D01*
X13235000Y-8985000D02*
X13265000Y-9015000D01*
X13265000Y-8985000D02*
X13235000Y-9015000D01*
X13235000Y-9485000D02*
X13265000Y-9515000D01*
X13265000Y-9485000D02*
X13235000Y-9515000D01*
X13235000Y-10485000D02*
X13265000Y-10515000D01*
X13265000Y-10485000D02*
X13235000Y-10515000D01*
X13235000Y-10985000D02*
X13265000Y-11015000D01*
X13265000Y-10985000D02*
X13235000Y-11015000D01*
X13235000Y-11235000D02*
X13265000Y-11265000D01*
X13265000Y-11235000D02*
X13235000Y-11265000D01*
X13235000Y-11985000D02*
X13265000Y-12015000D01*
X13265000Y-11985000D02*
X13235000Y-12015000D01*
X13235000Y-12485000D02*
X13265000Y-12515000D01*
X13265000Y-12485000D02*
X13235000Y-12515000D01*
X13485000Y-2985000D02*
X13515000Y-3015000D01*
X13515000Y-2985000D02*
X13485000Y-3015000D01*
X13485000Y-3485000D02*
X13515000Y-3515000D01*
X13515000Y-3485000D02*
X13485000Y-3515000D01*
X13485000Y-4735000D02*
X13515000Y-4765000D01*
X13515000Y-4735000D02*
X13485000Y-4765000D01*
X13485000Y-4985000D02*
X13515000Y-5015000D01*
X13515000Y-4985000D02*
X13485000Y-5015000D01*
X13485000Y-5985000D02*
X13515000Y-6015000D01*
X13515000Y-5985000D02*
X13485000Y-6015000D01*
X13485000Y-6735000D02*
X13515000Y-6765000D01*
X13515000Y-6735000D02*
X13485000Y-6765000D01*
X13485000Y-6985000D02*
X13515000Y-7015000D01*
X13515000Y-6985000D02*
X13485000Y-7015000D01*
X13485000Y-7235000D02*
X13515000Y-7265000D01*
X13515000Y-7235000D02*
X13485000Y-7265000D01*
X13485000Y-7485000D02*
X13515000Y-7515000D01*
X13515000Y-7485000D02*
X13485000Y-7515000D01*
X13485000Y-7735000D02*
X13515000Y-7765000D01*
X13515000Y-7735000D02*
X13485000Y-7765000D01*
X13485000Y-8985000D02*
X13515000Y-9015000D01*
X13515000Y-8985000D02*
X13485000Y-9015000D01*
X13485000Y-9485000D02*
X13515000Y-9515000D01*
X13515000Y-9485000D02*
X13485000Y-9515000D01*
X13485000Y-9985000D02*
X13515000Y-10015000D01*
X13515000Y-9985000D02*
X13485000Y-10015000D01*
X13485000Y-10985000D02*
X13515000Y-11015000D01*
X13515000Y-10985000D02*
X13485000Y-11015000D01*
X13485000Y-11235000D02*
X13515000Y-11265000D01*
X13515000Y-11235000D02*
X13485000Y-11265000D01*
X13485000Y-11485000D02*
X13515000Y-11515000D01*
X13515000Y-11485000D02*
X13485000Y-11515000D01*
X13485000Y-11735000D02*
X13515000Y-11765000D01*
X13515000Y-11735000D02*
X13485000Y-11765000D01*
X13485000Y-11985000D02*
X13515000Y-12015000D01*
X13515000Y-11985000D02*
X13485000Y-12015000D01*
X13485000Y-12485000D02*
X13515000Y-12515000D01*
X13515000Y-12485000D02*
X13485000Y-12515000D01*
X13735000Y-2985000D02*
X13765000Y-3015000D01*
X13765000Y-2985000D02*
X13735000Y-3015000D01*
X13735000Y-3485000D02*
X13765000Y-3515000D01*
X13765000Y-3485000D02*
X13735000Y-3515000D01*
X13735000Y-3985000D02*
X13765000Y-4015000D01*
X13765000Y-3985000D02*
X13735000Y-4015000D01*
X13735000Y-5685000D02*
X13765000Y-5715000D01*
X13765000Y-5685000D02*
X13735000Y-5715000D01*
X13735000Y-5785000D02*
X13765000Y-5815000D01*
X13765000Y-5785000D02*
X13735000Y-5815000D01*
X13735000Y-5885000D02*
X13765000Y-5915000D01*
X13765000Y-5885000D02*
X13735000Y-5915000D01*
X13735000Y-6235000D02*
X13765000Y-6265000D01*
X13765000Y-6235000D02*
X13735000Y-6265000D01*
X13735000Y-7985000D02*
X13765000Y-8015000D01*
X13765000Y-7985000D02*
X13735000Y-8015000D01*
X13735000Y-8235000D02*
X13765000Y-8265000D01*
X13765000Y-8235000D02*
X13735000Y-8265000D01*
X13735000Y-10985000D02*
X13765000Y-11015000D01*
X13765000Y-10985000D02*
X13735000Y-11015000D01*
X13735000Y-11235000D02*
X13765000Y-11265000D01*
X13765000Y-11235000D02*
X13735000Y-11265000D01*
X13735000Y-11485000D02*
X13765000Y-11515000D01*
X13765000Y-11485000D02*
X13735000Y-11515000D01*
X13735000Y-11735000D02*
X13765000Y-11765000D01*
X13765000Y-11735000D02*
X13735000Y-11765000D01*
X13735000Y-11985000D02*
X13765000Y-12015000D01*
X13765000Y-11985000D02*
X13735000Y-12015000D01*
X13735000Y-12485000D02*
X13765000Y-12515000D01*
X13765000Y-12485000D02*
X13735000Y-12515000D01*
X13985000Y-2985000D02*
X14015000Y-3015000D01*
X14015000Y-2985000D02*
X13985000Y-3015000D01*
X13985000Y-3485000D02*
X14015000Y-3515000D01*
X14015000Y-3485000D02*
X13985000Y-3515000D01*
X13985000Y-4485000D02*
X14015000Y-4515000D01*
X14015000Y-4485000D02*
X13985000Y-4515000D01*
X13985000Y-4735000D02*
X14015000Y-4765000D01*
X14015000Y-4735000D02*
X13985000Y-4765000D01*
X13985000Y-4985000D02*
X14015000Y-5015000D01*
X14015000Y-4985000D02*
X13985000Y-5015000D01*
X13985000Y-5235000D02*
X14015000Y-5265000D01*
X14015000Y-5235000D02*
X13985000Y-5265000D01*
X13985000Y-5485000D02*
X14015000Y-5515000D01*
X14015000Y-5485000D02*
X13985000Y-5515000D01*
X13985000Y-7235000D02*
X14015000Y-7265000D01*
X14015000Y-7235000D02*
X13985000Y-7265000D01*
X13985000Y-8235000D02*
X14015000Y-8265000D01*
X14015000Y-8235000D02*
X13985000Y-8265000D01*
X13985000Y-9235000D02*
X14015000Y-9265000D01*
X14015000Y-9235000D02*
X13985000Y-9265000D01*
X13985000Y-9485000D02*
X14015000Y-9515000D01*
X14015000Y-9485000D02*
X13985000Y-9515000D01*
X13985000Y-10985000D02*
X14015000Y-11015000D01*
X14015000Y-10985000D02*
X13985000Y-11015000D01*
X13985000Y-11235000D02*
X14015000Y-11265000D01*
X14015000Y-11235000D02*
X13985000Y-11265000D01*
X13985000Y-11985000D02*
X14015000Y-12015000D01*
X14015000Y-11985000D02*
X13985000Y-12015000D01*
X13985000Y-12485000D02*
X14015000Y-12515000D01*
X14015000Y-12485000D02*
X13985000Y-12515000D01*
X14235000Y-2985000D02*
X14265000Y-3015000D01*
X14265000Y-2985000D02*
X14235000Y-3015000D01*
X14235000Y-3485000D02*
X14265000Y-3515000D01*
X14265000Y-3485000D02*
X14235000Y-3515000D01*
X14235000Y-4485000D02*
X14265000Y-4515000D01*
X14265000Y-4485000D02*
X14235000Y-4515000D01*
X14235000Y-4735000D02*
X14265000Y-4765000D01*
X14265000Y-4735000D02*
X14235000Y-4765000D01*
X14235000Y-4985000D02*
X14265000Y-5015000D01*
X14265000Y-4985000D02*
X14235000Y-5015000D01*
X14235000Y-5485000D02*
X14265000Y-5515000D01*
X14265000Y-5485000D02*
X14235000Y-5515000D01*
X14235000Y-6485000D02*
X14265000Y-6515000D01*
X14265000Y-6485000D02*
X14235000Y-6515000D01*
X14235000Y-6985000D02*
X14265000Y-7015000D01*
X14265000Y-6985000D02*
X14235000Y-7015000D01*
X14235000Y-7235000D02*
X14265000Y-7265000D01*
X14265000Y-7235000D02*
X14235000Y-7265000D01*
X14235000Y-8235000D02*
X14265000Y-8265000D01*
X14265000Y-8235000D02*
X14235000Y-8265000D01*
X14235000Y-8985000D02*
X14265000Y-9015000D01*
X14265000Y-8985000D02*
X14235000Y-9015000D01*
X14235000Y-9235000D02*
X14265000Y-9265000D01*
X14265000Y-9235000D02*
X14235000Y-9265000D01*
X14235000Y-10985000D02*
X14265000Y-11015000D01*
X14265000Y-10985000D02*
X14235000Y-11015000D01*
X14235000Y-12485000D02*
X14265000Y-12515000D01*
X14265000Y-12485000D02*
X14235000Y-12515000D01*
X14485000Y-2985000D02*
X14515000Y-3015000D01*
X14515000Y-2985000D02*
X14485000Y-3015000D01*
X14485000Y-3985000D02*
X14515000Y-4015000D01*
X14515000Y-3985000D02*
X14485000Y-4015000D01*
X14485000Y-5485000D02*
X14515000Y-5515000D01*
X14515000Y-5485000D02*
X14485000Y-5515000D01*
X14485000Y-6485000D02*
X14515000Y-6515000D01*
X14515000Y-6485000D02*
X14485000Y-6515000D01*
X14485000Y-6985000D02*
X14515000Y-7015000D01*
X14515000Y-6985000D02*
X14485000Y-7015000D01*
X14485000Y-7235000D02*
X14515000Y-7265000D01*
X14515000Y-7235000D02*
X14485000Y-7265000D01*
X14485000Y-7735000D02*
X14515000Y-7765000D01*
X14515000Y-7735000D02*
X14485000Y-7765000D01*
X14485000Y-7985000D02*
X14515000Y-8015000D01*
X14515000Y-7985000D02*
X14485000Y-8015000D01*
X14485000Y-8985000D02*
X14515000Y-9015000D01*
X14515000Y-8985000D02*
X14485000Y-9015000D01*
X14485000Y-10485000D02*
X14515000Y-10515000D01*
X14515000Y-10485000D02*
X14485000Y-10515000D01*
X14485000Y-10985000D02*
X14515000Y-11015000D01*
X14515000Y-10985000D02*
X14485000Y-11015000D01*
X14485000Y-11985000D02*
X14515000Y-12015000D01*
X14515000Y-11985000D02*
X14485000Y-12015000D01*
X14485000Y-12485000D02*
X14515000Y-12515000D01*
X14515000Y-12485000D02*
X14485000Y-12515000D01*
X14635000Y-9085000D02*
X14665000Y-9115000D01*
X14665000Y-9085000D02*
X14635000Y-9115000D01*
X14635000Y-9435000D02*
X14665000Y-9465000D01*
X14665000Y-9435000D02*
X14635000Y-9465000D01*
X14735000Y-3735000D02*
X14765000Y-3765000D01*
X14765000Y-3735000D02*
X14735000Y-3765000D01*
X14735000Y-3985000D02*
X14765000Y-4015000D01*
X14765000Y-3985000D02*
X14735000Y-4015000D01*
X14735000Y-5485000D02*
X14765000Y-5515000D01*
X14765000Y-5485000D02*
X14735000Y-5515000D01*
X14735000Y-6485000D02*
X14765000Y-6515000D01*
X14765000Y-6485000D02*
X14735000Y-6515000D01*
X14735000Y-6735000D02*
X14765000Y-6765000D01*
X14765000Y-6735000D02*
X14735000Y-6765000D01*
X14735000Y-6985000D02*
X14765000Y-7015000D01*
X14765000Y-6985000D02*
X14735000Y-7015000D01*
X14735000Y-7235000D02*
X14765000Y-7265000D01*
X14765000Y-7235000D02*
X14735000Y-7265000D01*
X14735000Y-7485000D02*
X14765000Y-7515000D01*
X14765000Y-7485000D02*
X14735000Y-7515000D01*
X14735000Y-7735000D02*
X14765000Y-7765000D01*
X14765000Y-7735000D02*
X14735000Y-7765000D01*
X14735000Y-8485000D02*
X14765000Y-8515000D01*
X14765000Y-8485000D02*
X14735000Y-8515000D01*
X14735000Y-8735000D02*
X14765000Y-8765000D01*
X14765000Y-8735000D02*
X14735000Y-8765000D01*
X14735000Y-11985000D02*
X14765000Y-12015000D01*
X14765000Y-11985000D02*
X14735000Y-12015000D01*
X14735000Y-12485000D02*
X14765000Y-12515000D01*
X14765000Y-12485000D02*
X14735000Y-12515000D01*
X14835000Y-5885000D02*
X14865000Y-5915000D01*
X14865000Y-5885000D02*
X14835000Y-5915000D01*
X14985000Y-3735000D02*
X15015000Y-3765000D01*
X15015000Y-3735000D02*
X14985000Y-3765000D01*
X14985000Y-3985000D02*
X15015000Y-4015000D01*
X15015000Y-3985000D02*
X14985000Y-4015000D01*
X14985000Y-4735000D02*
X15015000Y-4765000D01*
X15015000Y-4735000D02*
X14985000Y-4765000D01*
X14985000Y-4985000D02*
X15015000Y-5015000D01*
X15015000Y-4985000D02*
X14985000Y-5015000D01*
X14985000Y-5235000D02*
X15015000Y-5265000D01*
X15015000Y-5235000D02*
X14985000Y-5265000D01*
X14985000Y-6485000D02*
X15015000Y-6515000D01*
X15015000Y-6485000D02*
X14985000Y-6515000D01*
X14985000Y-6735000D02*
X15015000Y-6765000D01*
X15015000Y-6735000D02*
X14985000Y-6765000D01*
X14985000Y-6985000D02*
X15015000Y-7015000D01*
X15015000Y-6985000D02*
X14985000Y-7015000D01*
X14985000Y-7235000D02*
X15015000Y-7265000D01*
X15015000Y-7235000D02*
X14985000Y-7265000D01*
X14985000Y-7485000D02*
X15015000Y-7515000D01*
X15015000Y-7485000D02*
X14985000Y-7515000D01*
X14985000Y-8235000D02*
X15015000Y-8265000D01*
X15015000Y-8235000D02*
X14985000Y-8265000D01*
X14985000Y-9485000D02*
X15015000Y-9515000D01*
X15015000Y-9485000D02*
X14985000Y-9515000D01*
X14985000Y-9985000D02*
X15015000Y-10015000D01*
X15015000Y-9985000D02*
X14985000Y-10015000D01*
X14985000Y-10485000D02*
X15015000Y-10515000D01*
X15015000Y-10485000D02*
X14985000Y-10515000D01*
X14985000Y-10985000D02*
X15015000Y-11015000D01*
X15015000Y-10985000D02*
X14985000Y-11015000D01*
X14985000Y-11485000D02*
X15015000Y-11515000D01*
X15015000Y-11485000D02*
X14985000Y-11515000D01*
X14985000Y-11985000D02*
X15015000Y-12015000D01*
X15015000Y-11985000D02*
X14985000Y-12015000D01*
X14985000Y-12485000D02*
X15015000Y-12515000D01*
X15015000Y-12485000D02*
X14985000Y-12515000D01*
X15110700Y-5801600D02*
X15140700Y-5831600D01*
X15140700Y-5801600D02*
X15110700Y-5831600D01*
X15235000Y-3735000D02*
X15265000Y-3765000D01*
X15265000Y-3735000D02*
X15235000Y-3765000D01*
X15235000Y-3985000D02*
X15265000Y-4015000D01*
X15265000Y-3985000D02*
X15235000Y-4015000D01*
X15235000Y-4735000D02*
X15265000Y-4765000D01*
X15265000Y-4735000D02*
X15235000Y-4765000D01*
X15235000Y-4985000D02*
X15265000Y-5015000D01*
X15265000Y-4985000D02*
X15235000Y-5015000D01*
X15235000Y-5485000D02*
X15265000Y-5515000D01*
X15265000Y-5485000D02*
X15235000Y-5515000D01*
X15235000Y-6485000D02*
X15265000Y-6515000D01*
X15265000Y-6485000D02*
X15235000Y-6515000D01*
X15235000Y-6735000D02*
X15265000Y-6765000D01*
X15265000Y-6735000D02*
X15235000Y-6765000D01*
X15235000Y-6985000D02*
X15265000Y-7015000D01*
X15265000Y-6985000D02*
X15235000Y-7015000D01*
X15235000Y-9485000D02*
X15265000Y-9515000D01*
X15265000Y-9485000D02*
X15235000Y-9515000D01*
X15235000Y-9985000D02*
X15265000Y-10015000D01*
X15265000Y-9985000D02*
X15235000Y-10015000D01*
X15235000Y-10485000D02*
X15265000Y-10515000D01*
X15265000Y-10485000D02*
X15235000Y-10515000D01*
X15235000Y-10985000D02*
X15265000Y-11015000D01*
X15265000Y-10985000D02*
X15235000Y-11015000D01*
X15235000Y-11485000D02*
X15265000Y-11515000D01*
X15265000Y-11485000D02*
X15235000Y-11515000D01*
X15235000Y-11985000D02*
X15265000Y-12015000D01*
X15265000Y-11985000D02*
X15235000Y-12015000D01*
X15235000Y-12485000D02*
X15265000Y-12515000D01*
X15265000Y-12485000D02*
X15235000Y-12515000D01*
X15485000Y-5485000D02*
X15515000Y-5515000D01*
X15515000Y-5485000D02*
X15485000Y-5515000D01*
X15485000Y-6485000D02*
X15515000Y-6515000D01*
X15515000Y-6485000D02*
X15485000Y-6515000D01*
X15485000Y-6735000D02*
X15515000Y-6765000D01*
X15515000Y-6735000D02*
X15485000Y-6765000D01*
X15485000Y-6985000D02*
X15515000Y-7015000D01*
X15515000Y-6985000D02*
X15485000Y-7015000D01*
X15485000Y-7685000D02*
X15515000Y-7715000D01*
X15515000Y-7685000D02*
X15485000Y-7715000D01*
X15485000Y-9485000D02*
X15515000Y-9515000D01*
X15515000Y-9485000D02*
X15485000Y-9515000D01*
X15485000Y-10485000D02*
X15515000Y-10515000D01*
X15515000Y-10485000D02*
X15485000Y-10515000D01*
X15485000Y-10985000D02*
X15515000Y-11015000D01*
X15515000Y-10985000D02*
X15485000Y-11015000D01*
X15485000Y-11485000D02*
X15515000Y-11515000D01*
X15515000Y-11485000D02*
X15485000Y-11515000D01*
X15593300Y-7376400D02*
X15623300Y-7406400D01*
X15623300Y-7376400D02*
X15593300Y-7406400D01*
X15682200Y-7820900D02*
X15712200Y-7850900D01*
X15712200Y-7820900D02*
X15682200Y-7850900D01*
X15685000Y-12135000D02*
X15715000Y-12165000D01*
X15715000Y-12135000D02*
X15685000Y-12165000D01*
X15735000Y-6485000D02*
X15765000Y-6515000D01*
X15765000Y-6485000D02*
X15735000Y-6515000D01*
X15735000Y-6735000D02*
X15765000Y-6765000D01*
X15765000Y-6735000D02*
X15735000Y-6765000D01*
X15735000Y-7985000D02*
X15765000Y-8015000D01*
X15765000Y-7985000D02*
X15735000Y-8015000D01*
X15757053Y-7311553D02*
X15787053Y-7341553D01*
X15787053Y-7311553D02*
X15757053Y-7341553D01*
X15758735Y-7020800D02*
X15788735Y-7050800D01*
X15788735Y-7020800D02*
X15758735Y-7050800D01*
X15761049Y-7218507D02*
X15791049Y-7248507D01*
X15791049Y-7218507D02*
X15761049Y-7248507D01*
X15783800Y-7710000D02*
X15813800Y-7740000D01*
X15813800Y-7710000D02*
X15783800Y-7740000D01*
X15790050Y-7571950D02*
X15820050Y-7601950D01*
X15820050Y-7571950D02*
X15790050Y-7601950D01*
X15810000Y-7810000D02*
X15840000Y-7840000D01*
X15840000Y-7810000D02*
X15810000Y-7840000D01*
X15821900Y-7376400D02*
X15851900Y-7406400D01*
X15851900Y-7376400D02*
X15821900Y-7406400D01*
X15898100Y-6868400D02*
X15928100Y-6898400D01*
X15928100Y-6868400D02*
X15898100Y-6898400D01*
X15935000Y-7985000D02*
X15965000Y-8015000D01*
X15965000Y-7985000D02*
X15935000Y-8015000D01*
X15985000Y-3735000D02*
X16015000Y-3765000D01*
X16015000Y-3735000D02*
X15985000Y-3765000D01*
X15985000Y-5485000D02*
X16015000Y-5515000D01*
X16015000Y-5485000D02*
X15985000Y-5515000D01*
X15985000Y-5735000D02*
X16015000Y-5765000D01*
X16015000Y-5735000D02*
X15985000Y-5765000D01*
X15985000Y-6485000D02*
X16015000Y-6515000D01*
X16015000Y-6485000D02*
X15985000Y-6515000D01*
X15985000Y-8235000D02*
X16015000Y-8265000D01*
X16015000Y-8235000D02*
X15985000Y-8265000D01*
X15985000Y-8485000D02*
X16015000Y-8515000D01*
X16015000Y-8485000D02*
X15985000Y-8515000D01*
X15985000Y-10235000D02*
X16015000Y-10265000D01*
X16015000Y-10235000D02*
X15985000Y-10265000D01*
X15985000Y-10485000D02*
X16015000Y-10515000D01*
X16015000Y-10485000D02*
X15985000Y-10515000D01*
X15985000Y-10735000D02*
X16015000Y-10765000D01*
X16015000Y-10735000D02*
X15985000Y-10765000D01*
X15985000Y-10985000D02*
X16015000Y-11015000D01*
X16015000Y-10985000D02*
X15985000Y-11015000D01*
X15985000Y-11235000D02*
X16015000Y-11265000D01*
X16015000Y-11235000D02*
X15985000Y-11265000D01*
X15985000Y-11485000D02*
X16015000Y-11515000D01*
X16015000Y-11485000D02*
X15985000Y-11515000D01*
X16135000Y-8085000D02*
X16165000Y-8115000D01*
X16165000Y-8085000D02*
X16135000Y-8115000D01*
X16139400Y-7605000D02*
X16169400Y-7635000D01*
X16169400Y-7605000D02*
X16139400Y-7635000D01*
X16215600Y-7833600D02*
X16245600Y-7863600D01*
X16245600Y-7833600D02*
X16215600Y-7863600D01*
X16228300Y-8152436D02*
X16258300Y-8182436D01*
X16258300Y-8152436D02*
X16228300Y-8182436D01*
X16235000Y-3235000D02*
X16265000Y-3265000D01*
X16265000Y-3235000D02*
X16235000Y-3265000D01*
X16235000Y-3485000D02*
X16265000Y-3515000D01*
X16265000Y-3485000D02*
X16235000Y-3515000D01*
X16235000Y-3735000D02*
X16265000Y-3765000D01*
X16265000Y-3735000D02*
X16235000Y-3765000D01*
X16235000Y-4735000D02*
X16265000Y-4765000D01*
X16265000Y-4735000D02*
X16235000Y-4765000D01*
X16235000Y-4985000D02*
X16265000Y-5015000D01*
X16265000Y-4985000D02*
X16235000Y-5015000D01*
X16235000Y-5235000D02*
X16265000Y-5265000D01*
X16265000Y-5235000D02*
X16235000Y-5265000D01*
X16235000Y-5485000D02*
X16265000Y-5515000D01*
X16265000Y-5485000D02*
X16235000Y-5515000D01*
X16235000Y-5735000D02*
X16265000Y-5765000D01*
X16265000Y-5735000D02*
X16235000Y-5765000D01*
X16235000Y-6485000D02*
X16265000Y-6515000D01*
X16265000Y-6485000D02*
X16235000Y-6515000D01*
X16235000Y-9585000D02*
X16265000Y-9615000D01*
X16265000Y-9585000D02*
X16235000Y-9615000D01*
X16307338Y-8265400D02*
X16337338Y-8295400D01*
X16337338Y-8265400D02*
X16307338Y-8295400D01*
X16335000Y-12135000D02*
X16365000Y-12165000D01*
X16365000Y-12135000D02*
X16335000Y-12165000D01*
X16385000Y-8328900D02*
X16415000Y-8358900D01*
X16415000Y-8328900D02*
X16385000Y-8358900D01*
X16435000Y-5835000D02*
X16465000Y-5865000D01*
X16465000Y-5835000D02*
X16435000Y-5865000D01*
X16435000Y-6485000D02*
X16465000Y-6515000D01*
X16465000Y-6485000D02*
X16435000Y-6515000D01*
X16456900Y-8862300D02*
X16486900Y-8892300D01*
X16486900Y-8862300D02*
X16456900Y-8892300D01*
X16456900Y-9471900D02*
X16486900Y-9501900D01*
X16486900Y-9471900D02*
X16456900Y-9501900D01*
X16485000Y-3235000D02*
X16515000Y-3265000D01*
X16515000Y-3235000D02*
X16485000Y-3265000D01*
X16485000Y-3485000D02*
X16515000Y-3515000D01*
X16515000Y-3485000D02*
X16485000Y-3515000D01*
X16485000Y-4735000D02*
X16515000Y-4765000D01*
X16515000Y-4735000D02*
X16485000Y-4765000D01*
X16485000Y-4985000D02*
X16515000Y-5015000D01*
X16515000Y-4985000D02*
X16485000Y-5015000D01*
X16485000Y-5235000D02*
X16515000Y-5265000D01*
X16515000Y-5235000D02*
X16485000Y-5265000D01*
X16485000Y-5485000D02*
X16515000Y-5515000D01*
X16515000Y-5485000D02*
X16485000Y-5515000D01*
X16485000Y-10235000D02*
X16515000Y-10265000D01*
X16515000Y-10235000D02*
X16485000Y-10265000D01*
X16485000Y-10735000D02*
X16515000Y-10765000D01*
X16515000Y-10735000D02*
X16485000Y-10765000D01*
X16485000Y-11235000D02*
X16515000Y-11265000D01*
X16515000Y-11235000D02*
X16485000Y-11265000D01*
X16485000Y-11735000D02*
X16515000Y-11765000D01*
X16515000Y-11735000D02*
X16485000Y-11765000D01*
X16541569Y-8941569D02*
X16571569Y-8971569D01*
X16571569Y-8941569D02*
X16541569Y-8971569D01*
X16583900Y-7478000D02*
X16613900Y-7508000D01*
X16613900Y-7478000D02*
X16583900Y-7508000D01*
X16622000Y-7795500D02*
X16652000Y-7825500D01*
X16652000Y-7795500D02*
X16622000Y-7825500D01*
X16661159Y-7390159D02*
X16691159Y-7420159D01*
X16691159Y-7390159D02*
X16661159Y-7420159D01*
X16735000Y-2985000D02*
X16765000Y-3015000D01*
X16765000Y-2985000D02*
X16735000Y-3015000D01*
X16735000Y-3985000D02*
X16765000Y-4015000D01*
X16765000Y-3985000D02*
X16735000Y-4015000D01*
X16735000Y-5235000D02*
X16765000Y-5265000D01*
X16765000Y-5235000D02*
X16735000Y-5265000D01*
X16735000Y-6635000D02*
X16765000Y-6665000D01*
X16765000Y-6635000D02*
X16735000Y-6665000D01*
X16735000Y-8285000D02*
X16765000Y-8315000D01*
X16765000Y-8285000D02*
X16735000Y-8315000D01*
X16735000Y-8585000D02*
X16765000Y-8615000D01*
X16765000Y-8585000D02*
X16735000Y-8615000D01*
X16735000Y-9485000D02*
X16765000Y-9515000D01*
X16765000Y-9485000D02*
X16735000Y-9515000D01*
X16735000Y-10235000D02*
X16765000Y-10265000D01*
X16765000Y-10235000D02*
X16735000Y-10265000D01*
X16735000Y-10735000D02*
X16765000Y-10765000D01*
X16765000Y-10735000D02*
X16735000Y-10765000D01*
X16735000Y-11235000D02*
X16765000Y-11265000D01*
X16765000Y-11235000D02*
X16735000Y-11265000D01*
X16735000Y-11735000D02*
X16765000Y-11765000D01*
X16765000Y-11735000D02*
X16735000Y-11765000D01*
X16735000Y-12235000D02*
X16765000Y-12265000D01*
X16765000Y-12235000D02*
X16735000Y-12265000D01*
X16735000Y-12485000D02*
X16765000Y-12515000D01*
X16765000Y-12485000D02*
X16735000Y-12515000D01*
X16769341Y-7019341D02*
X16799341Y-7049341D01*
X16799341Y-7019341D02*
X16769341Y-7049341D01*
X16812500Y-6935000D02*
X16842500Y-6965000D01*
X16842500Y-6935000D02*
X16812500Y-6965000D01*
X16835000Y-6085000D02*
X16865000Y-6115000D01*
X16865000Y-6085000D02*
X16835000Y-6115000D01*
X16914100Y-6766800D02*
X16944100Y-6796800D01*
X16944100Y-6766800D02*
X16914100Y-6796800D01*
X16985000Y-2985000D02*
X17015000Y-3015000D01*
X17015000Y-2985000D02*
X16985000Y-3015000D01*
X16985000Y-3985000D02*
X17015000Y-4015000D01*
X17015000Y-3985000D02*
X16985000Y-4015000D01*
X16985000Y-5235000D02*
X17015000Y-5265000D01*
X17015000Y-5235000D02*
X16985000Y-5265000D01*
X16985000Y-6835000D02*
X17015000Y-6865000D01*
X17015000Y-6835000D02*
X16985000Y-6865000D01*
X16985000Y-7985000D02*
X17015000Y-8015000D01*
X17015000Y-7985000D02*
X16985000Y-8015000D01*
X16985000Y-10235000D02*
X17015000Y-10265000D01*
X17015000Y-10235000D02*
X16985000Y-10265000D01*
X16985000Y-10735000D02*
X17015000Y-10765000D01*
X17015000Y-10735000D02*
X16985000Y-10765000D01*
X16985000Y-11235000D02*
X17015000Y-11265000D01*
X17015000Y-11235000D02*
X16985000Y-11265000D01*
X16985000Y-11735000D02*
X17015000Y-11765000D01*
X17015000Y-11735000D02*
X16985000Y-11765000D01*
X16985000Y-12235000D02*
X17015000Y-12265000D01*
X17015000Y-12235000D02*
X16985000Y-12265000D01*
X16985000Y-12485000D02*
X17015000Y-12515000D01*
X17015000Y-12485000D02*
X16985000Y-12515000D01*
X17066500Y-7693900D02*
X17096500Y-7723900D01*
X17096500Y-7693900D02*
X17066500Y-7723900D01*
X17079200Y-9739900D02*
X17109200Y-9769900D01*
X17109200Y-9739900D02*
X17079200Y-9769900D01*
X17152598Y-6836106D02*
X17182598Y-6866106D01*
X17182598Y-6836106D02*
X17152598Y-6866106D01*
X17185000Y-7235000D02*
X17215000Y-7265000D01*
X17215000Y-7235000D02*
X17185000Y-7265000D01*
X17235000Y-2985000D02*
X17265000Y-3015000D01*
X17265000Y-2985000D02*
X17235000Y-3015000D01*
X17235000Y-3985000D02*
X17265000Y-4015000D01*
X17265000Y-3985000D02*
X17235000Y-4015000D01*
X17235000Y-4235000D02*
X17265000Y-4265000D01*
X17265000Y-4235000D02*
X17235000Y-4265000D01*
X17235000Y-4485000D02*
X17265000Y-4515000D01*
X17265000Y-4485000D02*
X17235000Y-4515000D01*
X17235000Y-4735000D02*
X17265000Y-4765000D01*
X17265000Y-4735000D02*
X17235000Y-4765000D01*
X17235000Y-4985000D02*
X17265000Y-5015000D01*
X17265000Y-4985000D02*
X17235000Y-5015000D01*
X17235000Y-5235000D02*
X17265000Y-5265000D01*
X17265000Y-5235000D02*
X17235000Y-5265000D01*
X17235000Y-10735000D02*
X17265000Y-10765000D01*
X17265000Y-10735000D02*
X17235000Y-10765000D01*
X17235000Y-11235000D02*
X17265000Y-11265000D01*
X17265000Y-11235000D02*
X17235000Y-11265000D01*
X17235000Y-11735000D02*
X17265000Y-11765000D01*
X17265000Y-11735000D02*
X17235000Y-11765000D01*
X17235000Y-12235000D02*
X17265000Y-12265000D01*
X17265000Y-12235000D02*
X17235000Y-12265000D01*
X17235000Y-12485000D02*
X17265000Y-12515000D01*
X17265000Y-12485000D02*
X17235000Y-12515000D01*
X17257000Y-6766800D02*
X17287000Y-6796800D01*
X17287000Y-6766800D02*
X17257000Y-6796800D01*
X17295100Y-6957300D02*
X17325100Y-6987300D01*
X17325100Y-6957300D02*
X17295100Y-6987300D01*
X17295100Y-7274800D02*
X17325100Y-7304800D01*
X17325100Y-7274800D02*
X17295100Y-7304800D01*
X17307800Y-7478000D02*
X17337800Y-7508000D01*
X17337800Y-7478000D02*
X17307800Y-7508000D01*
X17335000Y-6085000D02*
X17365000Y-6115000D01*
X17365000Y-6085000D02*
X17335000Y-6115000D01*
X17358600Y-7566900D02*
X17388600Y-7596900D01*
X17388600Y-7566900D02*
X17358600Y-7596900D01*
X17372650Y-7222650D02*
X17402650Y-7252650D01*
X17402650Y-7222650D02*
X17372650Y-7252650D01*
X17385000Y-6635000D02*
X17415000Y-6665000D01*
X17415000Y-6635000D02*
X17385000Y-6665000D01*
X17406450Y-8306450D02*
X17436450Y-8336450D01*
X17436450Y-8306450D02*
X17406450Y-8336450D01*
X17435000Y-7685000D02*
X17465000Y-7715000D01*
X17465000Y-7685000D02*
X17435000Y-7715000D01*
X17485000Y-2985000D02*
X17515000Y-3015000D01*
X17515000Y-2985000D02*
X17485000Y-3015000D01*
X17485000Y-3985000D02*
X17515000Y-4015000D01*
X17515000Y-3985000D02*
X17485000Y-4015000D01*
X17485000Y-5235000D02*
X17515000Y-5265000D01*
X17515000Y-5235000D02*
X17485000Y-5265000D01*
X17485000Y-9485000D02*
X17515000Y-9515000D01*
X17515000Y-9485000D02*
X17485000Y-9515000D01*
X17485000Y-10735000D02*
X17515000Y-10765000D01*
X17515000Y-10735000D02*
X17485000Y-10765000D01*
X17485000Y-11235000D02*
X17515000Y-11265000D01*
X17515000Y-11235000D02*
X17485000Y-11265000D01*
X17485000Y-11735000D02*
X17515000Y-11765000D01*
X17515000Y-11735000D02*
X17485000Y-11765000D01*
X17485000Y-12235000D02*
X17515000Y-12265000D01*
X17515000Y-12235000D02*
X17485000Y-12265000D01*
X17485000Y-12485000D02*
X17515000Y-12515000D01*
X17515000Y-12485000D02*
X17485000Y-12515000D01*
X17535000Y-8335000D02*
X17565000Y-8365000D01*
X17565000Y-8335000D02*
X17535000Y-8365000D01*
X17635000Y-7785000D02*
X17665000Y-7815000D01*
X17665000Y-7785000D02*
X17635000Y-7815000D01*
X17650700Y-7668500D02*
X17680700Y-7698500D01*
X17680700Y-7668500D02*
X17650700Y-7698500D01*
X17655806Y-8364194D02*
X17685806Y-8394194D01*
X17685806Y-8364194D02*
X17655806Y-8394194D01*
X17735000Y-2985000D02*
X17765000Y-3015000D01*
X17765000Y-2985000D02*
X17735000Y-3015000D01*
X17735000Y-3235000D02*
X17765000Y-3265000D01*
X17765000Y-3235000D02*
X17735000Y-3265000D01*
X17735000Y-3985000D02*
X17765000Y-4015000D01*
X17765000Y-3985000D02*
X17735000Y-4015000D01*
X17735000Y-5235000D02*
X17765000Y-5265000D01*
X17765000Y-5235000D02*
X17735000Y-5265000D01*
X17735000Y-6635000D02*
X17765000Y-6665000D01*
X17765000Y-6635000D02*
X17735000Y-6665000D01*
X17735000Y-9485000D02*
X17765000Y-9515000D01*
X17765000Y-9485000D02*
X17735000Y-9515000D01*
X17735000Y-9735000D02*
X17765000Y-9765000D01*
X17765000Y-9735000D02*
X17735000Y-9765000D01*
X17735000Y-9985000D02*
X17765000Y-10015000D01*
X17765000Y-9985000D02*
X17735000Y-10015000D01*
X17735000Y-10735000D02*
X17765000Y-10765000D01*
X17765000Y-10735000D02*
X17735000Y-10765000D01*
X17735000Y-11235000D02*
X17765000Y-11265000D01*
X17765000Y-11235000D02*
X17735000Y-11265000D01*
X17735000Y-11735000D02*
X17765000Y-11765000D01*
X17765000Y-11735000D02*
X17735000Y-11765000D01*
X17735000Y-11985000D02*
X17765000Y-12015000D01*
X17765000Y-11985000D02*
X17735000Y-12015000D01*
X17735000Y-12485000D02*
X17765000Y-12515000D01*
X17765000Y-12485000D02*
X17735000Y-12515000D01*
X17785000Y-6085000D02*
X17815000Y-6115000D01*
X17815000Y-6085000D02*
X17785000Y-6115000D01*
X17811850Y-7258150D02*
X17841850Y-7288150D01*
X17841850Y-7258150D02*
X17811850Y-7288150D01*
X17885000Y-7035000D02*
X17915000Y-7065000D01*
X17915000Y-7035000D02*
X17885000Y-7065000D01*
X17935000Y-9535000D02*
X17965000Y-9565000D01*
X17965000Y-9535000D02*
X17935000Y-9565000D01*
X17985000Y-2985000D02*
X18015000Y-3015000D01*
X18015000Y-2985000D02*
X17985000Y-3015000D01*
X17985000Y-3235000D02*
X18015000Y-3265000D01*
X18015000Y-3235000D02*
X17985000Y-3265000D01*
X17985000Y-3485000D02*
X18015000Y-3515000D01*
X18015000Y-3485000D02*
X17985000Y-3515000D01*
X17985000Y-3985000D02*
X18015000Y-4015000D01*
X18015000Y-3985000D02*
X17985000Y-4015000D01*
X17985000Y-4985000D02*
X18015000Y-5015000D01*
X18015000Y-4985000D02*
X17985000Y-5015000D01*
X17985000Y-5235000D02*
X18015000Y-5265000D01*
X18015000Y-5235000D02*
X17985000Y-5265000D01*
X17985000Y-9735000D02*
X18015000Y-9765000D01*
X18015000Y-9735000D02*
X17985000Y-9765000D01*
X17985000Y-9985000D02*
X18015000Y-10015000D01*
X18015000Y-9985000D02*
X17985000Y-10015000D01*
X17985000Y-10735000D02*
X18015000Y-10765000D01*
X18015000Y-10735000D02*
X17985000Y-10765000D01*
X17985000Y-11235000D02*
X18015000Y-11265000D01*
X18015000Y-11235000D02*
X17985000Y-11265000D01*
X17985000Y-11735000D02*
X18015000Y-11765000D01*
X18015000Y-11735000D02*
X17985000Y-11765000D01*
X17985000Y-12485000D02*
X18015000Y-12515000D01*
X18015000Y-12485000D02*
X17985000Y-12515000D01*
X18085000Y-6635000D02*
X18115000Y-6665000D01*
X18115000Y-6635000D02*
X18085000Y-6665000D01*
X18235000Y-2985000D02*
X18265000Y-3015000D01*
X18265000Y-2985000D02*
X18235000Y-3015000D01*
X18235000Y-3235000D02*
X18265000Y-3265000D01*
X18265000Y-3235000D02*
X18235000Y-3265000D01*
X18235000Y-3735000D02*
X18265000Y-3765000D01*
X18265000Y-3735000D02*
X18235000Y-3765000D01*
X18235000Y-3985000D02*
X18265000Y-4015000D01*
X18265000Y-3985000D02*
X18235000Y-4015000D01*
X18235000Y-4485000D02*
X18265000Y-4515000D01*
X18265000Y-4485000D02*
X18235000Y-4515000D01*
X18235000Y-4735000D02*
X18265000Y-4765000D01*
X18265000Y-4735000D02*
X18235000Y-4765000D01*
X18235000Y-4985000D02*
X18265000Y-5015000D01*
X18265000Y-4985000D02*
X18235000Y-5015000D01*
X18235000Y-5235000D02*
X18265000Y-5265000D01*
X18265000Y-5235000D02*
X18235000Y-5265000D01*
X18235000Y-7235000D02*
X18265000Y-7265000D01*
X18265000Y-7235000D02*
X18235000Y-7265000D01*
X18235000Y-9235000D02*
X18265000Y-9265000D01*
X18265000Y-9235000D02*
X18235000Y-9265000D01*
X18235000Y-10735000D02*
X18265000Y-10765000D01*
X18265000Y-10735000D02*
X18235000Y-10765000D01*
X18235000Y-11235000D02*
X18265000Y-11265000D01*
X18265000Y-11235000D02*
X18235000Y-11265000D01*
X18235000Y-11985000D02*
X18265000Y-12015000D01*
X18265000Y-11985000D02*
X18235000Y-12015000D01*
X18235000Y-12235000D02*
X18265000Y-12265000D01*
X18265000Y-12235000D02*
X18235000Y-12265000D01*
X18235000Y-12485000D02*
X18265000Y-12515000D01*
X18265000Y-12485000D02*
X18235000Y-12515000D01*
X18235000Y-12485000D02*
X18265000Y-12515000D01*
X18265000Y-12485000D02*
X18235000Y-12515000D01*
X18298400Y-6208000D02*
X18328400Y-6238000D01*
X18328400Y-6208000D02*
X18298400Y-6238000D01*
X18323800Y-10119600D02*
X18353800Y-10149600D01*
X18353800Y-10119600D02*
X18323800Y-10149600D01*
X18435000Y-11235000D02*
X18465000Y-11265000D01*
X18465000Y-11235000D02*
X18435000Y-11265000D01*
X18485000Y-2985000D02*
X18515000Y-3015000D01*
X18515000Y-2985000D02*
X18485000Y-3015000D01*
X18485000Y-3485000D02*
X18515000Y-3515000D01*
X18515000Y-3485000D02*
X18485000Y-3515000D01*
X18485000Y-3735000D02*
X18515000Y-3765000D01*
X18515000Y-3735000D02*
X18485000Y-3765000D01*
X18485000Y-4735000D02*
X18515000Y-4765000D01*
X18515000Y-4735000D02*
X18485000Y-4765000D01*
X18485000Y-9485000D02*
X18515000Y-9515000D01*
X18515000Y-9485000D02*
X18485000Y-9515000D01*
X18485000Y-11135000D02*
X18515000Y-11165000D01*
X18515000Y-11135000D02*
X18485000Y-11165000D01*
X18485000Y-12485000D02*
X18515000Y-12515000D01*
X18515000Y-12485000D02*
X18485000Y-12515000D01*
X18585000Y-11135000D02*
X18615000Y-11165000D01*
X18615000Y-11135000D02*
X18585000Y-11165000D01*
X18635000Y-11235000D02*
X18665000Y-11265000D01*
X18665000Y-11235000D02*
X18635000Y-11265000D01*
X18735000Y-3235000D02*
X18765000Y-3265000D01*
X18765000Y-3235000D02*
X18735000Y-3265000D01*
X18735000Y-3485000D02*
X18765000Y-3515000D01*
X18765000Y-3485000D02*
X18735000Y-3515000D01*
X18735000Y-4735000D02*
X18765000Y-4765000D01*
X18765000Y-4735000D02*
X18735000Y-4765000D01*
X18735000Y-11735000D02*
X18765000Y-11765000D01*
X18765000Y-11735000D02*
X18735000Y-11765000D01*
X18735000Y-11985000D02*
X18765000Y-12015000D01*
X18765000Y-11985000D02*
X18735000Y-12015000D01*
X18735000Y-12235000D02*
X18765000Y-12265000D01*
X18765000Y-12235000D02*
X18735000Y-12265000D01*
X18735000Y-12485000D02*
X18765000Y-12515000D01*
X18765000Y-12485000D02*
X18735000Y-12515000D01*
X18985000Y-3235000D02*
X19015000Y-3265000D01*
X19015000Y-3235000D02*
X18985000Y-3265000D01*
X18985000Y-3485000D02*
X19015000Y-3515000D01*
X19015000Y-3485000D02*
X18985000Y-3515000D01*
X18985000Y-4485000D02*
X19015000Y-4515000D01*
X19015000Y-4485000D02*
X18985000Y-4515000D01*
X18985000Y-4735000D02*
X19015000Y-4765000D01*
X19015000Y-4735000D02*
X18985000Y-4765000D01*
X18985000Y-4985000D02*
X19015000Y-5015000D01*
X19015000Y-4985000D02*
X18985000Y-5015000D01*
X18985000Y-5235000D02*
X19015000Y-5265000D01*
X19015000Y-5235000D02*
X18985000Y-5265000D01*
X18985000Y-6735000D02*
X19015000Y-6765000D01*
X19015000Y-6735000D02*
X18985000Y-6765000D01*
X18985000Y-7235000D02*
X19015000Y-7265000D01*
X19015000Y-7235000D02*
X18985000Y-7265000D01*
X18985000Y-7485000D02*
X19015000Y-7515000D01*
X19015000Y-7485000D02*
X18985000Y-7515000D01*
X18985000Y-12485000D02*
X19015000Y-12515000D01*
X19015000Y-12485000D02*
X18985000Y-12515000D01*
X19111200Y-10881600D02*
X19141200Y-10911600D01*
X19141200Y-10881600D02*
X19111200Y-10911600D01*
X19235000Y-3235000D02*
X19265000Y-3265000D01*
X19265000Y-3235000D02*
X19235000Y-3265000D01*
X19235000Y-3485000D02*
X19265000Y-3515000D01*
X19265000Y-3485000D02*
X19235000Y-3515000D01*
X19235000Y-3735000D02*
X19265000Y-3765000D01*
X19265000Y-3735000D02*
X19235000Y-3765000D01*
X19235000Y-4485000D02*
X19265000Y-4515000D01*
X19265000Y-4485000D02*
X19235000Y-4515000D01*
X19235000Y-4735000D02*
X19265000Y-4765000D01*
X19265000Y-4735000D02*
X19235000Y-4765000D01*
X19235000Y-4985000D02*
X19265000Y-5015000D01*
X19265000Y-4985000D02*
X19235000Y-5015000D01*
X19235000Y-5235000D02*
X19265000Y-5265000D01*
X19265000Y-5235000D02*
X19235000Y-5265000D01*
X19235000Y-11485000D02*
X19265000Y-11515000D01*
X19265000Y-11485000D02*
X19235000Y-11515000D01*
X19235000Y-12485000D02*
X19265000Y-12515000D01*
X19265000Y-12485000D02*
X19235000Y-12515000D01*
X19236000Y-10990000D02*
X19266000Y-11020000D01*
X19266000Y-10990000D02*
X19236000Y-11020000D01*
X19276300Y-6085000D02*
X19306300Y-6115000D01*
X19306300Y-6085000D02*
X19276300Y-6115000D01*
X19479500Y-9446500D02*
X19509500Y-9476500D01*
X19509500Y-9446500D02*
X19479500Y-9476500D01*
X19485000Y-3235000D02*
X19515000Y-3265000D01*
X19515000Y-3235000D02*
X19485000Y-3265000D01*
X19485000Y-3485000D02*
X19515000Y-3515000D01*
X19515000Y-3485000D02*
X19485000Y-3515000D01*
X19485000Y-3735000D02*
X19515000Y-3765000D01*
X19515000Y-3735000D02*
X19485000Y-3765000D01*
X19485000Y-6735000D02*
X19515000Y-6765000D01*
X19515000Y-6735000D02*
X19485000Y-6765000D01*
X19485000Y-11485000D02*
X19515000Y-11515000D01*
X19515000Y-11485000D02*
X19485000Y-11515000D01*
X19485000Y-11735000D02*
X19515000Y-11765000D01*
X19515000Y-11735000D02*
X19485000Y-11765000D01*
X19485000Y-12485000D02*
X19515000Y-12515000D01*
X19515000Y-12485000D02*
X19485000Y-12515000D01*
X19492200Y-9027400D02*
X19522200Y-9057400D01*
X19522200Y-9027400D02*
X19492200Y-9057400D01*
X19492200Y-9548100D02*
X19522200Y-9578100D01*
X19522200Y-9548100D02*
X19492200Y-9578100D01*
X19568400Y-9624300D02*
X19598400Y-9654300D01*
X19598400Y-9624300D02*
X19568400Y-9654300D01*
X19597500Y-7235000D02*
X19627500Y-7265000D01*
X19627500Y-7235000D02*
X19597500Y-7265000D01*
X19647500Y-4582400D02*
X19677500Y-4612400D01*
X19677500Y-4582400D02*
X19647500Y-4612400D01*
X19670000Y-9624300D02*
X19700000Y-9654300D01*
X19700000Y-9624300D02*
X19670000Y-9654300D01*
X19685000Y-7338300D02*
X19715000Y-7368300D01*
X19715000Y-7338300D02*
X19685000Y-7368300D01*
X19714700Y-11014700D02*
X19744700Y-11044700D01*
X19744700Y-11014700D02*
X19714700Y-11044700D01*
X19728000Y-4372000D02*
X19758000Y-4402000D01*
X19758000Y-4372000D02*
X19728000Y-4402000D01*
X19735000Y-3235000D02*
X19765000Y-3265000D01*
X19765000Y-3235000D02*
X19735000Y-3265000D01*
X19735000Y-3735000D02*
X19765000Y-3765000D01*
X19765000Y-3735000D02*
X19735000Y-3765000D01*
X19735000Y-5235000D02*
X19765000Y-5265000D01*
X19765000Y-5235000D02*
X19735000Y-5265000D01*
X19735000Y-5485000D02*
X19765000Y-5515000D01*
X19765000Y-5485000D02*
X19735000Y-5515000D01*
X19735000Y-5985000D02*
X19765000Y-6015000D01*
X19765000Y-5985000D02*
X19735000Y-6015000D01*
X19735000Y-6931900D02*
X19765000Y-6961900D01*
X19765000Y-6931900D02*
X19735000Y-6961900D01*
X19735000Y-11485000D02*
X19765000Y-11515000D01*
X19765000Y-11485000D02*
X19735000Y-11515000D01*
X19735000Y-11735000D02*
X19765000Y-11765000D01*
X19765000Y-11735000D02*
X19735000Y-11765000D01*
X19735000Y-12485000D02*
X19765000Y-12515000D01*
X19765000Y-12485000D02*
X19735000Y-12515000D01*
X19784300Y-9624300D02*
X19814300Y-9654300D01*
X19814300Y-9624300D02*
X19784300Y-9654300D01*
X19789801Y-11189801D02*
X19819801Y-11219801D01*
X19819801Y-11189801D02*
X19789801Y-11219801D01*
X19800700Y-10420700D02*
X19830700Y-10450700D01*
X19830700Y-10420700D02*
X19800700Y-10450700D01*
X19808601Y-11071001D02*
X19838601Y-11101001D01*
X19838601Y-11071001D02*
X19808601Y-11101001D01*
X19898600Y-9624300D02*
X19928600Y-9654300D01*
X19928600Y-9624300D02*
X19898600Y-9654300D01*
X19910000Y-10410000D02*
X19940000Y-10440000D01*
X19940000Y-10410000D02*
X19910000Y-10440000D01*
X19985000Y-3235000D02*
X20015000Y-3265000D01*
X20015000Y-3235000D02*
X19985000Y-3265000D01*
X19985000Y-3735000D02*
X20015000Y-3765000D01*
X20015000Y-3735000D02*
X19985000Y-3765000D01*
X19985000Y-4985000D02*
X20015000Y-5015000D01*
X20015000Y-4985000D02*
X19985000Y-5015000D01*
X19985000Y-5235000D02*
X20015000Y-5265000D01*
X20015000Y-5235000D02*
X19985000Y-5265000D01*
X19985000Y-5735000D02*
X20015000Y-5765000D01*
X20015000Y-5735000D02*
X19985000Y-5765000D01*
X19985000Y-5985000D02*
X20015000Y-6015000D01*
X20015000Y-5985000D02*
X19985000Y-6015000D01*
X19985000Y-7235000D02*
X20015000Y-7265000D01*
X20015000Y-7235000D02*
X19985000Y-7265000D01*
X19985000Y-7485000D02*
X20015000Y-7515000D01*
X20015000Y-7485000D02*
X19985000Y-7515000D01*
X19985000Y-8485000D02*
X20015000Y-8515000D01*
X20015000Y-8485000D02*
X19985000Y-8515000D01*
X19985000Y-10735000D02*
X20015000Y-10765000D01*
X20015000Y-10735000D02*
X19985000Y-10765000D01*
X19985000Y-11485000D02*
X20015000Y-11515000D01*
X20015000Y-11485000D02*
X19985000Y-11515000D01*
X19985000Y-11735000D02*
X20015000Y-11765000D01*
X20015000Y-11735000D02*
X19985000Y-11765000D01*
X19985000Y-12485000D02*
X20015000Y-12515000D01*
X20015000Y-12485000D02*
X19985000Y-12515000D01*
X20012900Y-9624300D02*
X20042900Y-9654300D01*
X20042900Y-9624300D02*
X20012900Y-9654300D01*
X20026950Y-10413050D02*
X20056950Y-10443050D01*
X20056950Y-10413050D02*
X20026950Y-10443050D01*
X20216100Y-4696700D02*
X20246100Y-4726700D01*
X20246100Y-4696700D02*
X20216100Y-4726700D01*
X20235000Y-3235000D02*
X20265000Y-3265000D01*
X20265000Y-3235000D02*
X20235000Y-3265000D01*
X20235000Y-3735000D02*
X20265000Y-3765000D01*
X20265000Y-3735000D02*
X20235000Y-3765000D01*
X20235000Y-3985000D02*
X20265000Y-4015000D01*
X20265000Y-3985000D02*
X20235000Y-4015000D01*
X20235000Y-8485000D02*
X20265000Y-8515000D01*
X20265000Y-8485000D02*
X20235000Y-8515000D01*
X20235000Y-8735000D02*
X20265000Y-8765000D01*
X20265000Y-8735000D02*
X20235000Y-8765000D01*
X20235000Y-10485000D02*
X20265000Y-10515000D01*
X20265000Y-10485000D02*
X20235000Y-10515000D01*
X20235000Y-11485000D02*
X20265000Y-11515000D01*
X20265000Y-11485000D02*
X20235000Y-11515000D01*
X20235000Y-11735000D02*
X20265000Y-11765000D01*
X20265000Y-11735000D02*
X20235000Y-11765000D01*
X20235000Y-12485000D02*
X20265000Y-12515000D01*
X20265000Y-12485000D02*
X20235000Y-12515000D01*
X20275000Y-4480800D02*
X20305000Y-4510800D01*
X20305000Y-4480800D02*
X20275000Y-4510800D01*
X20485000Y-3235000D02*
X20515000Y-3265000D01*
X20515000Y-3235000D02*
X20485000Y-3265000D01*
X20485000Y-3735000D02*
X20515000Y-3765000D01*
X20515000Y-3735000D02*
X20485000Y-3765000D01*
X20485000Y-3985000D02*
X20515000Y-4015000D01*
X20515000Y-3985000D02*
X20485000Y-4015000D01*
X20485000Y-11485000D02*
X20515000Y-11515000D01*
X20515000Y-11485000D02*
X20485000Y-11515000D01*
X20485000Y-11735000D02*
X20515000Y-11765000D01*
X20515000Y-11735000D02*
X20485000Y-11765000D01*
X20485000Y-12485000D02*
X20515000Y-12515000D01*
X20515000Y-12485000D02*
X20485000Y-12515000D01*
X20735000Y-3235000D02*
X20765000Y-3265000D01*
X20765000Y-3235000D02*
X20735000Y-3265000D01*
X20735000Y-3485000D02*
X20765000Y-3515000D01*
X20765000Y-3485000D02*
X20735000Y-3515000D01*
X20735000Y-3735000D02*
X20765000Y-3765000D01*
X20765000Y-3735000D02*
X20735000Y-3765000D01*
X20735000Y-3985000D02*
X20765000Y-4015000D01*
X20765000Y-3985000D02*
X20735000Y-4015000D01*
X20735000Y-4485000D02*
X20765000Y-4515000D01*
X20765000Y-4485000D02*
X20735000Y-4515000D01*
X20735000Y-4735000D02*
X20765000Y-4765000D01*
X20765000Y-4735000D02*
X20735000Y-4765000D01*
X20735000Y-4985000D02*
X20765000Y-5015000D01*
X20765000Y-4985000D02*
X20735000Y-5015000D01*
X20735000Y-9985000D02*
X20765000Y-10015000D01*
X20765000Y-9985000D02*
X20735000Y-10015000D01*
X20735000Y-10985000D02*
X20765000Y-11015000D01*
X20765000Y-10985000D02*
X20735000Y-11015000D01*
X20735000Y-11485000D02*
X20765000Y-11515000D01*
X20765000Y-11485000D02*
X20735000Y-11515000D01*
X20735000Y-12485000D02*
X20765000Y-12515000D01*
X20765000Y-12485000D02*
X20735000Y-12515000D01*
X20785000Y-5285000D02*
X20815000Y-5315000D01*
X20815000Y-5285000D02*
X20785000Y-5315000D01*
X20835000Y-5235000D02*
X20865000Y-5265000D01*
X20865000Y-5235000D02*
X20835000Y-5265000D01*
X20885000Y-5185000D02*
X20915000Y-5215000D01*
X20915000Y-5185000D02*
X20885000Y-5215000D01*
X20915000Y-8378000D02*
X20945000Y-8408000D01*
X20945000Y-8378000D02*
X20915000Y-8408000D01*
X20915000Y-9692000D02*
X20945000Y-9722000D01*
X20945000Y-9692000D02*
X20915000Y-9722000D01*
X20935000Y-5135000D02*
X20965000Y-5165000D01*
X20965000Y-5135000D02*
X20935000Y-5165000D01*
X20985000Y-4735000D02*
X21015000Y-4765000D01*
X21015000Y-4735000D02*
X20985000Y-4765000D01*
X20985000Y-6485000D02*
X21015000Y-6515000D01*
X21015000Y-6485000D02*
X20985000Y-6515000D01*
X20985000Y-6985000D02*
X21015000Y-7015000D01*
X21015000Y-6985000D02*
X20985000Y-7015000D01*
X20985000Y-7485000D02*
X21015000Y-7515000D01*
X21015000Y-7485000D02*
X20985000Y-7515000D01*
X20985000Y-7985000D02*
X21015000Y-8015000D01*
X21015000Y-7985000D02*
X20985000Y-8015000D01*
X20985000Y-8735000D02*
X21015000Y-8765000D01*
X21015000Y-8735000D02*
X20985000Y-8765000D01*
X20985000Y-8985000D02*
X21015000Y-9015000D01*
X21015000Y-8985000D02*
X20985000Y-9015000D01*
X20985000Y-9235000D02*
X21015000Y-9265000D01*
X21015000Y-9235000D02*
X20985000Y-9265000D01*
X20985000Y-9485000D02*
X21015000Y-9515000D01*
X21015000Y-9485000D02*
X20985000Y-9515000D01*
X20985000Y-9985000D02*
X21015000Y-10015000D01*
X21015000Y-9985000D02*
X20985000Y-10015000D01*
X20985000Y-11485000D02*
X21015000Y-11515000D01*
X21015000Y-11485000D02*
X20985000Y-11515000D01*
X20985000Y-12485000D02*
X21015000Y-12515000D01*
X21015000Y-12485000D02*
X20985000Y-12515000D01*
X21235000Y-2985000D02*
X21265000Y-3015000D01*
X21265000Y-2985000D02*
X21235000Y-3015000D01*
X21235000Y-3985000D02*
X21265000Y-4015000D01*
X21265000Y-3985000D02*
X21235000Y-4015000D01*
X21235000Y-6485000D02*
X21265000Y-6515000D01*
X21265000Y-6485000D02*
X21235000Y-6515000D01*
X21235000Y-6985000D02*
X21265000Y-7015000D01*
X21265000Y-6985000D02*
X21235000Y-7015000D01*
X21235000Y-7485000D02*
X21265000Y-7515000D01*
X21265000Y-7485000D02*
X21235000Y-7515000D01*
X21235000Y-7985000D02*
X21265000Y-8015000D01*
X21265000Y-7985000D02*
X21235000Y-8015000D01*
X21235000Y-8485000D02*
X21265000Y-8515000D01*
X21265000Y-8485000D02*
X21235000Y-8515000D01*
X21235000Y-8735000D02*
X21265000Y-8765000D01*
X21265000Y-8735000D02*
X21235000Y-8765000D01*
X21235000Y-8985000D02*
X21265000Y-9015000D01*
X21265000Y-8985000D02*
X21235000Y-9015000D01*
X21235000Y-9235000D02*
X21265000Y-9265000D01*
X21265000Y-9235000D02*
X21235000Y-9265000D01*
X21235000Y-9485000D02*
X21265000Y-9515000D01*
X21265000Y-9485000D02*
X21235000Y-9515000D01*
X21235000Y-11485000D02*
X21265000Y-11515000D01*
X21265000Y-11485000D02*
X21235000Y-11515000D01*
X21385000Y-3735000D02*
X21415000Y-3765000D01*
X21415000Y-3735000D02*
X21385000Y-3765000D01*
X21485000Y-3985000D02*
X21515000Y-4015000D01*
X21515000Y-3985000D02*
X21485000Y-4015000D01*
X21485000Y-4735000D02*
X21515000Y-4765000D01*
X21515000Y-4735000D02*
X21485000Y-4765000D01*
X21485000Y-10235000D02*
X21515000Y-10265000D01*
X21515000Y-10235000D02*
X21485000Y-10265000D01*
X21485000Y-10735000D02*
X21515000Y-10765000D01*
X21515000Y-10735000D02*
X21485000Y-10765000D01*
X21485000Y-10985000D02*
X21515000Y-11015000D01*
X21515000Y-10985000D02*
X21485000Y-11015000D01*
X21485000Y-11235000D02*
X21515000Y-11265000D01*
X21515000Y-11235000D02*
X21485000Y-11265000D01*
X21485000Y-11485000D02*
X21515000Y-11515000D01*
X21515000Y-11485000D02*
X21485000Y-11515000D01*
X21735000Y-2985000D02*
X21765000Y-3015000D01*
X21765000Y-2985000D02*
X21735000Y-3015000D01*
X21735000Y-3235000D02*
X21765000Y-3265000D01*
X21765000Y-3235000D02*
X21735000Y-3265000D01*
X21735000Y-4735000D02*
X21765000Y-4765000D01*
X21765000Y-4735000D02*
X21735000Y-4765000D01*
X21735000Y-9735000D02*
X21765000Y-9765000D01*
X21765000Y-9735000D02*
X21735000Y-9765000D01*
X21735000Y-9985000D02*
X21765000Y-10015000D01*
X21765000Y-9985000D02*
X21735000Y-10015000D01*
X21735000Y-10235000D02*
X21765000Y-10265000D01*
X21765000Y-10235000D02*
X21735000Y-10265000D01*
X21735000Y-10735000D02*
X21765000Y-10765000D01*
X21765000Y-10735000D02*
X21735000Y-10765000D01*
X21735000Y-10985000D02*
X21765000Y-11015000D01*
X21765000Y-10985000D02*
X21735000Y-11015000D01*
X21735000Y-11485000D02*
X21765000Y-11515000D01*
X21765000Y-11485000D02*
X21735000Y-11515000D01*
X21735000Y-11735000D02*
X21765000Y-11765000D01*
X21765000Y-11735000D02*
X21735000Y-11765000D01*
X21735000Y-11985000D02*
X21765000Y-12015000D01*
X21765000Y-11985000D02*
X21735000Y-12015000D01*
X21735000Y-12235000D02*
X21765000Y-12265000D01*
X21765000Y-12235000D02*
X21735000Y-12265000D01*
X21735000Y-12485000D02*
X21765000Y-12515000D01*
X21765000Y-12485000D02*
X21735000Y-12515000D01*
X15414000Y-5775000D02*
G75*
G02*
X15384000Y-5775000I-15000J0D01*
G01*
X15384000Y-5775000D02*
G75*
G02*
X15414000Y-5775000I15000J0D01*
G01*
X15414000Y-5875000D02*
G75*
G02*
X15384000Y-5875000I-15000J0D01*
G01*
X15384000Y-5875000D02*
G75*
G02*
X15414000Y-5875000I15000J0D01*
G01*
X15514000Y-5775000D02*
G75*
G02*
X15484000Y-5775000I-15000J0D01*
G01*
X15484000Y-5775000D02*
G75*
G02*
X15514000Y-5775000I15000J0D01*
G01*
X15514000Y-5875000D02*
G75*
G02*
X15484000Y-5875000I-15000J0D01*
G01*
X15484000Y-5875000D02*
G75*
G02*
X15514000Y-5875000I15000J0D01*
G01*
X21300000Y-10438000D02*
X21300000Y-10498000D01*
X21270000Y-10468000D02*
X21330000Y-10468000D01*
X21270000Y-10498000D02*
X21330000Y-10498000D01*
X21330000Y-10438000D02*
G75*
G02*
X21330000Y-10498000I0J-30000D01*
G01*
X21330000Y-10438000D02*
X21270000Y-10438000D01*
X21270000Y-10438000D02*
G75*
G03*
X21270000Y-10498000I0J-30000D01*
G01*
X21300000Y-11302000D02*
X21300000Y-11362000D01*
X21270000Y-11332000D02*
X21330000Y-11332000D01*
X21270000Y-11362000D02*
X21330000Y-11362000D01*
X21330000Y-11302000D02*
G75*
G02*
X21330000Y-11362000I0J-30000D01*
G01*
X21330000Y-11302000D02*
X21270000Y-11302000D01*
X21270000Y-11302000D02*
G75*
G03*
X21270000Y-11362000I0J-30000D01*
G01*
X21680000Y-10438000D02*
X21680000Y-10498000D01*
X21650000Y-10468000D02*
X21710000Y-10468000D01*
X21650000Y-10498000D02*
X21710000Y-10498000D01*
X21710000Y-10438000D02*
G75*
G02*
X21710000Y-10498000I0J-30000D01*
G01*
X21710000Y-10438000D02*
X21650000Y-10438000D01*
X21650000Y-10438000D02*
G75*
G03*
X21650000Y-10498000I0J-30000D01*
G01*
X21680000Y-11302000D02*
X21680000Y-11362000D01*
X21650000Y-11332000D02*
X21710000Y-11332000D01*
X21650000Y-11362000D02*
X21710000Y-11362000D01*
X21710000Y-11302000D02*
G75*
G02*
X21710000Y-11362000I0J-30000D01*
G01*
X21710000Y-11302000D02*
X21650000Y-11302000D01*
X21650000Y-11302000D02*
G75*
G03*
X21650000Y-11362000I0J-30000D01*
G01*
X12435356Y-6785356D02*
X12435356Y-6714644D01*
X12364644Y-6714644D01*
X12364644Y-6785356D01*
X12435356Y-6785356D01*
X12350000Y-6640000D02*
X12350000Y-6860000D01*
X12450000Y-6860000D02*
G75*
G02*
X12350000Y-6860000I-50000J0D01*
G01*
X12450000Y-6860000D02*
X12450000Y-6640000D01*
X12450000Y-6640000D02*
G75*
G03*
X12350000Y-6640000I-50000J0D01*
G01*
X12775356Y-7265356D02*
X12775356Y-7194644D01*
X12704644Y-7194644D01*
X12704644Y-7265356D01*
X12775356Y-7265356D01*
X12850000Y-7180000D02*
X12630000Y-7180000D01*
X12630000Y-7280000D02*
G75*
G02*
X12630000Y-7180000I0J50000D01*
G01*
X12630000Y-7280000D02*
X12850000Y-7280000D01*
X12850000Y-7280000D02*
G75*
G03*
X12850000Y-7180000I0J50000D01*
G01*
X13065356Y-6785356D02*
X13065356Y-6714644D01*
X12994644Y-6714644D01*
X12994644Y-6785356D01*
X13065356Y-6785356D01*
X12980000Y-6620000D02*
X12980000Y-6880000D01*
X13080000Y-6880000D02*
G75*
G02*
X12980000Y-6880000I-50000J0D01*
G01*
X13080000Y-6880000D02*
X13080000Y-6620000D01*
X13080000Y-6620000D02*
G75*
G03*
X12980000Y-6620000I-50000J0D01*
G01*
X15677356Y-12485356D02*
X15677356Y-12414644D01*
X15606644Y-12414644D01*
X15606644Y-12485356D01*
X15677356Y-12485356D01*
X15931356Y-12485356D02*
X15931356Y-12414644D01*
X15860644Y-12414644D01*
X15860644Y-12485356D01*
X15931356Y-12485356D01*
X16185356Y-12485356D02*
X16185356Y-12414644D01*
X16114644Y-12414644D01*
X16114644Y-12485356D01*
X16185356Y-12485356D01*
X16439356Y-12485356D02*
X16439356Y-12414644D01*
X16368644Y-12414644D01*
X16368644Y-12485356D01*
X16439356Y-12485356D01*
X16677356Y-9185356D02*
X16677356Y-9114644D01*
X16606644Y-9114644D01*
X16606644Y-9185356D01*
X16677356Y-9185356D01*
X16803356Y-3337856D02*
X16803356Y-3267144D01*
X16732644Y-3267144D01*
X16732644Y-3337856D01*
X16803356Y-3337856D01*
X16931356Y-9185356D02*
X16931356Y-9114644D01*
X16860644Y-9114644D01*
X16860644Y-9185356D01*
X16931356Y-9185356D01*
X16935356Y-5885356D02*
X16935356Y-5814644D01*
X16864644Y-5814644D01*
X16864644Y-5885356D01*
X16935356Y-5885356D01*
X17057356Y-3337856D02*
X17057356Y-3267144D01*
X16986644Y-3267144D01*
X16986644Y-3337856D01*
X17057356Y-3337856D01*
X17185356Y-9185356D02*
X17185356Y-9114644D01*
X17114644Y-9114644D01*
X17114644Y-9185356D01*
X17185356Y-9185356D01*
X17189356Y-5885356D02*
X17189356Y-5814644D01*
X17118644Y-5814644D01*
X17118644Y-5885356D01*
X17189356Y-5885356D01*
X17311356Y-3337856D02*
X17311356Y-3267144D01*
X17240644Y-3267144D01*
X17240644Y-3337856D01*
X17311356Y-3337856D01*
X17439356Y-9185356D02*
X17439356Y-9114644D01*
X17368644Y-9114644D01*
X17368644Y-9185356D01*
X17439356Y-9185356D01*
X17443356Y-5885356D02*
X17443356Y-5814644D01*
X17372644Y-5814644D01*
X17372644Y-5885356D01*
X17443356Y-5885356D01*
X17565356Y-3337856D02*
X17565356Y-3267144D01*
X17494644Y-3267144D01*
X17494644Y-3337856D01*
X17565356Y-3337856D01*
X17697356Y-5885356D02*
X17697356Y-5814644D01*
X17626644Y-5814644D01*
X17626644Y-5885356D01*
X17697356Y-5885356D01*
X17951356Y-5885356D02*
X17951356Y-5814644D01*
X17880644Y-5814644D01*
X17880644Y-5885356D01*
X17951356Y-5885356D01*
X18205356Y-5885356D02*
X18205356Y-5814644D01*
X18134644Y-5814644D01*
X18134644Y-5885356D01*
X18205356Y-5885356D01*
X18459356Y-5885356D02*
X18459356Y-5814644D01*
X18388644Y-5814644D01*
X18388644Y-5885356D01*
X18459356Y-5885356D01*
X18685356Y-6681356D02*
X18685356Y-6610644D01*
X18614644Y-6610644D01*
X18614644Y-6681356D01*
X18685356Y-6681356D01*
X18685356Y-6935356D02*
X18685356Y-6864644D01*
X18614644Y-6864644D01*
X18614644Y-6935356D01*
X18685356Y-6935356D01*
X18685356Y-7189356D02*
X18685356Y-7118644D01*
X18614644Y-7118644D01*
X18614644Y-7189356D01*
X18685356Y-7189356D01*
X18685356Y-7443356D02*
X18685356Y-7372644D01*
X18614644Y-7372644D01*
X18614644Y-7443356D01*
X18685356Y-7443356D01*
X18685356Y-8081356D02*
X18685356Y-8010644D01*
X18614644Y-8010644D01*
X18614644Y-8081356D01*
X18685356Y-8081356D01*
X18685356Y-8335356D02*
X18685356Y-8264644D01*
X18614644Y-8264644D01*
X18614644Y-8335356D01*
X18685356Y-8335356D01*
X18685356Y-8589356D02*
X18685356Y-8518644D01*
X18614644Y-8518644D01*
X18614644Y-8589356D01*
X18685356Y-8589356D01*
X18685356Y-8843356D02*
X18685356Y-8772644D01*
X18614644Y-8772644D01*
X18614644Y-8843356D01*
X18685356Y-8843356D01*
X18713356Y-5885356D02*
X18713356Y-5814644D01*
X18642644Y-5814644D01*
X18642644Y-5885356D01*
X18713356Y-5885356D01*
X18967356Y-5885356D02*
X18967356Y-5814644D01*
X18896644Y-5814644D01*
X18896644Y-5885356D01*
X18967356Y-5885356D01*
X19221356Y-5885356D02*
X19221356Y-5814644D01*
X19150644Y-5814644D01*
X19150644Y-5885356D01*
X19221356Y-5885356D01*
X19337856Y-7305356D02*
X19337856Y-7234644D01*
X19267144Y-7234644D01*
X19267144Y-7305356D01*
X19337856Y-7305356D01*
X19337856Y-7559356D02*
X19337856Y-7488644D01*
X19267144Y-7488644D01*
X19267144Y-7559356D01*
X19337856Y-7559356D01*
X19337856Y-7813356D02*
X19337856Y-7742644D01*
X19267144Y-7742644D01*
X19267144Y-7813356D01*
X19337856Y-7813356D01*
X19337856Y-8067356D02*
X19337856Y-7996644D01*
X19267144Y-7996644D01*
X19267144Y-8067356D01*
X19337856Y-8067356D01*
X20335356Y-5919356D02*
X20335356Y-5848644D01*
X20264644Y-5848644D01*
X20264644Y-5919356D01*
X20335356Y-5919356D01*
X20335356Y-6173356D02*
X20335356Y-6102644D01*
X20264644Y-6102644D01*
X20264644Y-6173356D01*
X20335356Y-6173356D01*
X20335356Y-6427356D02*
X20335356Y-6356644D01*
X20264644Y-6356644D01*
X20264644Y-6427356D01*
X20335356Y-6427356D01*
X20335356Y-6681356D02*
X20335356Y-6610644D01*
X20264644Y-6610644D01*
X20264644Y-6681356D01*
X20335356Y-6681356D01*
X20335356Y-6935356D02*
X20335356Y-6864644D01*
X20264644Y-6864644D01*
X20264644Y-6935356D01*
X20335356Y-6935356D01*
X20335356Y-7189356D02*
X20335356Y-7118644D01*
X20264644Y-7118644D01*
X20264644Y-7189356D01*
X20335356Y-7189356D01*
X20335356Y-7443356D02*
X20335356Y-7372644D01*
X20264644Y-7372644D01*
X20264644Y-7443356D01*
X20335356Y-7443356D01*
X20335356Y-7697356D02*
X20335356Y-7626644D01*
X20264644Y-7626644D01*
X20264644Y-7697356D01*
X20335356Y-7697356D01*
X20335356Y-7951356D02*
X20335356Y-7880644D01*
X20264644Y-7880644D01*
X20264644Y-7951356D01*
X20335356Y-7951356D01*
X20335356Y-8205356D02*
X20335356Y-8134644D01*
X20264644Y-8134644D01*
X20264644Y-8205356D01*
X20335356Y-8205356D01*
X20827356Y-11935356D02*
X20827356Y-11864644D01*
X20756644Y-11864644D01*
X20756644Y-11935356D01*
X20827356Y-11935356D01*
X21081356Y-11935356D02*
X21081356Y-11864644D01*
X21010644Y-11864644D01*
X21010644Y-11935356D01*
X21081356Y-11935356D01*
X21335356Y-11935356D02*
X21335356Y-11864644D01*
X21264644Y-11864644D01*
X21264644Y-11935356D01*
X21335356Y-11935356D01*
X21487856Y-5210356D02*
X21487856Y-5139644D01*
X21417144Y-5139644D01*
X21417144Y-5210356D01*
X21487856Y-5210356D01*
X21487856Y-5460356D02*
X21487856Y-5389644D01*
X21417144Y-5389644D01*
X21417144Y-5460356D01*
X21487856Y-5460356D01*
X21589356Y-11935356D02*
X21589356Y-11864644D01*
X21518644Y-11864644D01*
X21518644Y-11935356D01*
X21589356Y-11935356D01*
D13*
X14546000Y-4600000D02*
X14601000Y-4545000D01*
X14546000Y-4490000D01*
X14491000Y-4545000D01*
X14546000Y-4600000D01*
X14800000Y-4600000D02*
X14855000Y-4545000D01*
X14800000Y-4490000D01*
X14745000Y-4545000D01*
X14800000Y-4600000D01*
X15054000Y-4600000D02*
X15109000Y-4545000D01*
X15054000Y-4490000D01*
X14999000Y-4545000D01*
X15054000Y-4600000D01*
X15696000Y-4600000D02*
X15751000Y-4545000D01*
X15696000Y-4490000D01*
X15641000Y-4545000D01*
X15696000Y-4600000D01*
X15950000Y-4600000D02*
X16005000Y-4545000D01*
X15950000Y-4490000D01*
X15895000Y-4545000D01*
X15950000Y-4600000D01*
X16204000Y-4600000D02*
X16259000Y-4545000D01*
X16204000Y-4490000D01*
X16149000Y-4545000D01*
X16204000Y-4600000D01*
D14*
X12940000Y-11243750D02*
X13060000Y-11363750D01*
X13060000Y-11243750D02*
X12940000Y-11363750D01*
X13060000Y-11303750D02*
G75*
G02*
X12940000Y-11303750I-60000J0D01*
G01*
X12940000Y-11303750D02*
G75*
G02*
X13060000Y-11303750I60000J0D01*
G01*
X12940000Y-11743750D02*
X13060000Y-11863750D01*
X13060000Y-11743750D02*
X12940000Y-11863750D01*
X13060000Y-11803750D02*
G75*
G02*
X12940000Y-11803750I-60000J0D01*
G01*
X12940000Y-11803750D02*
G75*
G02*
X13060000Y-11803750I60000J0D01*
G01*
X14190000Y-11243750D02*
X14310000Y-11363750D01*
X14310000Y-11243750D02*
X14190000Y-11363750D01*
X14310000Y-11303750D02*
G75*
G02*
X14190000Y-11303750I-60000J0D01*
G01*
X14190000Y-11303750D02*
G75*
G02*
X14310000Y-11303750I60000J0D01*
G01*
X14190000Y-11743750D02*
X14310000Y-11863750D01*
X14310000Y-11743750D02*
X14190000Y-11863750D01*
X14310000Y-11803750D02*
G75*
G02*
X14190000Y-11803750I-60000J0D01*
G01*
X14190000Y-11803750D02*
G75*
G02*
X14310000Y-11803750I60000J0D01*
G01*
X14790000Y-3240000D02*
X14910000Y-3360000D01*
X14910000Y-3240000D02*
X14790000Y-3360000D01*
X14910000Y-3300000D02*
G75*
G02*
X14790000Y-3300000I-60000J0D01*
G01*
X14790000Y-3300000D02*
G75*
G02*
X14910000Y-3300000I60000J0D01*
G01*
X15140000Y-3240000D02*
X15260000Y-3360000D01*
X15260000Y-3240000D02*
X15140000Y-3360000D01*
X15260000Y-3300000D02*
G75*
G02*
X15140000Y-3300000I-60000J0D01*
G01*
X15140000Y-3300000D02*
G75*
G02*
X15260000Y-3300000I60000J0D01*
G01*
X15490000Y-3240000D02*
X15610000Y-3360000D01*
X15610000Y-3240000D02*
X15490000Y-3360000D01*
X15610000Y-3300000D02*
G75*
G02*
X15490000Y-3300000I-60000J0D01*
G01*
X15490000Y-3300000D02*
G75*
G02*
X15610000Y-3300000I60000J0D01*
G01*
X15840000Y-3240000D02*
X15960000Y-3360000D01*
X15960000Y-3240000D02*
X15840000Y-3360000D01*
X15960000Y-3300000D02*
G75*
G02*
X15840000Y-3300000I-60000J0D01*
G01*
X15840000Y-3300000D02*
G75*
G02*
X15960000Y-3300000I60000J0D01*
G01*
D15*
X12585000Y-7885000D02*
X12715000Y-8015000D01*
X12715000Y-7885000D02*
X12585000Y-8015000D01*
X12650000Y-7885000D02*
X12650000Y-8015000D01*
X12585000Y-7950000D02*
X12715000Y-7950000D01*
X12585000Y-8385000D02*
X12715000Y-8515000D01*
X12715000Y-8385000D02*
X12585000Y-8515000D01*
X12650000Y-8385000D02*
X12650000Y-8515000D01*
X12585000Y-8450000D02*
X12715000Y-8450000D01*
X17935000Y-12085000D02*
X18065000Y-12215000D01*
X18065000Y-12085000D02*
X17935000Y-12215000D01*
X18000000Y-12085000D02*
X18000000Y-12215000D01*
X17935000Y-12150000D02*
X18065000Y-12150000D01*
X18435000Y-12085000D02*
X18565000Y-12215000D01*
X18565000Y-12085000D02*
X18435000Y-12215000D01*
X18500000Y-12085000D02*
X18500000Y-12215000D01*
X18435000Y-12150000D02*
X18565000Y-12150000D01*
X18935000Y-12085000D02*
X19065000Y-12215000D01*
X19065000Y-12085000D02*
X18935000Y-12215000D01*
X19000000Y-12085000D02*
X19000000Y-12215000D01*
X18935000Y-12150000D02*
X19065000Y-12150000D01*
X19435000Y-12085000D02*
X19565000Y-12215000D01*
X19565000Y-12085000D02*
X19435000Y-12215000D01*
X19500000Y-12085000D02*
X19500000Y-12215000D01*
X19435000Y-12150000D02*
X19565000Y-12150000D01*
X21335000Y-3685000D02*
X21465000Y-3815000D01*
X21465000Y-3685000D02*
X21335000Y-3815000D01*
X21400000Y-3685000D02*
X21400000Y-3815000D01*
X21335000Y-3750000D02*
X21465000Y-3750000D01*
X21335000Y-4185000D02*
X21465000Y-4315000D01*
X21465000Y-4185000D02*
X21335000Y-4315000D01*
X21400000Y-4185000D02*
X21400000Y-4315000D01*
X21335000Y-4250000D02*
X21465000Y-4250000D01*
D16*
X13096000Y-9716000D02*
X13264000Y-9884000D01*
X13264000Y-9716000D02*
X13096000Y-9884000D01*
X13239397Y-9859398D02*
X13239397Y-9740603D01*
X13120602Y-9740603D01*
X13120602Y-9859398D01*
X13239397Y-9859398D01*
X13566000Y-9716000D02*
X13734000Y-9884000D01*
X13734000Y-9716000D02*
X13566000Y-9884000D01*
X13709397Y-9859398D02*
X13709397Y-9740603D01*
X13590602Y-9740603D01*
X13590602Y-9859398D01*
X13709397Y-9859398D01*
X14036000Y-9716000D02*
X14204000Y-9884000D01*
X14204000Y-9716000D02*
X14036000Y-9884000D01*
X14179397Y-9859398D02*
X14179397Y-9740603D01*
X14060602Y-9740603D01*
X14060602Y-9859398D01*
X14179397Y-9859398D01*
D17*
X20815000Y-8278000D02*
X21045000Y-8508000D01*
X21045000Y-8278000D02*
X20815000Y-8508000D01*
X20930000Y-8508000D02*
X21045000Y-8393000D01*
X20930000Y-8278000D01*
X20815000Y-8393000D01*
X20930000Y-8508000D01*
X20815000Y-9592000D02*
X21045000Y-9822000D01*
X21045000Y-9592000D02*
X20815000Y-9822000D01*
X20930000Y-9822000D02*
X21045000Y-9707000D01*
X20930000Y-9592000D01*
X20815000Y-9707000D01*
X20930000Y-9822000D01*
D11*
X12158277Y-13088984D02*
X12158277Y-12888984D01*
X12158277Y-12888984D02*
X12205896Y-12888984D01*
X12205896Y-12888984D02*
X12234467Y-12898508D01*
X12234467Y-12898508D02*
X12253515Y-12917555D01*
X12253515Y-12917555D02*
X12263039Y-12936603D01*
X12263039Y-12936603D02*
X12272562Y-12974698D01*
X12272562Y-12974698D02*
X12272562Y-13003269D01*
X12272562Y-13003269D02*
X12263039Y-13041365D01*
X12263039Y-13041365D02*
X12253515Y-13060412D01*
X12253515Y-13060412D02*
X12234467Y-13079460D01*
X12234467Y-13079460D02*
X12205896Y-13088984D01*
X12205896Y-13088984D02*
X12158277Y-13088984D01*
X12358277Y-13088984D02*
X12358277Y-12955650D01*
X12358277Y-12993746D02*
X12367801Y-12974698D01*
X12367801Y-12974698D02*
X12377324Y-12965174D01*
X12377324Y-12965174D02*
X12396372Y-12955650D01*
X12396372Y-12955650D02*
X12415420Y-12955650D01*
X12482086Y-13088984D02*
X12482086Y-12955650D01*
X12482086Y-12888984D02*
X12472562Y-12898508D01*
X12472562Y-12898508D02*
X12482086Y-12908031D01*
X12482086Y-12908031D02*
X12491610Y-12898508D01*
X12491610Y-12898508D02*
X12482086Y-12888984D01*
X12482086Y-12888984D02*
X12482086Y-12908031D01*
X12605896Y-13088984D02*
X12586848Y-13079460D01*
X12586848Y-13079460D02*
X12577324Y-13060412D01*
X12577324Y-13060412D02*
X12577324Y-12888984D01*
X12710658Y-13088984D02*
X12691610Y-13079460D01*
X12691610Y-13079460D02*
X12682086Y-13060412D01*
X12682086Y-13060412D02*
X12682086Y-12888984D01*
X12939229Y-13088984D02*
X12939229Y-12888984D01*
X12939229Y-12888984D02*
X13005896Y-13031841D01*
X13005896Y-13031841D02*
X13072562Y-12888984D01*
X13072562Y-12888984D02*
X13072562Y-13088984D01*
X13253515Y-13088984D02*
X13253515Y-12984222D01*
X13253515Y-12984222D02*
X13243991Y-12965174D01*
X13243991Y-12965174D02*
X13224943Y-12955650D01*
X13224943Y-12955650D02*
X13186848Y-12955650D01*
X13186848Y-12955650D02*
X13167801Y-12965174D01*
X13253515Y-13079460D02*
X13234467Y-13088984D01*
X13234467Y-13088984D02*
X13186848Y-13088984D01*
X13186848Y-13088984D02*
X13167801Y-13079460D01*
X13167801Y-13079460D02*
X13158277Y-13060412D01*
X13158277Y-13060412D02*
X13158277Y-13041365D01*
X13158277Y-13041365D02*
X13167801Y-13022317D01*
X13167801Y-13022317D02*
X13186848Y-13012793D01*
X13186848Y-13012793D02*
X13234467Y-13012793D01*
X13234467Y-13012793D02*
X13253515Y-13003269D01*
X13348753Y-12955650D02*
X13348753Y-13155650D01*
X13348753Y-12965174D02*
X13367801Y-12955650D01*
X13367801Y-12955650D02*
X13405896Y-12955650D01*
X13405896Y-12955650D02*
X13424943Y-12965174D01*
X13424943Y-12965174D02*
X13434467Y-12974698D01*
X13434467Y-12974698D02*
X13443991Y-12993746D01*
X13443991Y-12993746D02*
X13443991Y-13050888D01*
X13443991Y-13050888D02*
X13434467Y-13069936D01*
X13434467Y-13069936D02*
X13424943Y-13079460D01*
X13424943Y-13079460D02*
X13405896Y-13088984D01*
X13405896Y-13088984D02*
X13367801Y-13088984D01*
X13367801Y-13088984D02*
X13348753Y-13079460D01*
X13529705Y-13069936D02*
X13539229Y-13079460D01*
X13539229Y-13079460D02*
X13529705Y-13088984D01*
X13529705Y-13088984D02*
X13520182Y-13079460D01*
X13520182Y-13079460D02*
X13529705Y-13069936D01*
X13529705Y-13069936D02*
X13529705Y-13088984D01*
X13529705Y-12965174D02*
X13539229Y-12974698D01*
X13539229Y-12974698D02*
X13529705Y-12984222D01*
X13529705Y-12984222D02*
X13520182Y-12974698D01*
X13520182Y-12974698D02*
X13529705Y-12965174D01*
X13529705Y-12965174D02*
X13529705Y-12984222D01*
D12*
X11867500Y-13402500D02*
X11897500Y-13432500D01*
X11897500Y-13402500D02*
X11867500Y-13432500D01*
D11*
X12196372Y-13308984D02*
X12215420Y-13308984D01*
X12215420Y-13308984D02*
X12234467Y-13318508D01*
X12234467Y-13318508D02*
X12243991Y-13328031D01*
X12243991Y-13328031D02*
X12253515Y-13347079D01*
X12253515Y-13347079D02*
X12263039Y-13385174D01*
X12263039Y-13385174D02*
X12263039Y-13432793D01*
X12263039Y-13432793D02*
X12253515Y-13470888D01*
X12253515Y-13470888D02*
X12243991Y-13489936D01*
X12243991Y-13489936D02*
X12234467Y-13499460D01*
X12234467Y-13499460D02*
X12215420Y-13508984D01*
X12215420Y-13508984D02*
X12196372Y-13508984D01*
X12196372Y-13508984D02*
X12177324Y-13499460D01*
X12177324Y-13499460D02*
X12167801Y-13489936D01*
X12167801Y-13489936D02*
X12158277Y-13470888D01*
X12158277Y-13470888D02*
X12148753Y-13432793D01*
X12148753Y-13432793D02*
X12148753Y-13385174D01*
X12148753Y-13385174D02*
X12158277Y-13347079D01*
X12158277Y-13347079D02*
X12167801Y-13328031D01*
X12167801Y-13328031D02*
X12177324Y-13318508D01*
X12177324Y-13318508D02*
X12196372Y-13308984D01*
X12348753Y-13489936D02*
X12358277Y-13499460D01*
X12358277Y-13499460D02*
X12348753Y-13508984D01*
X12348753Y-13508984D02*
X12339229Y-13499460D01*
X12339229Y-13499460D02*
X12348753Y-13489936D01*
X12348753Y-13489936D02*
X12348753Y-13508984D01*
X12424943Y-13308984D02*
X12548753Y-13308984D01*
X12548753Y-13308984D02*
X12482086Y-13385174D01*
X12482086Y-13385174D02*
X12510658Y-13385174D01*
X12510658Y-13385174D02*
X12529705Y-13394698D01*
X12529705Y-13394698D02*
X12539229Y-13404222D01*
X12539229Y-13404222D02*
X12548753Y-13423269D01*
X12548753Y-13423269D02*
X12548753Y-13470888D01*
X12548753Y-13470888D02*
X12539229Y-13489936D01*
X12539229Y-13489936D02*
X12529705Y-13499460D01*
X12529705Y-13499460D02*
X12510658Y-13508984D01*
X12510658Y-13508984D02*
X12453515Y-13508984D01*
X12453515Y-13508984D02*
X12434467Y-13499460D01*
X12434467Y-13499460D02*
X12424943Y-13489936D01*
X12672562Y-13308984D02*
X12691610Y-13308984D01*
X12691610Y-13308984D02*
X12710658Y-13318508D01*
X12710658Y-13318508D02*
X12720182Y-13328031D01*
X12720182Y-13328031D02*
X12729705Y-13347079D01*
X12729705Y-13347079D02*
X12739229Y-13385174D01*
X12739229Y-13385174D02*
X12739229Y-13432793D01*
X12739229Y-13432793D02*
X12729705Y-13470888D01*
X12729705Y-13470888D02*
X12720182Y-13489936D01*
X12720182Y-13489936D02*
X12710658Y-13499460D01*
X12710658Y-13499460D02*
X12691610Y-13508984D01*
X12691610Y-13508984D02*
X12672562Y-13508984D01*
X12672562Y-13508984D02*
X12653515Y-13499460D01*
X12653515Y-13499460D02*
X12643991Y-13489936D01*
X12643991Y-13489936D02*
X12634467Y-13470888D01*
X12634467Y-13470888D02*
X12624943Y-13432793D01*
X12624943Y-13432793D02*
X12624943Y-13385174D01*
X12624943Y-13385174D02*
X12634467Y-13347079D01*
X12634467Y-13347079D02*
X12643991Y-13328031D01*
X12643991Y-13328031D02*
X12653515Y-13318508D01*
X12653515Y-13318508D02*
X12672562Y-13308984D01*
X12863039Y-13308984D02*
X12882086Y-13308984D01*
X12882086Y-13308984D02*
X12901134Y-13318508D01*
X12901134Y-13318508D02*
X12910658Y-13328031D01*
X12910658Y-13328031D02*
X12920182Y-13347079D01*
X12920182Y-13347079D02*
X12929705Y-13385174D01*
X12929705Y-13385174D02*
X12929705Y-13432793D01*
X12929705Y-13432793D02*
X12920182Y-13470888D01*
X12920182Y-13470888D02*
X12910658Y-13489936D01*
X12910658Y-13489936D02*
X12901134Y-13499460D01*
X12901134Y-13499460D02*
X12882086Y-13508984D01*
X12882086Y-13508984D02*
X12863039Y-13508984D01*
X12863039Y-13508984D02*
X12843991Y-13499460D01*
X12843991Y-13499460D02*
X12834467Y-13489936D01*
X12834467Y-13489936D02*
X12824943Y-13470888D01*
X12824943Y-13470888D02*
X12815420Y-13432793D01*
X12815420Y-13432793D02*
X12815420Y-13385174D01*
X12815420Y-13385174D02*
X12824943Y-13347079D01*
X12824943Y-13347079D02*
X12834467Y-13328031D01*
X12834467Y-13328031D02*
X12843991Y-13318508D01*
X12843991Y-13318508D02*
X12863039Y-13308984D01*
X13015420Y-13508984D02*
X13015420Y-13375650D01*
X13015420Y-13394698D02*
X13024943Y-13385174D01*
X13024943Y-13385174D02*
X13043991Y-13375650D01*
X13043991Y-13375650D02*
X13072563Y-13375650D01*
X13072563Y-13375650D02*
X13091610Y-13385174D01*
X13091610Y-13385174D02*
X13101134Y-13404222D01*
X13101134Y-13404222D02*
X13101134Y-13508984D01*
X13101134Y-13404222D02*
X13110658Y-13385174D01*
X13110658Y-13385174D02*
X13129705Y-13375650D01*
X13129705Y-13375650D02*
X13158277Y-13375650D01*
X13158277Y-13375650D02*
X13177324Y-13385174D01*
X13177324Y-13385174D02*
X13186848Y-13404222D01*
X13186848Y-13404222D02*
X13186848Y-13508984D01*
X13282086Y-13508984D02*
X13282086Y-13375650D01*
X13282086Y-13394698D02*
X13291610Y-13385174D01*
X13291610Y-13385174D02*
X13310658Y-13375650D01*
X13310658Y-13375650D02*
X13339229Y-13375650D01*
X13339229Y-13375650D02*
X13358277Y-13385174D01*
X13358277Y-13385174D02*
X13367801Y-13404222D01*
X13367801Y-13404222D02*
X13367801Y-13508984D01*
X13367801Y-13404222D02*
X13377324Y-13385174D01*
X13377324Y-13385174D02*
X13396372Y-13375650D01*
X13396372Y-13375650D02*
X13424943Y-13375650D01*
X13424943Y-13375650D02*
X13443991Y-13385174D01*
X13443991Y-13385174D02*
X13453515Y-13404222D01*
X13453515Y-13404222D02*
X13453515Y-13508984D01*
X13843991Y-13299460D02*
X13672563Y-13556603D01*
X14101134Y-13308984D02*
X14120182Y-13308984D01*
X14120182Y-13308984D02*
X14139229Y-13318508D01*
X14139229Y-13318508D02*
X14148753Y-13328031D01*
X14148753Y-13328031D02*
X14158277Y-13347079D01*
X14158277Y-13347079D02*
X14167801Y-13385174D01*
X14167801Y-13385174D02*
X14167801Y-13432793D01*
X14167801Y-13432793D02*
X14158277Y-13470888D01*
X14158277Y-13470888D02*
X14148753Y-13489936D01*
X14148753Y-13489936D02*
X14139229Y-13499460D01*
X14139229Y-13499460D02*
X14120182Y-13508984D01*
X14120182Y-13508984D02*
X14101134Y-13508984D01*
X14101134Y-13508984D02*
X14082086Y-13499460D01*
X14082086Y-13499460D02*
X14072563Y-13489936D01*
X14072563Y-13489936D02*
X14063039Y-13470888D01*
X14063039Y-13470888D02*
X14053515Y-13432793D01*
X14053515Y-13432793D02*
X14053515Y-13385174D01*
X14053515Y-13385174D02*
X14063039Y-13347079D01*
X14063039Y-13347079D02*
X14072563Y-13328031D01*
X14072563Y-13328031D02*
X14082086Y-13318508D01*
X14082086Y-13318508D02*
X14101134Y-13308984D01*
X14253515Y-13489936D02*
X14263039Y-13499460D01*
X14263039Y-13499460D02*
X14253515Y-13508984D01*
X14253515Y-13508984D02*
X14243991Y-13499460D01*
X14243991Y-13499460D02*
X14253515Y-13489936D01*
X14253515Y-13489936D02*
X14253515Y-13508984D01*
X14386848Y-13308984D02*
X14405896Y-13308984D01*
X14405896Y-13308984D02*
X14424944Y-13318508D01*
X14424944Y-13318508D02*
X14434467Y-13328031D01*
X14434467Y-13328031D02*
X14443991Y-13347079D01*
X14443991Y-13347079D02*
X14453515Y-13385174D01*
X14453515Y-13385174D02*
X14453515Y-13432793D01*
X14453515Y-13432793D02*
X14443991Y-13470888D01*
X14443991Y-13470888D02*
X14434467Y-13489936D01*
X14434467Y-13489936D02*
X14424944Y-13499460D01*
X14424944Y-13499460D02*
X14405896Y-13508984D01*
X14405896Y-13508984D02*
X14386848Y-13508984D01*
X14386848Y-13508984D02*
X14367801Y-13499460D01*
X14367801Y-13499460D02*
X14358277Y-13489936D01*
X14358277Y-13489936D02*
X14348753Y-13470888D01*
X14348753Y-13470888D02*
X14339229Y-13432793D01*
X14339229Y-13432793D02*
X14339229Y-13385174D01*
X14339229Y-13385174D02*
X14348753Y-13347079D01*
X14348753Y-13347079D02*
X14358277Y-13328031D01*
X14358277Y-13328031D02*
X14367801Y-13318508D01*
X14367801Y-13318508D02*
X14386848Y-13308984D01*
X14643991Y-13508984D02*
X14529706Y-13508984D01*
X14586848Y-13508984D02*
X14586848Y-13308984D01*
X14586848Y-13308984D02*
X14567801Y-13337555D01*
X14567801Y-13337555D02*
X14548753Y-13356603D01*
X14548753Y-13356603D02*
X14529706Y-13366127D01*
X14834467Y-13508984D02*
X14720182Y-13508984D01*
X14777325Y-13508984D02*
X14777325Y-13308984D01*
X14777325Y-13308984D02*
X14758277Y-13337555D01*
X14758277Y-13337555D02*
X14739229Y-13356603D01*
X14739229Y-13356603D02*
X14720182Y-13366127D01*
X14948753Y-13394698D02*
X14929706Y-13385174D01*
X14929706Y-13385174D02*
X14920182Y-13375650D01*
X14920182Y-13375650D02*
X14910658Y-13356603D01*
X14910658Y-13356603D02*
X14910658Y-13347079D01*
X14910658Y-13347079D02*
X14920182Y-13328031D01*
X14920182Y-13328031D02*
X14929706Y-13318508D01*
X14929706Y-13318508D02*
X14948753Y-13308984D01*
X14948753Y-13308984D02*
X14986848Y-13308984D01*
X14986848Y-13308984D02*
X15005896Y-13318508D01*
X15005896Y-13318508D02*
X15015420Y-13328031D01*
X15015420Y-13328031D02*
X15024944Y-13347079D01*
X15024944Y-13347079D02*
X15024944Y-13356603D01*
X15024944Y-13356603D02*
X15015420Y-13375650D01*
X15015420Y-13375650D02*
X15005896Y-13385174D01*
X15005896Y-13385174D02*
X14986848Y-13394698D01*
X14986848Y-13394698D02*
X14948753Y-13394698D01*
X14948753Y-13394698D02*
X14929706Y-13404222D01*
X14929706Y-13404222D02*
X14920182Y-13413746D01*
X14920182Y-13413746D02*
X14910658Y-13432793D01*
X14910658Y-13432793D02*
X14910658Y-13470888D01*
X14910658Y-13470888D02*
X14920182Y-13489936D01*
X14920182Y-13489936D02*
X14929706Y-13499460D01*
X14929706Y-13499460D02*
X14948753Y-13508984D01*
X14948753Y-13508984D02*
X14986848Y-13508984D01*
X14986848Y-13508984D02*
X15005896Y-13499460D01*
X15005896Y-13499460D02*
X15015420Y-13489936D01*
X15015420Y-13489936D02*
X15024944Y-13470888D01*
X15024944Y-13470888D02*
X15024944Y-13432793D01*
X15024944Y-13432793D02*
X15015420Y-13413746D01*
X15015420Y-13413746D02*
X15005896Y-13404222D01*
X15005896Y-13404222D02*
X14986848Y-13394698D01*
X15101134Y-13308984D02*
X15101134Y-13347079D01*
X15177325Y-13308984D02*
X15177325Y-13347079D01*
X15472563Y-13585174D02*
X15463039Y-13575650D01*
X15463039Y-13575650D02*
X15443991Y-13547079D01*
X15443991Y-13547079D02*
X15434468Y-13528031D01*
X15434468Y-13528031D02*
X15424944Y-13499460D01*
X15424944Y-13499460D02*
X15415420Y-13451841D01*
X15415420Y-13451841D02*
X15415420Y-13413746D01*
X15415420Y-13413746D02*
X15424944Y-13366127D01*
X15424944Y-13366127D02*
X15434468Y-13337555D01*
X15434468Y-13337555D02*
X15443991Y-13318508D01*
X15443991Y-13318508D02*
X15463039Y-13289936D01*
X15463039Y-13289936D02*
X15472563Y-13280412D01*
X15643991Y-13308984D02*
X15548753Y-13308984D01*
X15548753Y-13308984D02*
X15539229Y-13404222D01*
X15539229Y-13404222D02*
X15548753Y-13394698D01*
X15548753Y-13394698D02*
X15567801Y-13385174D01*
X15567801Y-13385174D02*
X15615420Y-13385174D01*
X15615420Y-13385174D02*
X15634468Y-13394698D01*
X15634468Y-13394698D02*
X15643991Y-13404222D01*
X15643991Y-13404222D02*
X15653515Y-13423269D01*
X15653515Y-13423269D02*
X15653515Y-13470888D01*
X15653515Y-13470888D02*
X15643991Y-13489936D01*
X15643991Y-13489936D02*
X15634468Y-13499460D01*
X15634468Y-13499460D02*
X15615420Y-13508984D01*
X15615420Y-13508984D02*
X15567801Y-13508984D01*
X15567801Y-13508984D02*
X15548753Y-13499460D01*
X15548753Y-13499460D02*
X15539229Y-13489936D01*
X15834468Y-13308984D02*
X15739229Y-13308984D01*
X15739229Y-13308984D02*
X15729706Y-13404222D01*
X15729706Y-13404222D02*
X15739229Y-13394698D01*
X15739229Y-13394698D02*
X15758277Y-13385174D01*
X15758277Y-13385174D02*
X15805896Y-13385174D01*
X15805896Y-13385174D02*
X15824944Y-13394698D01*
X15824944Y-13394698D02*
X15834468Y-13404222D01*
X15834468Y-13404222D02*
X15843991Y-13423269D01*
X15843991Y-13423269D02*
X15843991Y-13470888D01*
X15843991Y-13470888D02*
X15834468Y-13489936D01*
X15834468Y-13489936D02*
X15824944Y-13499460D01*
X15824944Y-13499460D02*
X15805896Y-13508984D01*
X15805896Y-13508984D02*
X15758277Y-13508984D01*
X15758277Y-13508984D02*
X15739229Y-13499460D01*
X15739229Y-13499460D02*
X15729706Y-13489936D01*
X16024944Y-13308984D02*
X15929706Y-13308984D01*
X15929706Y-13308984D02*
X15920182Y-13404222D01*
X15920182Y-13404222D02*
X15929706Y-13394698D01*
X15929706Y-13394698D02*
X15948753Y-13385174D01*
X15948753Y-13385174D02*
X15996372Y-13385174D01*
X15996372Y-13385174D02*
X16015420Y-13394698D01*
X16015420Y-13394698D02*
X16024944Y-13404222D01*
X16024944Y-13404222D02*
X16034468Y-13423269D01*
X16034468Y-13423269D02*
X16034468Y-13470888D01*
X16034468Y-13470888D02*
X16024944Y-13489936D01*
X16024944Y-13489936D02*
X16015420Y-13499460D01*
X16015420Y-13499460D02*
X15996372Y-13508984D01*
X15996372Y-13508984D02*
X15948753Y-13508984D01*
X15948753Y-13508984D02*
X15929706Y-13499460D01*
X15929706Y-13499460D02*
X15920182Y-13489936D01*
X16272563Y-13508984D02*
X16272563Y-13308984D01*
X16358277Y-13508984D02*
X16358277Y-13404222D01*
X16358277Y-13404222D02*
X16348753Y-13385174D01*
X16348753Y-13385174D02*
X16329706Y-13375650D01*
X16329706Y-13375650D02*
X16301134Y-13375650D01*
X16301134Y-13375650D02*
X16282087Y-13385174D01*
X16282087Y-13385174D02*
X16272563Y-13394698D01*
X16482087Y-13508984D02*
X16463039Y-13499460D01*
X16463039Y-13499460D02*
X16453515Y-13489936D01*
X16453515Y-13489936D02*
X16443991Y-13470888D01*
X16443991Y-13470888D02*
X16443991Y-13413746D01*
X16443991Y-13413746D02*
X16453515Y-13394698D01*
X16453515Y-13394698D02*
X16463039Y-13385174D01*
X16463039Y-13385174D02*
X16482087Y-13375650D01*
X16482087Y-13375650D02*
X16510658Y-13375650D01*
X16510658Y-13375650D02*
X16529706Y-13385174D01*
X16529706Y-13385174D02*
X16539230Y-13394698D01*
X16539230Y-13394698D02*
X16548753Y-13413746D01*
X16548753Y-13413746D02*
X16548753Y-13470888D01*
X16548753Y-13470888D02*
X16539230Y-13489936D01*
X16539230Y-13489936D02*
X16529706Y-13499460D01*
X16529706Y-13499460D02*
X16510658Y-13508984D01*
X16510658Y-13508984D02*
X16482087Y-13508984D01*
X16663039Y-13508984D02*
X16643991Y-13499460D01*
X16643991Y-13499460D02*
X16634468Y-13480412D01*
X16634468Y-13480412D02*
X16634468Y-13308984D01*
X16815420Y-13499460D02*
X16796373Y-13508984D01*
X16796373Y-13508984D02*
X16758277Y-13508984D01*
X16758277Y-13508984D02*
X16739230Y-13499460D01*
X16739230Y-13499460D02*
X16729706Y-13480412D01*
X16729706Y-13480412D02*
X16729706Y-13404222D01*
X16729706Y-13404222D02*
X16739230Y-13385174D01*
X16739230Y-13385174D02*
X16758277Y-13375650D01*
X16758277Y-13375650D02*
X16796373Y-13375650D01*
X16796373Y-13375650D02*
X16815420Y-13385174D01*
X16815420Y-13385174D02*
X16824944Y-13404222D01*
X16824944Y-13404222D02*
X16824944Y-13423269D01*
X16824944Y-13423269D02*
X16729706Y-13442317D01*
X16901134Y-13499460D02*
X16920182Y-13508984D01*
X16920182Y-13508984D02*
X16958277Y-13508984D01*
X16958277Y-13508984D02*
X16977325Y-13499460D01*
X16977325Y-13499460D02*
X16986849Y-13480412D01*
X16986849Y-13480412D02*
X16986849Y-13470888D01*
X16986849Y-13470888D02*
X16977325Y-13451841D01*
X16977325Y-13451841D02*
X16958277Y-13442317D01*
X16958277Y-13442317D02*
X16929706Y-13442317D01*
X16929706Y-13442317D02*
X16910658Y-13432793D01*
X16910658Y-13432793D02*
X16901134Y-13413746D01*
X16901134Y-13413746D02*
X16901134Y-13404222D01*
X16901134Y-13404222D02*
X16910658Y-13385174D01*
X16910658Y-13385174D02*
X16929706Y-13375650D01*
X16929706Y-13375650D02*
X16958277Y-13375650D01*
X16958277Y-13375650D02*
X16977325Y-13385174D01*
X17053515Y-13585174D02*
X17063039Y-13575650D01*
X17063039Y-13575650D02*
X17082087Y-13547079D01*
X17082087Y-13547079D02*
X17091611Y-13528031D01*
X17091611Y-13528031D02*
X17101134Y-13499460D01*
X17101134Y-13499460D02*
X17110658Y-13451841D01*
X17110658Y-13451841D02*
X17110658Y-13413746D01*
X17110658Y-13413746D02*
X17101134Y-13366127D01*
X17101134Y-13366127D02*
X17091611Y-13337555D01*
X17091611Y-13337555D02*
X17082087Y-13318508D01*
X17082087Y-13318508D02*
X17063039Y-13289936D01*
X17063039Y-13289936D02*
X17053515Y-13280412D01*
D12*
X11897500Y-13681500D02*
G75*
G02*
X11867500Y-13681500I-15000J0D01*
G01*
X11867500Y-13681500D02*
G75*
G02*
X11897500Y-13681500I15000J0D01*
G01*
D11*
X12196372Y-13572984D02*
X12215420Y-13572984D01*
X12215420Y-13572984D02*
X12234467Y-13582508D01*
X12234467Y-13582508D02*
X12243991Y-13592031D01*
X12243991Y-13592031D02*
X12253515Y-13611079D01*
X12253515Y-13611079D02*
X12263039Y-13649174D01*
X12263039Y-13649174D02*
X12263039Y-13696793D01*
X12263039Y-13696793D02*
X12253515Y-13734888D01*
X12253515Y-13734888D02*
X12243991Y-13753936D01*
X12243991Y-13753936D02*
X12234467Y-13763460D01*
X12234467Y-13763460D02*
X12215420Y-13772984D01*
X12215420Y-13772984D02*
X12196372Y-13772984D01*
X12196372Y-13772984D02*
X12177324Y-13763460D01*
X12177324Y-13763460D02*
X12167801Y-13753936D01*
X12167801Y-13753936D02*
X12158277Y-13734888D01*
X12158277Y-13734888D02*
X12148753Y-13696793D01*
X12148753Y-13696793D02*
X12148753Y-13649174D01*
X12148753Y-13649174D02*
X12158277Y-13611079D01*
X12158277Y-13611079D02*
X12167801Y-13592031D01*
X12167801Y-13592031D02*
X12177324Y-13582508D01*
X12177324Y-13582508D02*
X12196372Y-13572984D01*
X12348753Y-13753936D02*
X12358277Y-13763460D01*
X12358277Y-13763460D02*
X12348753Y-13772984D01*
X12348753Y-13772984D02*
X12339229Y-13763460D01*
X12339229Y-13763460D02*
X12348753Y-13753936D01*
X12348753Y-13753936D02*
X12348753Y-13772984D01*
X12424943Y-13572984D02*
X12548753Y-13572984D01*
X12548753Y-13572984D02*
X12482086Y-13649174D01*
X12482086Y-13649174D02*
X12510658Y-13649174D01*
X12510658Y-13649174D02*
X12529705Y-13658698D01*
X12529705Y-13658698D02*
X12539229Y-13668222D01*
X12539229Y-13668222D02*
X12548753Y-13687269D01*
X12548753Y-13687269D02*
X12548753Y-13734888D01*
X12548753Y-13734888D02*
X12539229Y-13753936D01*
X12539229Y-13753936D02*
X12529705Y-13763460D01*
X12529705Y-13763460D02*
X12510658Y-13772984D01*
X12510658Y-13772984D02*
X12453515Y-13772984D01*
X12453515Y-13772984D02*
X12434467Y-13763460D01*
X12434467Y-13763460D02*
X12424943Y-13753936D01*
X12672562Y-13572984D02*
X12691610Y-13572984D01*
X12691610Y-13572984D02*
X12710658Y-13582508D01*
X12710658Y-13582508D02*
X12720182Y-13592031D01*
X12720182Y-13592031D02*
X12729705Y-13611079D01*
X12729705Y-13611079D02*
X12739229Y-13649174D01*
X12739229Y-13649174D02*
X12739229Y-13696793D01*
X12739229Y-13696793D02*
X12729705Y-13734888D01*
X12729705Y-13734888D02*
X12720182Y-13753936D01*
X12720182Y-13753936D02*
X12710658Y-13763460D01*
X12710658Y-13763460D02*
X12691610Y-13772984D01*
X12691610Y-13772984D02*
X12672562Y-13772984D01*
X12672562Y-13772984D02*
X12653515Y-13763460D01*
X12653515Y-13763460D02*
X12643991Y-13753936D01*
X12643991Y-13753936D02*
X12634467Y-13734888D01*
X12634467Y-13734888D02*
X12624943Y-13696793D01*
X12624943Y-13696793D02*
X12624943Y-13649174D01*
X12624943Y-13649174D02*
X12634467Y-13611079D01*
X12634467Y-13611079D02*
X12643991Y-13592031D01*
X12643991Y-13592031D02*
X12653515Y-13582508D01*
X12653515Y-13582508D02*
X12672562Y-13572984D01*
X12863039Y-13572984D02*
X12882086Y-13572984D01*
X12882086Y-13572984D02*
X12901134Y-13582508D01*
X12901134Y-13582508D02*
X12910658Y-13592031D01*
X12910658Y-13592031D02*
X12920182Y-13611079D01*
X12920182Y-13611079D02*
X12929705Y-13649174D01*
X12929705Y-13649174D02*
X12929705Y-13696793D01*
X12929705Y-13696793D02*
X12920182Y-13734888D01*
X12920182Y-13734888D02*
X12910658Y-13753936D01*
X12910658Y-13753936D02*
X12901134Y-13763460D01*
X12901134Y-13763460D02*
X12882086Y-13772984D01*
X12882086Y-13772984D02*
X12863039Y-13772984D01*
X12863039Y-13772984D02*
X12843991Y-13763460D01*
X12843991Y-13763460D02*
X12834467Y-13753936D01*
X12834467Y-13753936D02*
X12824943Y-13734888D01*
X12824943Y-13734888D02*
X12815420Y-13696793D01*
X12815420Y-13696793D02*
X12815420Y-13649174D01*
X12815420Y-13649174D02*
X12824943Y-13611079D01*
X12824943Y-13611079D02*
X12834467Y-13592031D01*
X12834467Y-13592031D02*
X12843991Y-13582508D01*
X12843991Y-13582508D02*
X12863039Y-13572984D01*
X13015420Y-13772984D02*
X13015420Y-13639650D01*
X13015420Y-13658698D02*
X13024943Y-13649174D01*
X13024943Y-13649174D02*
X13043991Y-13639650D01*
X13043991Y-13639650D02*
X13072563Y-13639650D01*
X13072563Y-13639650D02*
X13091610Y-13649174D01*
X13091610Y-13649174D02*
X13101134Y-13668222D01*
X13101134Y-13668222D02*
X13101134Y-13772984D01*
X13101134Y-13668222D02*
X13110658Y-13649174D01*
X13110658Y-13649174D02*
X13129705Y-13639650D01*
X13129705Y-13639650D02*
X13158277Y-13639650D01*
X13158277Y-13639650D02*
X13177324Y-13649174D01*
X13177324Y-13649174D02*
X13186848Y-13668222D01*
X13186848Y-13668222D02*
X13186848Y-13772984D01*
X13282086Y-13772984D02*
X13282086Y-13639650D01*
X13282086Y-13658698D02*
X13291610Y-13649174D01*
X13291610Y-13649174D02*
X13310658Y-13639650D01*
X13310658Y-13639650D02*
X13339229Y-13639650D01*
X13339229Y-13639650D02*
X13358277Y-13649174D01*
X13358277Y-13649174D02*
X13367801Y-13668222D01*
X13367801Y-13668222D02*
X13367801Y-13772984D01*
X13367801Y-13668222D02*
X13377324Y-13649174D01*
X13377324Y-13649174D02*
X13396372Y-13639650D01*
X13396372Y-13639650D02*
X13424943Y-13639650D01*
X13424943Y-13639650D02*
X13443991Y-13649174D01*
X13443991Y-13649174D02*
X13453515Y-13668222D01*
X13453515Y-13668222D02*
X13453515Y-13772984D01*
X13843991Y-13563460D02*
X13672563Y-13820603D01*
X14101134Y-13572984D02*
X14120182Y-13572984D01*
X14120182Y-13572984D02*
X14139229Y-13582508D01*
X14139229Y-13582508D02*
X14148753Y-13592031D01*
X14148753Y-13592031D02*
X14158277Y-13611079D01*
X14158277Y-13611079D02*
X14167801Y-13649174D01*
X14167801Y-13649174D02*
X14167801Y-13696793D01*
X14167801Y-13696793D02*
X14158277Y-13734888D01*
X14158277Y-13734888D02*
X14148753Y-13753936D01*
X14148753Y-13753936D02*
X14139229Y-13763460D01*
X14139229Y-13763460D02*
X14120182Y-13772984D01*
X14120182Y-13772984D02*
X14101134Y-13772984D01*
X14101134Y-13772984D02*
X14082086Y-13763460D01*
X14082086Y-13763460D02*
X14072563Y-13753936D01*
X14072563Y-13753936D02*
X14063039Y-13734888D01*
X14063039Y-13734888D02*
X14053515Y-13696793D01*
X14053515Y-13696793D02*
X14053515Y-13649174D01*
X14053515Y-13649174D02*
X14063039Y-13611079D01*
X14063039Y-13611079D02*
X14072563Y-13592031D01*
X14072563Y-13592031D02*
X14082086Y-13582508D01*
X14082086Y-13582508D02*
X14101134Y-13572984D01*
X14253515Y-13753936D02*
X14263039Y-13763460D01*
X14263039Y-13763460D02*
X14253515Y-13772984D01*
X14253515Y-13772984D02*
X14243991Y-13763460D01*
X14243991Y-13763460D02*
X14253515Y-13753936D01*
X14253515Y-13753936D02*
X14253515Y-13772984D01*
X14386848Y-13572984D02*
X14405896Y-13572984D01*
X14405896Y-13572984D02*
X14424944Y-13582508D01*
X14424944Y-13582508D02*
X14434467Y-13592031D01*
X14434467Y-13592031D02*
X14443991Y-13611079D01*
X14443991Y-13611079D02*
X14453515Y-13649174D01*
X14453515Y-13649174D02*
X14453515Y-13696793D01*
X14453515Y-13696793D02*
X14443991Y-13734888D01*
X14443991Y-13734888D02*
X14434467Y-13753936D01*
X14434467Y-13753936D02*
X14424944Y-13763460D01*
X14424944Y-13763460D02*
X14405896Y-13772984D01*
X14405896Y-13772984D02*
X14386848Y-13772984D01*
X14386848Y-13772984D02*
X14367801Y-13763460D01*
X14367801Y-13763460D02*
X14358277Y-13753936D01*
X14358277Y-13753936D02*
X14348753Y-13734888D01*
X14348753Y-13734888D02*
X14339229Y-13696793D01*
X14339229Y-13696793D02*
X14339229Y-13649174D01*
X14339229Y-13649174D02*
X14348753Y-13611079D01*
X14348753Y-13611079D02*
X14358277Y-13592031D01*
X14358277Y-13592031D02*
X14367801Y-13582508D01*
X14367801Y-13582508D02*
X14386848Y-13572984D01*
X14643991Y-13772984D02*
X14529706Y-13772984D01*
X14586848Y-13772984D02*
X14586848Y-13572984D01*
X14586848Y-13572984D02*
X14567801Y-13601555D01*
X14567801Y-13601555D02*
X14548753Y-13620603D01*
X14548753Y-13620603D02*
X14529706Y-13630127D01*
X14834467Y-13772984D02*
X14720182Y-13772984D01*
X14777325Y-13772984D02*
X14777325Y-13572984D01*
X14777325Y-13572984D02*
X14758277Y-13601555D01*
X14758277Y-13601555D02*
X14739229Y-13620603D01*
X14739229Y-13620603D02*
X14720182Y-13630127D01*
X14948753Y-13658698D02*
X14929706Y-13649174D01*
X14929706Y-13649174D02*
X14920182Y-13639650D01*
X14920182Y-13639650D02*
X14910658Y-13620603D01*
X14910658Y-13620603D02*
X14910658Y-13611079D01*
X14910658Y-13611079D02*
X14920182Y-13592031D01*
X14920182Y-13592031D02*
X14929706Y-13582508D01*
X14929706Y-13582508D02*
X14948753Y-13572984D01*
X14948753Y-13572984D02*
X14986848Y-13572984D01*
X14986848Y-13572984D02*
X15005896Y-13582508D01*
X15005896Y-13582508D02*
X15015420Y-13592031D01*
X15015420Y-13592031D02*
X15024944Y-13611079D01*
X15024944Y-13611079D02*
X15024944Y-13620603D01*
X15024944Y-13620603D02*
X15015420Y-13639650D01*
X15015420Y-13639650D02*
X15005896Y-13649174D01*
X15005896Y-13649174D02*
X14986848Y-13658698D01*
X14986848Y-13658698D02*
X14948753Y-13658698D01*
X14948753Y-13658698D02*
X14929706Y-13668222D01*
X14929706Y-13668222D02*
X14920182Y-13677746D01*
X14920182Y-13677746D02*
X14910658Y-13696793D01*
X14910658Y-13696793D02*
X14910658Y-13734888D01*
X14910658Y-13734888D02*
X14920182Y-13753936D01*
X14920182Y-13753936D02*
X14929706Y-13763460D01*
X14929706Y-13763460D02*
X14948753Y-13772984D01*
X14948753Y-13772984D02*
X14986848Y-13772984D01*
X14986848Y-13772984D02*
X15005896Y-13763460D01*
X15005896Y-13763460D02*
X15015420Y-13753936D01*
X15015420Y-13753936D02*
X15024944Y-13734888D01*
X15024944Y-13734888D02*
X15024944Y-13696793D01*
X15024944Y-13696793D02*
X15015420Y-13677746D01*
X15015420Y-13677746D02*
X15005896Y-13668222D01*
X15005896Y-13668222D02*
X14986848Y-13658698D01*
X15101134Y-13572984D02*
X15101134Y-13611079D01*
X15177325Y-13572984D02*
X15177325Y-13611079D01*
X15472563Y-13849174D02*
X15463039Y-13839650D01*
X15463039Y-13839650D02*
X15443991Y-13811079D01*
X15443991Y-13811079D02*
X15434468Y-13792031D01*
X15434468Y-13792031D02*
X15424944Y-13763460D01*
X15424944Y-13763460D02*
X15415420Y-13715841D01*
X15415420Y-13715841D02*
X15415420Y-13677746D01*
X15415420Y-13677746D02*
X15424944Y-13630127D01*
X15424944Y-13630127D02*
X15434468Y-13601555D01*
X15434468Y-13601555D02*
X15443991Y-13582508D01*
X15443991Y-13582508D02*
X15463039Y-13553936D01*
X15463039Y-13553936D02*
X15472563Y-13544412D01*
X15634468Y-13639650D02*
X15634468Y-13772984D01*
X15586848Y-13563460D02*
X15539229Y-13706317D01*
X15539229Y-13706317D02*
X15663039Y-13706317D01*
X15891610Y-13772984D02*
X15891610Y-13572984D01*
X15977325Y-13772984D02*
X15977325Y-13668222D01*
X15977325Y-13668222D02*
X15967801Y-13649174D01*
X15967801Y-13649174D02*
X15948753Y-13639650D01*
X15948753Y-13639650D02*
X15920182Y-13639650D01*
X15920182Y-13639650D02*
X15901134Y-13649174D01*
X15901134Y-13649174D02*
X15891610Y-13658698D01*
X16101134Y-13772984D02*
X16082087Y-13763460D01*
X16082087Y-13763460D02*
X16072563Y-13753936D01*
X16072563Y-13753936D02*
X16063039Y-13734888D01*
X16063039Y-13734888D02*
X16063039Y-13677746D01*
X16063039Y-13677746D02*
X16072563Y-13658698D01*
X16072563Y-13658698D02*
X16082087Y-13649174D01*
X16082087Y-13649174D02*
X16101134Y-13639650D01*
X16101134Y-13639650D02*
X16129706Y-13639650D01*
X16129706Y-13639650D02*
X16148753Y-13649174D01*
X16148753Y-13649174D02*
X16158277Y-13658698D01*
X16158277Y-13658698D02*
X16167801Y-13677746D01*
X16167801Y-13677746D02*
X16167801Y-13734888D01*
X16167801Y-13734888D02*
X16158277Y-13753936D01*
X16158277Y-13753936D02*
X16148753Y-13763460D01*
X16148753Y-13763460D02*
X16129706Y-13772984D01*
X16129706Y-13772984D02*
X16101134Y-13772984D01*
X16282087Y-13772984D02*
X16263039Y-13763460D01*
X16263039Y-13763460D02*
X16253515Y-13744412D01*
X16253515Y-13744412D02*
X16253515Y-13572984D01*
X16434468Y-13763460D02*
X16415420Y-13772984D01*
X16415420Y-13772984D02*
X16377325Y-13772984D01*
X16377325Y-13772984D02*
X16358277Y-13763460D01*
X16358277Y-13763460D02*
X16348753Y-13744412D01*
X16348753Y-13744412D02*
X16348753Y-13668222D01*
X16348753Y-13668222D02*
X16358277Y-13649174D01*
X16358277Y-13649174D02*
X16377325Y-13639650D01*
X16377325Y-13639650D02*
X16415420Y-13639650D01*
X16415420Y-13639650D02*
X16434468Y-13649174D01*
X16434468Y-13649174D02*
X16443991Y-13668222D01*
X16443991Y-13668222D02*
X16443991Y-13687269D01*
X16443991Y-13687269D02*
X16348753Y-13706317D01*
X16520182Y-13763460D02*
X16539230Y-13772984D01*
X16539230Y-13772984D02*
X16577325Y-13772984D01*
X16577325Y-13772984D02*
X16596372Y-13763460D01*
X16596372Y-13763460D02*
X16605896Y-13744412D01*
X16605896Y-13744412D02*
X16605896Y-13734888D01*
X16605896Y-13734888D02*
X16596372Y-13715841D01*
X16596372Y-13715841D02*
X16577325Y-13706317D01*
X16577325Y-13706317D02*
X16548753Y-13706317D01*
X16548753Y-13706317D02*
X16529706Y-13696793D01*
X16529706Y-13696793D02*
X16520182Y-13677746D01*
X16520182Y-13677746D02*
X16520182Y-13668222D01*
X16520182Y-13668222D02*
X16529706Y-13649174D01*
X16529706Y-13649174D02*
X16548753Y-13639650D01*
X16548753Y-13639650D02*
X16577325Y-13639650D01*
X16577325Y-13639650D02*
X16596372Y-13649174D01*
X16672563Y-13849174D02*
X16682087Y-13839650D01*
X16682087Y-13839650D02*
X16701134Y-13811079D01*
X16701134Y-13811079D02*
X16710658Y-13792031D01*
X16710658Y-13792031D02*
X16720182Y-13763460D01*
X16720182Y-13763460D02*
X16729706Y-13715841D01*
X16729706Y-13715841D02*
X16729706Y-13677746D01*
X16729706Y-13677746D02*
X16720182Y-13630127D01*
X16720182Y-13630127D02*
X16710658Y-13601555D01*
X16710658Y-13601555D02*
X16701134Y-13582508D01*
X16701134Y-13582508D02*
X16682087Y-13553936D01*
X16682087Y-13553936D02*
X16672563Y-13544412D01*
D12*
X11867500Y-13915500D02*
X11867500Y-13975500D01*
X11837500Y-13945500D02*
X11897500Y-13945500D01*
D11*
X12196372Y-13836984D02*
X12215420Y-13836984D01*
X12215420Y-13836984D02*
X12234467Y-13846508D01*
X12234467Y-13846508D02*
X12243991Y-13856031D01*
X12243991Y-13856031D02*
X12253515Y-13875079D01*
X12253515Y-13875079D02*
X12263039Y-13913174D01*
X12263039Y-13913174D02*
X12263039Y-13960793D01*
X12263039Y-13960793D02*
X12253515Y-13998888D01*
X12253515Y-13998888D02*
X12243991Y-14017936D01*
X12243991Y-14017936D02*
X12234467Y-14027460D01*
X12234467Y-14027460D02*
X12215420Y-14036984D01*
X12215420Y-14036984D02*
X12196372Y-14036984D01*
X12196372Y-14036984D02*
X12177324Y-14027460D01*
X12177324Y-14027460D02*
X12167801Y-14017936D01*
X12167801Y-14017936D02*
X12158277Y-13998888D01*
X12158277Y-13998888D02*
X12148753Y-13960793D01*
X12148753Y-13960793D02*
X12148753Y-13913174D01*
X12148753Y-13913174D02*
X12158277Y-13875079D01*
X12158277Y-13875079D02*
X12167801Y-13856031D01*
X12167801Y-13856031D02*
X12177324Y-13846508D01*
X12177324Y-13846508D02*
X12196372Y-13836984D01*
X12348753Y-14017936D02*
X12358277Y-14027460D01*
X12358277Y-14027460D02*
X12348753Y-14036984D01*
X12348753Y-14036984D02*
X12339229Y-14027460D01*
X12339229Y-14027460D02*
X12348753Y-14017936D01*
X12348753Y-14017936D02*
X12348753Y-14036984D01*
X12529705Y-13836984D02*
X12491610Y-13836984D01*
X12491610Y-13836984D02*
X12472562Y-13846508D01*
X12472562Y-13846508D02*
X12463039Y-13856031D01*
X12463039Y-13856031D02*
X12443991Y-13884603D01*
X12443991Y-13884603D02*
X12434467Y-13922698D01*
X12434467Y-13922698D02*
X12434467Y-13998888D01*
X12434467Y-13998888D02*
X12443991Y-14017936D01*
X12443991Y-14017936D02*
X12453515Y-14027460D01*
X12453515Y-14027460D02*
X12472562Y-14036984D01*
X12472562Y-14036984D02*
X12510658Y-14036984D01*
X12510658Y-14036984D02*
X12529705Y-14027460D01*
X12529705Y-14027460D02*
X12539229Y-14017936D01*
X12539229Y-14017936D02*
X12548753Y-13998888D01*
X12548753Y-13998888D02*
X12548753Y-13951269D01*
X12548753Y-13951269D02*
X12539229Y-13932222D01*
X12539229Y-13932222D02*
X12529705Y-13922698D01*
X12529705Y-13922698D02*
X12510658Y-13913174D01*
X12510658Y-13913174D02*
X12472562Y-13913174D01*
X12472562Y-13913174D02*
X12453515Y-13922698D01*
X12453515Y-13922698D02*
X12443991Y-13932222D01*
X12443991Y-13932222D02*
X12434467Y-13951269D01*
X12672562Y-13836984D02*
X12691610Y-13836984D01*
X12691610Y-13836984D02*
X12710658Y-13846508D01*
X12710658Y-13846508D02*
X12720182Y-13856031D01*
X12720182Y-13856031D02*
X12729705Y-13875079D01*
X12729705Y-13875079D02*
X12739229Y-13913174D01*
X12739229Y-13913174D02*
X12739229Y-13960793D01*
X12739229Y-13960793D02*
X12729705Y-13998888D01*
X12729705Y-13998888D02*
X12720182Y-14017936D01*
X12720182Y-14017936D02*
X12710658Y-14027460D01*
X12710658Y-14027460D02*
X12691610Y-14036984D01*
X12691610Y-14036984D02*
X12672562Y-14036984D01*
X12672562Y-14036984D02*
X12653515Y-14027460D01*
X12653515Y-14027460D02*
X12643991Y-14017936D01*
X12643991Y-14017936D02*
X12634467Y-13998888D01*
X12634467Y-13998888D02*
X12624943Y-13960793D01*
X12624943Y-13960793D02*
X12624943Y-13913174D01*
X12624943Y-13913174D02*
X12634467Y-13875079D01*
X12634467Y-13875079D02*
X12643991Y-13856031D01*
X12643991Y-13856031D02*
X12653515Y-13846508D01*
X12653515Y-13846508D02*
X12672562Y-13836984D01*
X12863039Y-13836984D02*
X12882086Y-13836984D01*
X12882086Y-13836984D02*
X12901134Y-13846508D01*
X12901134Y-13846508D02*
X12910658Y-13856031D01*
X12910658Y-13856031D02*
X12920182Y-13875079D01*
X12920182Y-13875079D02*
X12929705Y-13913174D01*
X12929705Y-13913174D02*
X12929705Y-13960793D01*
X12929705Y-13960793D02*
X12920182Y-13998888D01*
X12920182Y-13998888D02*
X12910658Y-14017936D01*
X12910658Y-14017936D02*
X12901134Y-14027460D01*
X12901134Y-14027460D02*
X12882086Y-14036984D01*
X12882086Y-14036984D02*
X12863039Y-14036984D01*
X12863039Y-14036984D02*
X12843991Y-14027460D01*
X12843991Y-14027460D02*
X12834467Y-14017936D01*
X12834467Y-14017936D02*
X12824943Y-13998888D01*
X12824943Y-13998888D02*
X12815420Y-13960793D01*
X12815420Y-13960793D02*
X12815420Y-13913174D01*
X12815420Y-13913174D02*
X12824943Y-13875079D01*
X12824943Y-13875079D02*
X12834467Y-13856031D01*
X12834467Y-13856031D02*
X12843991Y-13846508D01*
X12843991Y-13846508D02*
X12863039Y-13836984D01*
X13015420Y-14036984D02*
X13015420Y-13903650D01*
X13015420Y-13922698D02*
X13024943Y-13913174D01*
X13024943Y-13913174D02*
X13043991Y-13903650D01*
X13043991Y-13903650D02*
X13072563Y-13903650D01*
X13072563Y-13903650D02*
X13091610Y-13913174D01*
X13091610Y-13913174D02*
X13101134Y-13932222D01*
X13101134Y-13932222D02*
X13101134Y-14036984D01*
X13101134Y-13932222D02*
X13110658Y-13913174D01*
X13110658Y-13913174D02*
X13129705Y-13903650D01*
X13129705Y-13903650D02*
X13158277Y-13903650D01*
X13158277Y-13903650D02*
X13177324Y-13913174D01*
X13177324Y-13913174D02*
X13186848Y-13932222D01*
X13186848Y-13932222D02*
X13186848Y-14036984D01*
X13282086Y-14036984D02*
X13282086Y-13903650D01*
X13282086Y-13922698D02*
X13291610Y-13913174D01*
X13291610Y-13913174D02*
X13310658Y-13903650D01*
X13310658Y-13903650D02*
X13339229Y-13903650D01*
X13339229Y-13903650D02*
X13358277Y-13913174D01*
X13358277Y-13913174D02*
X13367801Y-13932222D01*
X13367801Y-13932222D02*
X13367801Y-14036984D01*
X13367801Y-13932222D02*
X13377324Y-13913174D01*
X13377324Y-13913174D02*
X13396372Y-13903650D01*
X13396372Y-13903650D02*
X13424943Y-13903650D01*
X13424943Y-13903650D02*
X13443991Y-13913174D01*
X13443991Y-13913174D02*
X13453515Y-13932222D01*
X13453515Y-13932222D02*
X13453515Y-14036984D01*
X13843991Y-13827460D02*
X13672563Y-14084603D01*
X14101134Y-13836984D02*
X14120182Y-13836984D01*
X14120182Y-13836984D02*
X14139229Y-13846508D01*
X14139229Y-13846508D02*
X14148753Y-13856031D01*
X14148753Y-13856031D02*
X14158277Y-13875079D01*
X14158277Y-13875079D02*
X14167801Y-13913174D01*
X14167801Y-13913174D02*
X14167801Y-13960793D01*
X14167801Y-13960793D02*
X14158277Y-13998888D01*
X14158277Y-13998888D02*
X14148753Y-14017936D01*
X14148753Y-14017936D02*
X14139229Y-14027460D01*
X14139229Y-14027460D02*
X14120182Y-14036984D01*
X14120182Y-14036984D02*
X14101134Y-14036984D01*
X14101134Y-14036984D02*
X14082086Y-14027460D01*
X14082086Y-14027460D02*
X14072563Y-14017936D01*
X14072563Y-14017936D02*
X14063039Y-13998888D01*
X14063039Y-13998888D02*
X14053515Y-13960793D01*
X14053515Y-13960793D02*
X14053515Y-13913174D01*
X14053515Y-13913174D02*
X14063039Y-13875079D01*
X14063039Y-13875079D02*
X14072563Y-13856031D01*
X14072563Y-13856031D02*
X14082086Y-13846508D01*
X14082086Y-13846508D02*
X14101134Y-13836984D01*
X14253515Y-14017936D02*
X14263039Y-14027460D01*
X14263039Y-14027460D02*
X14253515Y-14036984D01*
X14253515Y-14036984D02*
X14243991Y-14027460D01*
X14243991Y-14027460D02*
X14253515Y-14017936D01*
X14253515Y-14017936D02*
X14253515Y-14036984D01*
X14386848Y-13836984D02*
X14405896Y-13836984D01*
X14405896Y-13836984D02*
X14424944Y-13846508D01*
X14424944Y-13846508D02*
X14434467Y-13856031D01*
X14434467Y-13856031D02*
X14443991Y-13875079D01*
X14443991Y-13875079D02*
X14453515Y-13913174D01*
X14453515Y-13913174D02*
X14453515Y-13960793D01*
X14453515Y-13960793D02*
X14443991Y-13998888D01*
X14443991Y-13998888D02*
X14434467Y-14017936D01*
X14434467Y-14017936D02*
X14424944Y-14027460D01*
X14424944Y-14027460D02*
X14405896Y-14036984D01*
X14405896Y-14036984D02*
X14386848Y-14036984D01*
X14386848Y-14036984D02*
X14367801Y-14027460D01*
X14367801Y-14027460D02*
X14358277Y-14017936D01*
X14358277Y-14017936D02*
X14348753Y-13998888D01*
X14348753Y-13998888D02*
X14339229Y-13960793D01*
X14339229Y-13960793D02*
X14339229Y-13913174D01*
X14339229Y-13913174D02*
X14348753Y-13875079D01*
X14348753Y-13875079D02*
X14358277Y-13856031D01*
X14358277Y-13856031D02*
X14367801Y-13846508D01*
X14367801Y-13846508D02*
X14386848Y-13836984D01*
X14529706Y-13856031D02*
X14539229Y-13846508D01*
X14539229Y-13846508D02*
X14558277Y-13836984D01*
X14558277Y-13836984D02*
X14605896Y-13836984D01*
X14605896Y-13836984D02*
X14624944Y-13846508D01*
X14624944Y-13846508D02*
X14634467Y-13856031D01*
X14634467Y-13856031D02*
X14643991Y-13875079D01*
X14643991Y-13875079D02*
X14643991Y-13894127D01*
X14643991Y-13894127D02*
X14634467Y-13922698D01*
X14634467Y-13922698D02*
X14520182Y-14036984D01*
X14520182Y-14036984D02*
X14643991Y-14036984D01*
X14710658Y-13836984D02*
X14834467Y-13836984D01*
X14834467Y-13836984D02*
X14767801Y-13913174D01*
X14767801Y-13913174D02*
X14796372Y-13913174D01*
X14796372Y-13913174D02*
X14815420Y-13922698D01*
X14815420Y-13922698D02*
X14824944Y-13932222D01*
X14824944Y-13932222D02*
X14834467Y-13951269D01*
X14834467Y-13951269D02*
X14834467Y-13998888D01*
X14834467Y-13998888D02*
X14824944Y-14017936D01*
X14824944Y-14017936D02*
X14815420Y-14027460D01*
X14815420Y-14027460D02*
X14796372Y-14036984D01*
X14796372Y-14036984D02*
X14739229Y-14036984D01*
X14739229Y-14036984D02*
X14720182Y-14027460D01*
X14720182Y-14027460D02*
X14710658Y-14017936D01*
X15005896Y-13836984D02*
X14967801Y-13836984D01*
X14967801Y-13836984D02*
X14948753Y-13846508D01*
X14948753Y-13846508D02*
X14939229Y-13856031D01*
X14939229Y-13856031D02*
X14920182Y-13884603D01*
X14920182Y-13884603D02*
X14910658Y-13922698D01*
X14910658Y-13922698D02*
X14910658Y-13998888D01*
X14910658Y-13998888D02*
X14920182Y-14017936D01*
X14920182Y-14017936D02*
X14929706Y-14027460D01*
X14929706Y-14027460D02*
X14948753Y-14036984D01*
X14948753Y-14036984D02*
X14986848Y-14036984D01*
X14986848Y-14036984D02*
X15005896Y-14027460D01*
X15005896Y-14027460D02*
X15015420Y-14017936D01*
X15015420Y-14017936D02*
X15024944Y-13998888D01*
X15024944Y-13998888D02*
X15024944Y-13951269D01*
X15024944Y-13951269D02*
X15015420Y-13932222D01*
X15015420Y-13932222D02*
X15005896Y-13922698D01*
X15005896Y-13922698D02*
X14986848Y-13913174D01*
X14986848Y-13913174D02*
X14948753Y-13913174D01*
X14948753Y-13913174D02*
X14929706Y-13922698D01*
X14929706Y-13922698D02*
X14920182Y-13932222D01*
X14920182Y-13932222D02*
X14910658Y-13951269D01*
X15101134Y-13836984D02*
X15101134Y-13875079D01*
X15177325Y-13836984D02*
X15177325Y-13875079D01*
X15472563Y-14113174D02*
X15463039Y-14103650D01*
X15463039Y-14103650D02*
X15443991Y-14075079D01*
X15443991Y-14075079D02*
X15434468Y-14056031D01*
X15434468Y-14056031D02*
X15424944Y-14027460D01*
X15424944Y-14027460D02*
X15415420Y-13979841D01*
X15415420Y-13979841D02*
X15415420Y-13941746D01*
X15415420Y-13941746D02*
X15424944Y-13894127D01*
X15424944Y-13894127D02*
X15434468Y-13865555D01*
X15434468Y-13865555D02*
X15443991Y-13846508D01*
X15443991Y-13846508D02*
X15463039Y-13817936D01*
X15463039Y-13817936D02*
X15472563Y-13808412D01*
X15586848Y-13836984D02*
X15605896Y-13836984D01*
X15605896Y-13836984D02*
X15624944Y-13846508D01*
X15624944Y-13846508D02*
X15634468Y-13856031D01*
X15634468Y-13856031D02*
X15643991Y-13875079D01*
X15643991Y-13875079D02*
X15653515Y-13913174D01*
X15653515Y-13913174D02*
X15653515Y-13960793D01*
X15653515Y-13960793D02*
X15643991Y-13998888D01*
X15643991Y-13998888D02*
X15634468Y-14017936D01*
X15634468Y-14017936D02*
X15624944Y-14027460D01*
X15624944Y-14027460D02*
X15605896Y-14036984D01*
X15605896Y-14036984D02*
X15586848Y-14036984D01*
X15586848Y-14036984D02*
X15567801Y-14027460D01*
X15567801Y-14027460D02*
X15558277Y-14017936D01*
X15558277Y-14017936D02*
X15548753Y-13998888D01*
X15548753Y-13998888D02*
X15539229Y-13960793D01*
X15539229Y-13960793D02*
X15539229Y-13913174D01*
X15539229Y-13913174D02*
X15548753Y-13875079D01*
X15548753Y-13875079D02*
X15558277Y-13856031D01*
X15558277Y-13856031D02*
X15567801Y-13846508D01*
X15567801Y-13846508D02*
X15586848Y-13836984D01*
X15891610Y-14036984D02*
X15891610Y-13836984D01*
X15977325Y-14036984D02*
X15977325Y-13932222D01*
X15977325Y-13932222D02*
X15967801Y-13913174D01*
X15967801Y-13913174D02*
X15948753Y-13903650D01*
X15948753Y-13903650D02*
X15920182Y-13903650D01*
X15920182Y-13903650D02*
X15901134Y-13913174D01*
X15901134Y-13913174D02*
X15891610Y-13922698D01*
X16101134Y-14036984D02*
X16082087Y-14027460D01*
X16082087Y-14027460D02*
X16072563Y-14017936D01*
X16072563Y-14017936D02*
X16063039Y-13998888D01*
X16063039Y-13998888D02*
X16063039Y-13941746D01*
X16063039Y-13941746D02*
X16072563Y-13922698D01*
X16072563Y-13922698D02*
X16082087Y-13913174D01*
X16082087Y-13913174D02*
X16101134Y-13903650D01*
X16101134Y-13903650D02*
X16129706Y-13903650D01*
X16129706Y-13903650D02*
X16148753Y-13913174D01*
X16148753Y-13913174D02*
X16158277Y-13922698D01*
X16158277Y-13922698D02*
X16167801Y-13941746D01*
X16167801Y-13941746D02*
X16167801Y-13998888D01*
X16167801Y-13998888D02*
X16158277Y-14017936D01*
X16158277Y-14017936D02*
X16148753Y-14027460D01*
X16148753Y-14027460D02*
X16129706Y-14036984D01*
X16129706Y-14036984D02*
X16101134Y-14036984D01*
X16282087Y-14036984D02*
X16263039Y-14027460D01*
X16263039Y-14027460D02*
X16253515Y-14008412D01*
X16253515Y-14008412D02*
X16253515Y-13836984D01*
X16434468Y-14027460D02*
X16415420Y-14036984D01*
X16415420Y-14036984D02*
X16377325Y-14036984D01*
X16377325Y-14036984D02*
X16358277Y-14027460D01*
X16358277Y-14027460D02*
X16348753Y-14008412D01*
X16348753Y-14008412D02*
X16348753Y-13932222D01*
X16348753Y-13932222D02*
X16358277Y-13913174D01*
X16358277Y-13913174D02*
X16377325Y-13903650D01*
X16377325Y-13903650D02*
X16415420Y-13903650D01*
X16415420Y-13903650D02*
X16434468Y-13913174D01*
X16434468Y-13913174D02*
X16443991Y-13932222D01*
X16443991Y-13932222D02*
X16443991Y-13951269D01*
X16443991Y-13951269D02*
X16348753Y-13970317D01*
X16520182Y-14027460D02*
X16539230Y-14036984D01*
X16539230Y-14036984D02*
X16577325Y-14036984D01*
X16577325Y-14036984D02*
X16596372Y-14027460D01*
X16596372Y-14027460D02*
X16605896Y-14008412D01*
X16605896Y-14008412D02*
X16605896Y-13998888D01*
X16605896Y-13998888D02*
X16596372Y-13979841D01*
X16596372Y-13979841D02*
X16577325Y-13970317D01*
X16577325Y-13970317D02*
X16548753Y-13970317D01*
X16548753Y-13970317D02*
X16529706Y-13960793D01*
X16529706Y-13960793D02*
X16520182Y-13941746D01*
X16520182Y-13941746D02*
X16520182Y-13932222D01*
X16520182Y-13932222D02*
X16529706Y-13913174D01*
X16529706Y-13913174D02*
X16548753Y-13903650D01*
X16548753Y-13903650D02*
X16577325Y-13903650D01*
X16577325Y-13903650D02*
X16596372Y-13913174D01*
X16843992Y-13960793D02*
X16996373Y-13960793D01*
X16920182Y-14036984D02*
X16920182Y-13884603D01*
X17329706Y-13903650D02*
X17329706Y-14036984D01*
X17282087Y-13827460D02*
X17234468Y-13970317D01*
X17234468Y-13970317D02*
X17358277Y-13970317D01*
X17577325Y-14027460D02*
X17596373Y-14036984D01*
X17596373Y-14036984D02*
X17634468Y-14036984D01*
X17634468Y-14036984D02*
X17653516Y-14027460D01*
X17653516Y-14027460D02*
X17663039Y-14008412D01*
X17663039Y-14008412D02*
X17663039Y-13998888D01*
X17663039Y-13998888D02*
X17653516Y-13979841D01*
X17653516Y-13979841D02*
X17634468Y-13970317D01*
X17634468Y-13970317D02*
X17605896Y-13970317D01*
X17605896Y-13970317D02*
X17586849Y-13960793D01*
X17586849Y-13960793D02*
X17577325Y-13941746D01*
X17577325Y-13941746D02*
X17577325Y-13932222D01*
X17577325Y-13932222D02*
X17586849Y-13913174D01*
X17586849Y-13913174D02*
X17605896Y-13903650D01*
X17605896Y-13903650D02*
X17634468Y-13903650D01*
X17634468Y-13903650D02*
X17653516Y-13913174D01*
X17777325Y-14036984D02*
X17758277Y-14027460D01*
X17758277Y-14027460D02*
X17748754Y-14008412D01*
X17748754Y-14008412D02*
X17748754Y-13836984D01*
X17882087Y-14036984D02*
X17863039Y-14027460D01*
X17863039Y-14027460D02*
X17853516Y-14017936D01*
X17853516Y-14017936D02*
X17843992Y-13998888D01*
X17843992Y-13998888D02*
X17843992Y-13941746D01*
X17843992Y-13941746D02*
X17853516Y-13922698D01*
X17853516Y-13922698D02*
X17863039Y-13913174D01*
X17863039Y-13913174D02*
X17882087Y-13903650D01*
X17882087Y-13903650D02*
X17910658Y-13903650D01*
X17910658Y-13903650D02*
X17929706Y-13913174D01*
X17929706Y-13913174D02*
X17939230Y-13922698D01*
X17939230Y-13922698D02*
X17948754Y-13941746D01*
X17948754Y-13941746D02*
X17948754Y-13998888D01*
X17948754Y-13998888D02*
X17939230Y-14017936D01*
X17939230Y-14017936D02*
X17929706Y-14027460D01*
X17929706Y-14027460D02*
X17910658Y-14036984D01*
X17910658Y-14036984D02*
X17882087Y-14036984D01*
X18005897Y-13903650D02*
X18082087Y-13903650D01*
X18034468Y-13836984D02*
X18034468Y-14008412D01*
X18034468Y-14008412D02*
X18043992Y-14027460D01*
X18043992Y-14027460D02*
X18063039Y-14036984D01*
X18063039Y-14036984D02*
X18082087Y-14036984D01*
X18139230Y-14027460D02*
X18158277Y-14036984D01*
X18158277Y-14036984D02*
X18196373Y-14036984D01*
X18196373Y-14036984D02*
X18215420Y-14027460D01*
X18215420Y-14027460D02*
X18224944Y-14008412D01*
X18224944Y-14008412D02*
X18224944Y-13998888D01*
X18224944Y-13998888D02*
X18215420Y-13979841D01*
X18215420Y-13979841D02*
X18196373Y-13970317D01*
X18196373Y-13970317D02*
X18167801Y-13970317D01*
X18167801Y-13970317D02*
X18148754Y-13960793D01*
X18148754Y-13960793D02*
X18139230Y-13941746D01*
X18139230Y-13941746D02*
X18139230Y-13932222D01*
X18139230Y-13932222D02*
X18148754Y-13913174D01*
X18148754Y-13913174D02*
X18167801Y-13903650D01*
X18167801Y-13903650D02*
X18196373Y-13903650D01*
X18196373Y-13903650D02*
X18215420Y-13913174D01*
X18291611Y-14113174D02*
X18301135Y-14103650D01*
X18301135Y-14103650D02*
X18320182Y-14075079D01*
X18320182Y-14075079D02*
X18329706Y-14056031D01*
X18329706Y-14056031D02*
X18339230Y-14027460D01*
X18339230Y-14027460D02*
X18348754Y-13979841D01*
X18348754Y-13979841D02*
X18348754Y-13941746D01*
X18348754Y-13941746D02*
X18339230Y-13894127D01*
X18339230Y-13894127D02*
X18329706Y-13865555D01*
X18329706Y-13865555D02*
X18320182Y-13846508D01*
X18320182Y-13846508D02*
X18301135Y-13817936D01*
X18301135Y-13817936D02*
X18291611Y-13808412D01*
D12*
X11882856Y-14244856D02*
X11882856Y-14174144D01*
X11812144Y-14174144D01*
X11812144Y-14244856D01*
X11882856Y-14244856D01*
D11*
X12263039Y-14300984D02*
X12148753Y-14300984D01*
X12205896Y-14300984D02*
X12205896Y-14100984D01*
X12205896Y-14100984D02*
X12186848Y-14129555D01*
X12186848Y-14129555D02*
X12167801Y-14148603D01*
X12167801Y-14148603D02*
X12148753Y-14158127D01*
X12348753Y-14281936D02*
X12358277Y-14291460D01*
X12358277Y-14291460D02*
X12348753Y-14300984D01*
X12348753Y-14300984D02*
X12339229Y-14291460D01*
X12339229Y-14291460D02*
X12348753Y-14281936D01*
X12348753Y-14281936D02*
X12348753Y-14300984D01*
X12482086Y-14100984D02*
X12501134Y-14100984D01*
X12501134Y-14100984D02*
X12520182Y-14110508D01*
X12520182Y-14110508D02*
X12529705Y-14120031D01*
X12529705Y-14120031D02*
X12539229Y-14139079D01*
X12539229Y-14139079D02*
X12548753Y-14177174D01*
X12548753Y-14177174D02*
X12548753Y-14224793D01*
X12548753Y-14224793D02*
X12539229Y-14262888D01*
X12539229Y-14262888D02*
X12529705Y-14281936D01*
X12529705Y-14281936D02*
X12520182Y-14291460D01*
X12520182Y-14291460D02*
X12501134Y-14300984D01*
X12501134Y-14300984D02*
X12482086Y-14300984D01*
X12482086Y-14300984D02*
X12463039Y-14291460D01*
X12463039Y-14291460D02*
X12453515Y-14281936D01*
X12453515Y-14281936D02*
X12443991Y-14262888D01*
X12443991Y-14262888D02*
X12434467Y-14224793D01*
X12434467Y-14224793D02*
X12434467Y-14177174D01*
X12434467Y-14177174D02*
X12443991Y-14139079D01*
X12443991Y-14139079D02*
X12453515Y-14120031D01*
X12453515Y-14120031D02*
X12463039Y-14110508D01*
X12463039Y-14110508D02*
X12482086Y-14100984D01*
X12672562Y-14100984D02*
X12691610Y-14100984D01*
X12691610Y-14100984D02*
X12710658Y-14110508D01*
X12710658Y-14110508D02*
X12720182Y-14120031D01*
X12720182Y-14120031D02*
X12729705Y-14139079D01*
X12729705Y-14139079D02*
X12739229Y-14177174D01*
X12739229Y-14177174D02*
X12739229Y-14224793D01*
X12739229Y-14224793D02*
X12729705Y-14262888D01*
X12729705Y-14262888D02*
X12720182Y-14281936D01*
X12720182Y-14281936D02*
X12710658Y-14291460D01*
X12710658Y-14291460D02*
X12691610Y-14300984D01*
X12691610Y-14300984D02*
X12672562Y-14300984D01*
X12672562Y-14300984D02*
X12653515Y-14291460D01*
X12653515Y-14291460D02*
X12643991Y-14281936D01*
X12643991Y-14281936D02*
X12634467Y-14262888D01*
X12634467Y-14262888D02*
X12624943Y-14224793D01*
X12624943Y-14224793D02*
X12624943Y-14177174D01*
X12624943Y-14177174D02*
X12634467Y-14139079D01*
X12634467Y-14139079D02*
X12643991Y-14120031D01*
X12643991Y-14120031D02*
X12653515Y-14110508D01*
X12653515Y-14110508D02*
X12672562Y-14100984D01*
X12863039Y-14100984D02*
X12882086Y-14100984D01*
X12882086Y-14100984D02*
X12901134Y-14110508D01*
X12901134Y-14110508D02*
X12910658Y-14120031D01*
X12910658Y-14120031D02*
X12920182Y-14139079D01*
X12920182Y-14139079D02*
X12929705Y-14177174D01*
X12929705Y-14177174D02*
X12929705Y-14224793D01*
X12929705Y-14224793D02*
X12920182Y-14262888D01*
X12920182Y-14262888D02*
X12910658Y-14281936D01*
X12910658Y-14281936D02*
X12901134Y-14291460D01*
X12901134Y-14291460D02*
X12882086Y-14300984D01*
X12882086Y-14300984D02*
X12863039Y-14300984D01*
X12863039Y-14300984D02*
X12843991Y-14291460D01*
X12843991Y-14291460D02*
X12834467Y-14281936D01*
X12834467Y-14281936D02*
X12824943Y-14262888D01*
X12824943Y-14262888D02*
X12815420Y-14224793D01*
X12815420Y-14224793D02*
X12815420Y-14177174D01*
X12815420Y-14177174D02*
X12824943Y-14139079D01*
X12824943Y-14139079D02*
X12834467Y-14120031D01*
X12834467Y-14120031D02*
X12843991Y-14110508D01*
X12843991Y-14110508D02*
X12863039Y-14100984D01*
X13015420Y-14300984D02*
X13015420Y-14167650D01*
X13015420Y-14186698D02*
X13024943Y-14177174D01*
X13024943Y-14177174D02*
X13043991Y-14167650D01*
X13043991Y-14167650D02*
X13072563Y-14167650D01*
X13072563Y-14167650D02*
X13091610Y-14177174D01*
X13091610Y-14177174D02*
X13101134Y-14196222D01*
X13101134Y-14196222D02*
X13101134Y-14300984D01*
X13101134Y-14196222D02*
X13110658Y-14177174D01*
X13110658Y-14177174D02*
X13129705Y-14167650D01*
X13129705Y-14167650D02*
X13158277Y-14167650D01*
X13158277Y-14167650D02*
X13177324Y-14177174D01*
X13177324Y-14177174D02*
X13186848Y-14196222D01*
X13186848Y-14196222D02*
X13186848Y-14300984D01*
X13282086Y-14300984D02*
X13282086Y-14167650D01*
X13282086Y-14186698D02*
X13291610Y-14177174D01*
X13291610Y-14177174D02*
X13310658Y-14167650D01*
X13310658Y-14167650D02*
X13339229Y-14167650D01*
X13339229Y-14167650D02*
X13358277Y-14177174D01*
X13358277Y-14177174D02*
X13367801Y-14196222D01*
X13367801Y-14196222D02*
X13367801Y-14300984D01*
X13367801Y-14196222D02*
X13377324Y-14177174D01*
X13377324Y-14177174D02*
X13396372Y-14167650D01*
X13396372Y-14167650D02*
X13424943Y-14167650D01*
X13424943Y-14167650D02*
X13443991Y-14177174D01*
X13443991Y-14177174D02*
X13453515Y-14196222D01*
X13453515Y-14196222D02*
X13453515Y-14300984D01*
X13843991Y-14091460D02*
X13672563Y-14348603D01*
X14101134Y-14100984D02*
X14120182Y-14100984D01*
X14120182Y-14100984D02*
X14139229Y-14110508D01*
X14139229Y-14110508D02*
X14148753Y-14120031D01*
X14148753Y-14120031D02*
X14158277Y-14139079D01*
X14158277Y-14139079D02*
X14167801Y-14177174D01*
X14167801Y-14177174D02*
X14167801Y-14224793D01*
X14167801Y-14224793D02*
X14158277Y-14262888D01*
X14158277Y-14262888D02*
X14148753Y-14281936D01*
X14148753Y-14281936D02*
X14139229Y-14291460D01*
X14139229Y-14291460D02*
X14120182Y-14300984D01*
X14120182Y-14300984D02*
X14101134Y-14300984D01*
X14101134Y-14300984D02*
X14082086Y-14291460D01*
X14082086Y-14291460D02*
X14072563Y-14281936D01*
X14072563Y-14281936D02*
X14063039Y-14262888D01*
X14063039Y-14262888D02*
X14053515Y-14224793D01*
X14053515Y-14224793D02*
X14053515Y-14177174D01*
X14053515Y-14177174D02*
X14063039Y-14139079D01*
X14063039Y-14139079D02*
X14072563Y-14120031D01*
X14072563Y-14120031D02*
X14082086Y-14110508D01*
X14082086Y-14110508D02*
X14101134Y-14100984D01*
X14253515Y-14281936D02*
X14263039Y-14291460D01*
X14263039Y-14291460D02*
X14253515Y-14300984D01*
X14253515Y-14300984D02*
X14243991Y-14291460D01*
X14243991Y-14291460D02*
X14253515Y-14281936D01*
X14253515Y-14281936D02*
X14253515Y-14300984D01*
X14386848Y-14100984D02*
X14405896Y-14100984D01*
X14405896Y-14100984D02*
X14424944Y-14110508D01*
X14424944Y-14110508D02*
X14434467Y-14120031D01*
X14434467Y-14120031D02*
X14443991Y-14139079D01*
X14443991Y-14139079D02*
X14453515Y-14177174D01*
X14453515Y-14177174D02*
X14453515Y-14224793D01*
X14453515Y-14224793D02*
X14443991Y-14262888D01*
X14443991Y-14262888D02*
X14434467Y-14281936D01*
X14434467Y-14281936D02*
X14424944Y-14291460D01*
X14424944Y-14291460D02*
X14405896Y-14300984D01*
X14405896Y-14300984D02*
X14386848Y-14300984D01*
X14386848Y-14300984D02*
X14367801Y-14291460D01*
X14367801Y-14291460D02*
X14358277Y-14281936D01*
X14358277Y-14281936D02*
X14348753Y-14262888D01*
X14348753Y-14262888D02*
X14339229Y-14224793D01*
X14339229Y-14224793D02*
X14339229Y-14177174D01*
X14339229Y-14177174D02*
X14348753Y-14139079D01*
X14348753Y-14139079D02*
X14358277Y-14120031D01*
X14358277Y-14120031D02*
X14367801Y-14110508D01*
X14367801Y-14110508D02*
X14386848Y-14100984D01*
X14520182Y-14100984D02*
X14643991Y-14100984D01*
X14643991Y-14100984D02*
X14577325Y-14177174D01*
X14577325Y-14177174D02*
X14605896Y-14177174D01*
X14605896Y-14177174D02*
X14624944Y-14186698D01*
X14624944Y-14186698D02*
X14634467Y-14196222D01*
X14634467Y-14196222D02*
X14643991Y-14215269D01*
X14643991Y-14215269D02*
X14643991Y-14262888D01*
X14643991Y-14262888D02*
X14634467Y-14281936D01*
X14634467Y-14281936D02*
X14624944Y-14291460D01*
X14624944Y-14291460D02*
X14605896Y-14300984D01*
X14605896Y-14300984D02*
X14548753Y-14300984D01*
X14548753Y-14300984D02*
X14529706Y-14291460D01*
X14529706Y-14291460D02*
X14520182Y-14281936D01*
X14739229Y-14300984D02*
X14777325Y-14300984D01*
X14777325Y-14300984D02*
X14796372Y-14291460D01*
X14796372Y-14291460D02*
X14805896Y-14281936D01*
X14805896Y-14281936D02*
X14824944Y-14253365D01*
X14824944Y-14253365D02*
X14834467Y-14215269D01*
X14834467Y-14215269D02*
X14834467Y-14139079D01*
X14834467Y-14139079D02*
X14824944Y-14120031D01*
X14824944Y-14120031D02*
X14815420Y-14110508D01*
X14815420Y-14110508D02*
X14796372Y-14100984D01*
X14796372Y-14100984D02*
X14758277Y-14100984D01*
X14758277Y-14100984D02*
X14739229Y-14110508D01*
X14739229Y-14110508D02*
X14729706Y-14120031D01*
X14729706Y-14120031D02*
X14720182Y-14139079D01*
X14720182Y-14139079D02*
X14720182Y-14186698D01*
X14720182Y-14186698D02*
X14729706Y-14205746D01*
X14729706Y-14205746D02*
X14739229Y-14215269D01*
X14739229Y-14215269D02*
X14758277Y-14224793D01*
X14758277Y-14224793D02*
X14796372Y-14224793D01*
X14796372Y-14224793D02*
X14815420Y-14215269D01*
X14815420Y-14215269D02*
X14824944Y-14205746D01*
X14824944Y-14205746D02*
X14834467Y-14186698D01*
X15005896Y-14167650D02*
X15005896Y-14300984D01*
X14958277Y-14091460D02*
X14910658Y-14234317D01*
X14910658Y-14234317D02*
X15034467Y-14234317D01*
X15101134Y-14100984D02*
X15101134Y-14139079D01*
X15177325Y-14100984D02*
X15177325Y-14139079D01*
X15472563Y-14377174D02*
X15463039Y-14367650D01*
X15463039Y-14367650D02*
X15443991Y-14339079D01*
X15443991Y-14339079D02*
X15434468Y-14320031D01*
X15434468Y-14320031D02*
X15424944Y-14291460D01*
X15424944Y-14291460D02*
X15415420Y-14243841D01*
X15415420Y-14243841D02*
X15415420Y-14205746D01*
X15415420Y-14205746D02*
X15424944Y-14158127D01*
X15424944Y-14158127D02*
X15434468Y-14129555D01*
X15434468Y-14129555D02*
X15443991Y-14110508D01*
X15443991Y-14110508D02*
X15463039Y-14081936D01*
X15463039Y-14081936D02*
X15472563Y-14072412D01*
X15643991Y-14100984D02*
X15548753Y-14100984D01*
X15548753Y-14100984D02*
X15539229Y-14196222D01*
X15539229Y-14196222D02*
X15548753Y-14186698D01*
X15548753Y-14186698D02*
X15567801Y-14177174D01*
X15567801Y-14177174D02*
X15615420Y-14177174D01*
X15615420Y-14177174D02*
X15634468Y-14186698D01*
X15634468Y-14186698D02*
X15643991Y-14196222D01*
X15643991Y-14196222D02*
X15653515Y-14215269D01*
X15653515Y-14215269D02*
X15653515Y-14262888D01*
X15653515Y-14262888D02*
X15643991Y-14281936D01*
X15643991Y-14281936D02*
X15634468Y-14291460D01*
X15634468Y-14291460D02*
X15615420Y-14300984D01*
X15615420Y-14300984D02*
X15567801Y-14300984D01*
X15567801Y-14300984D02*
X15548753Y-14291460D01*
X15548753Y-14291460D02*
X15539229Y-14281936D01*
X15777325Y-14100984D02*
X15796372Y-14100984D01*
X15796372Y-14100984D02*
X15815420Y-14110508D01*
X15815420Y-14110508D02*
X15824944Y-14120031D01*
X15824944Y-14120031D02*
X15834468Y-14139079D01*
X15834468Y-14139079D02*
X15843991Y-14177174D01*
X15843991Y-14177174D02*
X15843991Y-14224793D01*
X15843991Y-14224793D02*
X15834468Y-14262888D01*
X15834468Y-14262888D02*
X15824944Y-14281936D01*
X15824944Y-14281936D02*
X15815420Y-14291460D01*
X15815420Y-14291460D02*
X15796372Y-14300984D01*
X15796372Y-14300984D02*
X15777325Y-14300984D01*
X15777325Y-14300984D02*
X15758277Y-14291460D01*
X15758277Y-14291460D02*
X15748753Y-14281936D01*
X15748753Y-14281936D02*
X15739229Y-14262888D01*
X15739229Y-14262888D02*
X15729706Y-14224793D01*
X15729706Y-14224793D02*
X15729706Y-14177174D01*
X15729706Y-14177174D02*
X15739229Y-14139079D01*
X15739229Y-14139079D02*
X15748753Y-14120031D01*
X15748753Y-14120031D02*
X15758277Y-14110508D01*
X15758277Y-14110508D02*
X15777325Y-14100984D01*
X16082087Y-14300984D02*
X16082087Y-14100984D01*
X16167801Y-14300984D02*
X16167801Y-14196222D01*
X16167801Y-14196222D02*
X16158277Y-14177174D01*
X16158277Y-14177174D02*
X16139230Y-14167650D01*
X16139230Y-14167650D02*
X16110658Y-14167650D01*
X16110658Y-14167650D02*
X16091610Y-14177174D01*
X16091610Y-14177174D02*
X16082087Y-14186698D01*
X16291610Y-14300984D02*
X16272563Y-14291460D01*
X16272563Y-14291460D02*
X16263039Y-14281936D01*
X16263039Y-14281936D02*
X16253515Y-14262888D01*
X16253515Y-14262888D02*
X16253515Y-14205746D01*
X16253515Y-14205746D02*
X16263039Y-14186698D01*
X16263039Y-14186698D02*
X16272563Y-14177174D01*
X16272563Y-14177174D02*
X16291610Y-14167650D01*
X16291610Y-14167650D02*
X16320182Y-14167650D01*
X16320182Y-14167650D02*
X16339230Y-14177174D01*
X16339230Y-14177174D02*
X16348753Y-14186698D01*
X16348753Y-14186698D02*
X16358277Y-14205746D01*
X16358277Y-14205746D02*
X16358277Y-14262888D01*
X16358277Y-14262888D02*
X16348753Y-14281936D01*
X16348753Y-14281936D02*
X16339230Y-14291460D01*
X16339230Y-14291460D02*
X16320182Y-14300984D01*
X16320182Y-14300984D02*
X16291610Y-14300984D01*
X16472563Y-14300984D02*
X16453515Y-14291460D01*
X16453515Y-14291460D02*
X16443991Y-14272412D01*
X16443991Y-14272412D02*
X16443991Y-14100984D01*
X16624944Y-14291460D02*
X16605896Y-14300984D01*
X16605896Y-14300984D02*
X16567801Y-14300984D01*
X16567801Y-14300984D02*
X16548753Y-14291460D01*
X16548753Y-14291460D02*
X16539230Y-14272412D01*
X16539230Y-14272412D02*
X16539230Y-14196222D01*
X16539230Y-14196222D02*
X16548753Y-14177174D01*
X16548753Y-14177174D02*
X16567801Y-14167650D01*
X16567801Y-14167650D02*
X16605896Y-14167650D01*
X16605896Y-14167650D02*
X16624944Y-14177174D01*
X16624944Y-14177174D02*
X16634468Y-14196222D01*
X16634468Y-14196222D02*
X16634468Y-14215269D01*
X16634468Y-14215269D02*
X16539230Y-14234317D01*
X16710658Y-14291460D02*
X16729706Y-14300984D01*
X16729706Y-14300984D02*
X16767801Y-14300984D01*
X16767801Y-14300984D02*
X16786849Y-14291460D01*
X16786849Y-14291460D02*
X16796373Y-14272412D01*
X16796373Y-14272412D02*
X16796373Y-14262888D01*
X16796373Y-14262888D02*
X16786849Y-14243841D01*
X16786849Y-14243841D02*
X16767801Y-14234317D01*
X16767801Y-14234317D02*
X16739230Y-14234317D01*
X16739230Y-14234317D02*
X16720182Y-14224793D01*
X16720182Y-14224793D02*
X16710658Y-14205746D01*
X16710658Y-14205746D02*
X16710658Y-14196222D01*
X16710658Y-14196222D02*
X16720182Y-14177174D01*
X16720182Y-14177174D02*
X16739230Y-14167650D01*
X16739230Y-14167650D02*
X16767801Y-14167650D01*
X16767801Y-14167650D02*
X16786849Y-14177174D01*
X17034468Y-14224793D02*
X17186849Y-14224793D01*
X17110658Y-14300984D02*
X17110658Y-14148603D01*
X17415420Y-14100984D02*
X17539230Y-14100984D01*
X17539230Y-14100984D02*
X17472563Y-14177174D01*
X17472563Y-14177174D02*
X17501135Y-14177174D01*
X17501135Y-14177174D02*
X17520182Y-14186698D01*
X17520182Y-14186698D02*
X17529706Y-14196222D01*
X17529706Y-14196222D02*
X17539230Y-14215269D01*
X17539230Y-14215269D02*
X17539230Y-14262888D01*
X17539230Y-14262888D02*
X17529706Y-14281936D01*
X17529706Y-14281936D02*
X17520182Y-14291460D01*
X17520182Y-14291460D02*
X17501135Y-14300984D01*
X17501135Y-14300984D02*
X17443992Y-14300984D01*
X17443992Y-14300984D02*
X17424944Y-14291460D01*
X17424944Y-14291460D02*
X17415420Y-14281936D01*
X17767801Y-14291460D02*
X17786849Y-14300984D01*
X17786849Y-14300984D02*
X17824944Y-14300984D01*
X17824944Y-14300984D02*
X17843992Y-14291460D01*
X17843992Y-14291460D02*
X17853516Y-14272412D01*
X17853516Y-14272412D02*
X17853516Y-14262888D01*
X17853516Y-14262888D02*
X17843992Y-14243841D01*
X17843992Y-14243841D02*
X17824944Y-14234317D01*
X17824944Y-14234317D02*
X17796373Y-14234317D01*
X17796373Y-14234317D02*
X17777325Y-14224793D01*
X17777325Y-14224793D02*
X17767801Y-14205746D01*
X17767801Y-14205746D02*
X17767801Y-14196222D01*
X17767801Y-14196222D02*
X17777325Y-14177174D01*
X17777325Y-14177174D02*
X17796373Y-14167650D01*
X17796373Y-14167650D02*
X17824944Y-14167650D01*
X17824944Y-14167650D02*
X17843992Y-14177174D01*
X17967801Y-14300984D02*
X17948754Y-14291460D01*
X17948754Y-14291460D02*
X17939230Y-14272412D01*
X17939230Y-14272412D02*
X17939230Y-14100984D01*
X18072563Y-14300984D02*
X18053516Y-14291460D01*
X18053516Y-14291460D02*
X18043992Y-14281936D01*
X18043992Y-14281936D02*
X18034468Y-14262888D01*
X18034468Y-14262888D02*
X18034468Y-14205746D01*
X18034468Y-14205746D02*
X18043992Y-14186698D01*
X18043992Y-14186698D02*
X18053516Y-14177174D01*
X18053516Y-14177174D02*
X18072563Y-14167650D01*
X18072563Y-14167650D02*
X18101135Y-14167650D01*
X18101135Y-14167650D02*
X18120182Y-14177174D01*
X18120182Y-14177174D02*
X18129706Y-14186698D01*
X18129706Y-14186698D02*
X18139230Y-14205746D01*
X18139230Y-14205746D02*
X18139230Y-14262888D01*
X18139230Y-14262888D02*
X18129706Y-14281936D01*
X18129706Y-14281936D02*
X18120182Y-14291460D01*
X18120182Y-14291460D02*
X18101135Y-14300984D01*
X18101135Y-14300984D02*
X18072563Y-14300984D01*
X18196373Y-14167650D02*
X18272563Y-14167650D01*
X18224944Y-14100984D02*
X18224944Y-14272412D01*
X18224944Y-14272412D02*
X18234468Y-14291460D01*
X18234468Y-14291460D02*
X18253516Y-14300984D01*
X18253516Y-14300984D02*
X18272563Y-14300984D01*
X18329706Y-14291460D02*
X18348754Y-14300984D01*
X18348754Y-14300984D02*
X18386849Y-14300984D01*
X18386849Y-14300984D02*
X18405897Y-14291460D01*
X18405897Y-14291460D02*
X18415420Y-14272412D01*
X18415420Y-14272412D02*
X18415420Y-14262888D01*
X18415420Y-14262888D02*
X18405897Y-14243841D01*
X18405897Y-14243841D02*
X18386849Y-14234317D01*
X18386849Y-14234317D02*
X18358277Y-14234317D01*
X18358277Y-14234317D02*
X18339230Y-14224793D01*
X18339230Y-14224793D02*
X18329706Y-14205746D01*
X18329706Y-14205746D02*
X18329706Y-14196222D01*
X18329706Y-14196222D02*
X18339230Y-14177174D01*
X18339230Y-14177174D02*
X18358277Y-14167650D01*
X18358277Y-14167650D02*
X18386849Y-14167650D01*
X18386849Y-14167650D02*
X18405897Y-14177174D01*
X18482087Y-14377174D02*
X18491611Y-14367650D01*
X18491611Y-14367650D02*
X18510658Y-14339079D01*
X18510658Y-14339079D02*
X18520182Y-14320031D01*
X18520182Y-14320031D02*
X18529706Y-14291460D01*
X18529706Y-14291460D02*
X18539230Y-14243841D01*
X18539230Y-14243841D02*
X18539230Y-14205746D01*
X18539230Y-14205746D02*
X18529706Y-14158127D01*
X18529706Y-14158127D02*
X18520182Y-14129555D01*
X18520182Y-14129555D02*
X18510658Y-14110508D01*
X18510658Y-14110508D02*
X18491611Y-14081936D01*
X18491611Y-14081936D02*
X18482087Y-14072412D01*
D13*
X11842500Y-14528500D02*
X11897500Y-14473500D01*
X11842500Y-14418500D01*
X11787500Y-14473500D01*
X11842500Y-14528500D01*
D11*
X12263039Y-14564984D02*
X12148753Y-14564984D01*
X12205896Y-14564984D02*
X12205896Y-14364984D01*
X12205896Y-14364984D02*
X12186848Y-14393555D01*
X12186848Y-14393555D02*
X12167801Y-14412603D01*
X12167801Y-14412603D02*
X12148753Y-14422127D01*
X12348753Y-14545936D02*
X12358277Y-14555460D01*
X12358277Y-14555460D02*
X12348753Y-14564984D01*
X12348753Y-14564984D02*
X12339229Y-14555460D01*
X12339229Y-14555460D02*
X12348753Y-14545936D01*
X12348753Y-14545936D02*
X12348753Y-14564984D01*
X12548753Y-14564984D02*
X12434467Y-14564984D01*
X12491610Y-14564984D02*
X12491610Y-14364984D01*
X12491610Y-14364984D02*
X12472562Y-14393555D01*
X12472562Y-14393555D02*
X12453515Y-14412603D01*
X12453515Y-14412603D02*
X12434467Y-14422127D01*
X12672562Y-14364984D02*
X12691610Y-14364984D01*
X12691610Y-14364984D02*
X12710658Y-14374508D01*
X12710658Y-14374508D02*
X12720182Y-14384031D01*
X12720182Y-14384031D02*
X12729705Y-14403079D01*
X12729705Y-14403079D02*
X12739229Y-14441174D01*
X12739229Y-14441174D02*
X12739229Y-14488793D01*
X12739229Y-14488793D02*
X12729705Y-14526888D01*
X12729705Y-14526888D02*
X12720182Y-14545936D01*
X12720182Y-14545936D02*
X12710658Y-14555460D01*
X12710658Y-14555460D02*
X12691610Y-14564984D01*
X12691610Y-14564984D02*
X12672562Y-14564984D01*
X12672562Y-14564984D02*
X12653515Y-14555460D01*
X12653515Y-14555460D02*
X12643991Y-14545936D01*
X12643991Y-14545936D02*
X12634467Y-14526888D01*
X12634467Y-14526888D02*
X12624943Y-14488793D01*
X12624943Y-14488793D02*
X12624943Y-14441174D01*
X12624943Y-14441174D02*
X12634467Y-14403079D01*
X12634467Y-14403079D02*
X12643991Y-14384031D01*
X12643991Y-14384031D02*
X12653515Y-14374508D01*
X12653515Y-14374508D02*
X12672562Y-14364984D01*
X12863039Y-14364984D02*
X12882086Y-14364984D01*
X12882086Y-14364984D02*
X12901134Y-14374508D01*
X12901134Y-14374508D02*
X12910658Y-14384031D01*
X12910658Y-14384031D02*
X12920182Y-14403079D01*
X12920182Y-14403079D02*
X12929705Y-14441174D01*
X12929705Y-14441174D02*
X12929705Y-14488793D01*
X12929705Y-14488793D02*
X12920182Y-14526888D01*
X12920182Y-14526888D02*
X12910658Y-14545936D01*
X12910658Y-14545936D02*
X12901134Y-14555460D01*
X12901134Y-14555460D02*
X12882086Y-14564984D01*
X12882086Y-14564984D02*
X12863039Y-14564984D01*
X12863039Y-14564984D02*
X12843991Y-14555460D01*
X12843991Y-14555460D02*
X12834467Y-14545936D01*
X12834467Y-14545936D02*
X12824943Y-14526888D01*
X12824943Y-14526888D02*
X12815420Y-14488793D01*
X12815420Y-14488793D02*
X12815420Y-14441174D01*
X12815420Y-14441174D02*
X12824943Y-14403079D01*
X12824943Y-14403079D02*
X12834467Y-14384031D01*
X12834467Y-14384031D02*
X12843991Y-14374508D01*
X12843991Y-14374508D02*
X12863039Y-14364984D01*
X13015420Y-14564984D02*
X13015420Y-14431650D01*
X13015420Y-14450698D02*
X13024943Y-14441174D01*
X13024943Y-14441174D02*
X13043991Y-14431650D01*
X13043991Y-14431650D02*
X13072563Y-14431650D01*
X13072563Y-14431650D02*
X13091610Y-14441174D01*
X13091610Y-14441174D02*
X13101134Y-14460222D01*
X13101134Y-14460222D02*
X13101134Y-14564984D01*
X13101134Y-14460222D02*
X13110658Y-14441174D01*
X13110658Y-14441174D02*
X13129705Y-14431650D01*
X13129705Y-14431650D02*
X13158277Y-14431650D01*
X13158277Y-14431650D02*
X13177324Y-14441174D01*
X13177324Y-14441174D02*
X13186848Y-14460222D01*
X13186848Y-14460222D02*
X13186848Y-14564984D01*
X13282086Y-14564984D02*
X13282086Y-14431650D01*
X13282086Y-14450698D02*
X13291610Y-14441174D01*
X13291610Y-14441174D02*
X13310658Y-14431650D01*
X13310658Y-14431650D02*
X13339229Y-14431650D01*
X13339229Y-14431650D02*
X13358277Y-14441174D01*
X13358277Y-14441174D02*
X13367801Y-14460222D01*
X13367801Y-14460222D02*
X13367801Y-14564984D01*
X13367801Y-14460222D02*
X13377324Y-14441174D01*
X13377324Y-14441174D02*
X13396372Y-14431650D01*
X13396372Y-14431650D02*
X13424943Y-14431650D01*
X13424943Y-14431650D02*
X13443991Y-14441174D01*
X13443991Y-14441174D02*
X13453515Y-14460222D01*
X13453515Y-14460222D02*
X13453515Y-14564984D01*
X13843991Y-14355460D02*
X13672563Y-14612603D01*
X14101134Y-14364984D02*
X14120182Y-14364984D01*
X14120182Y-14364984D02*
X14139229Y-14374508D01*
X14139229Y-14374508D02*
X14148753Y-14384031D01*
X14148753Y-14384031D02*
X14158277Y-14403079D01*
X14158277Y-14403079D02*
X14167801Y-14441174D01*
X14167801Y-14441174D02*
X14167801Y-14488793D01*
X14167801Y-14488793D02*
X14158277Y-14526888D01*
X14158277Y-14526888D02*
X14148753Y-14545936D01*
X14148753Y-14545936D02*
X14139229Y-14555460D01*
X14139229Y-14555460D02*
X14120182Y-14564984D01*
X14120182Y-14564984D02*
X14101134Y-14564984D01*
X14101134Y-14564984D02*
X14082086Y-14555460D01*
X14082086Y-14555460D02*
X14072563Y-14545936D01*
X14072563Y-14545936D02*
X14063039Y-14526888D01*
X14063039Y-14526888D02*
X14053515Y-14488793D01*
X14053515Y-14488793D02*
X14053515Y-14441174D01*
X14053515Y-14441174D02*
X14063039Y-14403079D01*
X14063039Y-14403079D02*
X14072563Y-14384031D01*
X14072563Y-14384031D02*
X14082086Y-14374508D01*
X14082086Y-14374508D02*
X14101134Y-14364984D01*
X14253515Y-14545936D02*
X14263039Y-14555460D01*
X14263039Y-14555460D02*
X14253515Y-14564984D01*
X14253515Y-14564984D02*
X14243991Y-14555460D01*
X14243991Y-14555460D02*
X14253515Y-14545936D01*
X14253515Y-14545936D02*
X14253515Y-14564984D01*
X14386848Y-14364984D02*
X14405896Y-14364984D01*
X14405896Y-14364984D02*
X14424944Y-14374508D01*
X14424944Y-14374508D02*
X14434467Y-14384031D01*
X14434467Y-14384031D02*
X14443991Y-14403079D01*
X14443991Y-14403079D02*
X14453515Y-14441174D01*
X14453515Y-14441174D02*
X14453515Y-14488793D01*
X14453515Y-14488793D02*
X14443991Y-14526888D01*
X14443991Y-14526888D02*
X14434467Y-14545936D01*
X14434467Y-14545936D02*
X14424944Y-14555460D01*
X14424944Y-14555460D02*
X14405896Y-14564984D01*
X14405896Y-14564984D02*
X14386848Y-14564984D01*
X14386848Y-14564984D02*
X14367801Y-14555460D01*
X14367801Y-14555460D02*
X14358277Y-14545936D01*
X14358277Y-14545936D02*
X14348753Y-14526888D01*
X14348753Y-14526888D02*
X14339229Y-14488793D01*
X14339229Y-14488793D02*
X14339229Y-14441174D01*
X14339229Y-14441174D02*
X14348753Y-14403079D01*
X14348753Y-14403079D02*
X14358277Y-14384031D01*
X14358277Y-14384031D02*
X14367801Y-14374508D01*
X14367801Y-14374508D02*
X14386848Y-14364984D01*
X14624944Y-14431650D02*
X14624944Y-14564984D01*
X14577325Y-14355460D02*
X14529706Y-14498317D01*
X14529706Y-14498317D02*
X14653515Y-14498317D01*
X14710658Y-14364984D02*
X14834467Y-14364984D01*
X14834467Y-14364984D02*
X14767801Y-14441174D01*
X14767801Y-14441174D02*
X14796372Y-14441174D01*
X14796372Y-14441174D02*
X14815420Y-14450698D01*
X14815420Y-14450698D02*
X14824944Y-14460222D01*
X14824944Y-14460222D02*
X14834467Y-14479269D01*
X14834467Y-14479269D02*
X14834467Y-14526888D01*
X14834467Y-14526888D02*
X14824944Y-14545936D01*
X14824944Y-14545936D02*
X14815420Y-14555460D01*
X14815420Y-14555460D02*
X14796372Y-14564984D01*
X14796372Y-14564984D02*
X14739229Y-14564984D01*
X14739229Y-14564984D02*
X14720182Y-14555460D01*
X14720182Y-14555460D02*
X14710658Y-14545936D01*
X14901134Y-14364984D02*
X15024944Y-14364984D01*
X15024944Y-14364984D02*
X14958277Y-14441174D01*
X14958277Y-14441174D02*
X14986848Y-14441174D01*
X14986848Y-14441174D02*
X15005896Y-14450698D01*
X15005896Y-14450698D02*
X15015420Y-14460222D01*
X15015420Y-14460222D02*
X15024944Y-14479269D01*
X15024944Y-14479269D02*
X15024944Y-14526888D01*
X15024944Y-14526888D02*
X15015420Y-14545936D01*
X15015420Y-14545936D02*
X15005896Y-14555460D01*
X15005896Y-14555460D02*
X14986848Y-14564984D01*
X14986848Y-14564984D02*
X14929706Y-14564984D01*
X14929706Y-14564984D02*
X14910658Y-14555460D01*
X14910658Y-14555460D02*
X14901134Y-14545936D01*
X15101134Y-14364984D02*
X15101134Y-14403079D01*
X15177325Y-14364984D02*
X15177325Y-14403079D01*
X15472563Y-14641174D02*
X15463039Y-14631650D01*
X15463039Y-14631650D02*
X15443991Y-14603079D01*
X15443991Y-14603079D02*
X15434468Y-14584031D01*
X15434468Y-14584031D02*
X15424944Y-14555460D01*
X15424944Y-14555460D02*
X15415420Y-14507841D01*
X15415420Y-14507841D02*
X15415420Y-14469746D01*
X15415420Y-14469746D02*
X15424944Y-14422127D01*
X15424944Y-14422127D02*
X15434468Y-14393555D01*
X15434468Y-14393555D02*
X15443991Y-14374508D01*
X15443991Y-14374508D02*
X15463039Y-14345936D01*
X15463039Y-14345936D02*
X15472563Y-14336412D01*
X15634468Y-14364984D02*
X15596372Y-14364984D01*
X15596372Y-14364984D02*
X15577325Y-14374508D01*
X15577325Y-14374508D02*
X15567801Y-14384031D01*
X15567801Y-14384031D02*
X15548753Y-14412603D01*
X15548753Y-14412603D02*
X15539229Y-14450698D01*
X15539229Y-14450698D02*
X15539229Y-14526888D01*
X15539229Y-14526888D02*
X15548753Y-14545936D01*
X15548753Y-14545936D02*
X15558277Y-14555460D01*
X15558277Y-14555460D02*
X15577325Y-14564984D01*
X15577325Y-14564984D02*
X15615420Y-14564984D01*
X15615420Y-14564984D02*
X15634468Y-14555460D01*
X15634468Y-14555460D02*
X15643991Y-14545936D01*
X15643991Y-14545936D02*
X15653515Y-14526888D01*
X15653515Y-14526888D02*
X15653515Y-14479269D01*
X15653515Y-14479269D02*
X15643991Y-14460222D01*
X15643991Y-14460222D02*
X15634468Y-14450698D01*
X15634468Y-14450698D02*
X15615420Y-14441174D01*
X15615420Y-14441174D02*
X15577325Y-14441174D01*
X15577325Y-14441174D02*
X15558277Y-14450698D01*
X15558277Y-14450698D02*
X15548753Y-14460222D01*
X15548753Y-14460222D02*
X15539229Y-14479269D01*
X15891610Y-14564984D02*
X15891610Y-14364984D01*
X15977325Y-14564984D02*
X15977325Y-14460222D01*
X15977325Y-14460222D02*
X15967801Y-14441174D01*
X15967801Y-14441174D02*
X15948753Y-14431650D01*
X15948753Y-14431650D02*
X15920182Y-14431650D01*
X15920182Y-14431650D02*
X15901134Y-14441174D01*
X15901134Y-14441174D02*
X15891610Y-14450698D01*
X16101134Y-14564984D02*
X16082087Y-14555460D01*
X16082087Y-14555460D02*
X16072563Y-14545936D01*
X16072563Y-14545936D02*
X16063039Y-14526888D01*
X16063039Y-14526888D02*
X16063039Y-14469746D01*
X16063039Y-14469746D02*
X16072563Y-14450698D01*
X16072563Y-14450698D02*
X16082087Y-14441174D01*
X16082087Y-14441174D02*
X16101134Y-14431650D01*
X16101134Y-14431650D02*
X16129706Y-14431650D01*
X16129706Y-14431650D02*
X16148753Y-14441174D01*
X16148753Y-14441174D02*
X16158277Y-14450698D01*
X16158277Y-14450698D02*
X16167801Y-14469746D01*
X16167801Y-14469746D02*
X16167801Y-14526888D01*
X16167801Y-14526888D02*
X16158277Y-14545936D01*
X16158277Y-14545936D02*
X16148753Y-14555460D01*
X16148753Y-14555460D02*
X16129706Y-14564984D01*
X16129706Y-14564984D02*
X16101134Y-14564984D01*
X16282087Y-14564984D02*
X16263039Y-14555460D01*
X16263039Y-14555460D02*
X16253515Y-14536412D01*
X16253515Y-14536412D02*
X16253515Y-14364984D01*
X16434468Y-14555460D02*
X16415420Y-14564984D01*
X16415420Y-14564984D02*
X16377325Y-14564984D01*
X16377325Y-14564984D02*
X16358277Y-14555460D01*
X16358277Y-14555460D02*
X16348753Y-14536412D01*
X16348753Y-14536412D02*
X16348753Y-14460222D01*
X16348753Y-14460222D02*
X16358277Y-14441174D01*
X16358277Y-14441174D02*
X16377325Y-14431650D01*
X16377325Y-14431650D02*
X16415420Y-14431650D01*
X16415420Y-14431650D02*
X16434468Y-14441174D01*
X16434468Y-14441174D02*
X16443991Y-14460222D01*
X16443991Y-14460222D02*
X16443991Y-14479269D01*
X16443991Y-14479269D02*
X16348753Y-14498317D01*
X16520182Y-14555460D02*
X16539230Y-14564984D01*
X16539230Y-14564984D02*
X16577325Y-14564984D01*
X16577325Y-14564984D02*
X16596372Y-14555460D01*
X16596372Y-14555460D02*
X16605896Y-14536412D01*
X16605896Y-14536412D02*
X16605896Y-14526888D01*
X16605896Y-14526888D02*
X16596372Y-14507841D01*
X16596372Y-14507841D02*
X16577325Y-14498317D01*
X16577325Y-14498317D02*
X16548753Y-14498317D01*
X16548753Y-14498317D02*
X16529706Y-14488793D01*
X16529706Y-14488793D02*
X16520182Y-14469746D01*
X16520182Y-14469746D02*
X16520182Y-14460222D01*
X16520182Y-14460222D02*
X16529706Y-14441174D01*
X16529706Y-14441174D02*
X16548753Y-14431650D01*
X16548753Y-14431650D02*
X16577325Y-14431650D01*
X16577325Y-14431650D02*
X16596372Y-14441174D01*
X16672563Y-14641174D02*
X16682087Y-14631650D01*
X16682087Y-14631650D02*
X16701134Y-14603079D01*
X16701134Y-14603079D02*
X16710658Y-14584031D01*
X16710658Y-14584031D02*
X16720182Y-14555460D01*
X16720182Y-14555460D02*
X16729706Y-14507841D01*
X16729706Y-14507841D02*
X16729706Y-14469746D01*
X16729706Y-14469746D02*
X16720182Y-14422127D01*
X16720182Y-14422127D02*
X16710658Y-14393555D01*
X16710658Y-14393555D02*
X16701134Y-14374508D01*
X16701134Y-14374508D02*
X16682087Y-14345936D01*
X16682087Y-14345936D02*
X16672563Y-14336412D01*
D14*
X11777500Y-14677500D02*
X11897500Y-14797500D01*
X11897500Y-14677500D02*
X11777500Y-14797500D01*
X11897500Y-14737500D02*
G75*
G02*
X11777500Y-14737500I-60000J0D01*
G01*
X11777500Y-14737500D02*
G75*
G02*
X11897500Y-14737500I60000J0D01*
G01*
D11*
X12263039Y-14828984D02*
X12148753Y-14828984D01*
X12205896Y-14828984D02*
X12205896Y-14628984D01*
X12205896Y-14628984D02*
X12186848Y-14657555D01*
X12186848Y-14657555D02*
X12167801Y-14676603D01*
X12167801Y-14676603D02*
X12148753Y-14686127D01*
X12348753Y-14809936D02*
X12358277Y-14819460D01*
X12358277Y-14819460D02*
X12348753Y-14828984D01*
X12348753Y-14828984D02*
X12339229Y-14819460D01*
X12339229Y-14819460D02*
X12348753Y-14809936D01*
X12348753Y-14809936D02*
X12348753Y-14828984D01*
X12434467Y-14648031D02*
X12443991Y-14638508D01*
X12443991Y-14638508D02*
X12463039Y-14628984D01*
X12463039Y-14628984D02*
X12510658Y-14628984D01*
X12510658Y-14628984D02*
X12529705Y-14638508D01*
X12529705Y-14638508D02*
X12539229Y-14648031D01*
X12539229Y-14648031D02*
X12548753Y-14667079D01*
X12548753Y-14667079D02*
X12548753Y-14686127D01*
X12548753Y-14686127D02*
X12539229Y-14714698D01*
X12539229Y-14714698D02*
X12424943Y-14828984D01*
X12424943Y-14828984D02*
X12548753Y-14828984D01*
X12672562Y-14628984D02*
X12691610Y-14628984D01*
X12691610Y-14628984D02*
X12710658Y-14638508D01*
X12710658Y-14638508D02*
X12720182Y-14648031D01*
X12720182Y-14648031D02*
X12729705Y-14667079D01*
X12729705Y-14667079D02*
X12739229Y-14705174D01*
X12739229Y-14705174D02*
X12739229Y-14752793D01*
X12739229Y-14752793D02*
X12729705Y-14790888D01*
X12729705Y-14790888D02*
X12720182Y-14809936D01*
X12720182Y-14809936D02*
X12710658Y-14819460D01*
X12710658Y-14819460D02*
X12691610Y-14828984D01*
X12691610Y-14828984D02*
X12672562Y-14828984D01*
X12672562Y-14828984D02*
X12653515Y-14819460D01*
X12653515Y-14819460D02*
X12643991Y-14809936D01*
X12643991Y-14809936D02*
X12634467Y-14790888D01*
X12634467Y-14790888D02*
X12624943Y-14752793D01*
X12624943Y-14752793D02*
X12624943Y-14705174D01*
X12624943Y-14705174D02*
X12634467Y-14667079D01*
X12634467Y-14667079D02*
X12643991Y-14648031D01*
X12643991Y-14648031D02*
X12653515Y-14638508D01*
X12653515Y-14638508D02*
X12672562Y-14628984D01*
X12863039Y-14628984D02*
X12882086Y-14628984D01*
X12882086Y-14628984D02*
X12901134Y-14638508D01*
X12901134Y-14638508D02*
X12910658Y-14648031D01*
X12910658Y-14648031D02*
X12920182Y-14667079D01*
X12920182Y-14667079D02*
X12929705Y-14705174D01*
X12929705Y-14705174D02*
X12929705Y-14752793D01*
X12929705Y-14752793D02*
X12920182Y-14790888D01*
X12920182Y-14790888D02*
X12910658Y-14809936D01*
X12910658Y-14809936D02*
X12901134Y-14819460D01*
X12901134Y-14819460D02*
X12882086Y-14828984D01*
X12882086Y-14828984D02*
X12863039Y-14828984D01*
X12863039Y-14828984D02*
X12843991Y-14819460D01*
X12843991Y-14819460D02*
X12834467Y-14809936D01*
X12834467Y-14809936D02*
X12824943Y-14790888D01*
X12824943Y-14790888D02*
X12815420Y-14752793D01*
X12815420Y-14752793D02*
X12815420Y-14705174D01*
X12815420Y-14705174D02*
X12824943Y-14667079D01*
X12824943Y-14667079D02*
X12834467Y-14648031D01*
X12834467Y-14648031D02*
X12843991Y-14638508D01*
X12843991Y-14638508D02*
X12863039Y-14628984D01*
X13015420Y-14828984D02*
X13015420Y-14695650D01*
X13015420Y-14714698D02*
X13024943Y-14705174D01*
X13024943Y-14705174D02*
X13043991Y-14695650D01*
X13043991Y-14695650D02*
X13072563Y-14695650D01*
X13072563Y-14695650D02*
X13091610Y-14705174D01*
X13091610Y-14705174D02*
X13101134Y-14724222D01*
X13101134Y-14724222D02*
X13101134Y-14828984D01*
X13101134Y-14724222D02*
X13110658Y-14705174D01*
X13110658Y-14705174D02*
X13129705Y-14695650D01*
X13129705Y-14695650D02*
X13158277Y-14695650D01*
X13158277Y-14695650D02*
X13177324Y-14705174D01*
X13177324Y-14705174D02*
X13186848Y-14724222D01*
X13186848Y-14724222D02*
X13186848Y-14828984D01*
X13282086Y-14828984D02*
X13282086Y-14695650D01*
X13282086Y-14714698D02*
X13291610Y-14705174D01*
X13291610Y-14705174D02*
X13310658Y-14695650D01*
X13310658Y-14695650D02*
X13339229Y-14695650D01*
X13339229Y-14695650D02*
X13358277Y-14705174D01*
X13358277Y-14705174D02*
X13367801Y-14724222D01*
X13367801Y-14724222D02*
X13367801Y-14828984D01*
X13367801Y-14724222D02*
X13377324Y-14705174D01*
X13377324Y-14705174D02*
X13396372Y-14695650D01*
X13396372Y-14695650D02*
X13424943Y-14695650D01*
X13424943Y-14695650D02*
X13443991Y-14705174D01*
X13443991Y-14705174D02*
X13453515Y-14724222D01*
X13453515Y-14724222D02*
X13453515Y-14828984D01*
X13843991Y-14619460D02*
X13672563Y-14876603D01*
X14101134Y-14628984D02*
X14120182Y-14628984D01*
X14120182Y-14628984D02*
X14139229Y-14638508D01*
X14139229Y-14638508D02*
X14148753Y-14648031D01*
X14148753Y-14648031D02*
X14158277Y-14667079D01*
X14158277Y-14667079D02*
X14167801Y-14705174D01*
X14167801Y-14705174D02*
X14167801Y-14752793D01*
X14167801Y-14752793D02*
X14158277Y-14790888D01*
X14158277Y-14790888D02*
X14148753Y-14809936D01*
X14148753Y-14809936D02*
X14139229Y-14819460D01*
X14139229Y-14819460D02*
X14120182Y-14828984D01*
X14120182Y-14828984D02*
X14101134Y-14828984D01*
X14101134Y-14828984D02*
X14082086Y-14819460D01*
X14082086Y-14819460D02*
X14072563Y-14809936D01*
X14072563Y-14809936D02*
X14063039Y-14790888D01*
X14063039Y-14790888D02*
X14053515Y-14752793D01*
X14053515Y-14752793D02*
X14053515Y-14705174D01*
X14053515Y-14705174D02*
X14063039Y-14667079D01*
X14063039Y-14667079D02*
X14072563Y-14648031D01*
X14072563Y-14648031D02*
X14082086Y-14638508D01*
X14082086Y-14638508D02*
X14101134Y-14628984D01*
X14253515Y-14809936D02*
X14263039Y-14819460D01*
X14263039Y-14819460D02*
X14253515Y-14828984D01*
X14253515Y-14828984D02*
X14243991Y-14819460D01*
X14243991Y-14819460D02*
X14253515Y-14809936D01*
X14253515Y-14809936D02*
X14253515Y-14828984D01*
X14386848Y-14628984D02*
X14405896Y-14628984D01*
X14405896Y-14628984D02*
X14424944Y-14638508D01*
X14424944Y-14638508D02*
X14434467Y-14648031D01*
X14434467Y-14648031D02*
X14443991Y-14667079D01*
X14443991Y-14667079D02*
X14453515Y-14705174D01*
X14453515Y-14705174D02*
X14453515Y-14752793D01*
X14453515Y-14752793D02*
X14443991Y-14790888D01*
X14443991Y-14790888D02*
X14434467Y-14809936D01*
X14434467Y-14809936D02*
X14424944Y-14819460D01*
X14424944Y-14819460D02*
X14405896Y-14828984D01*
X14405896Y-14828984D02*
X14386848Y-14828984D01*
X14386848Y-14828984D02*
X14367801Y-14819460D01*
X14367801Y-14819460D02*
X14358277Y-14809936D01*
X14358277Y-14809936D02*
X14348753Y-14790888D01*
X14348753Y-14790888D02*
X14339229Y-14752793D01*
X14339229Y-14752793D02*
X14339229Y-14705174D01*
X14339229Y-14705174D02*
X14348753Y-14667079D01*
X14348753Y-14667079D02*
X14358277Y-14648031D01*
X14358277Y-14648031D02*
X14367801Y-14638508D01*
X14367801Y-14638508D02*
X14386848Y-14628984D01*
X14624944Y-14695650D02*
X14624944Y-14828984D01*
X14577325Y-14619460D02*
X14529706Y-14762317D01*
X14529706Y-14762317D02*
X14653515Y-14762317D01*
X14710658Y-14628984D02*
X14843991Y-14628984D01*
X14843991Y-14628984D02*
X14758277Y-14828984D01*
X14910658Y-14648031D02*
X14920182Y-14638508D01*
X14920182Y-14638508D02*
X14939229Y-14628984D01*
X14939229Y-14628984D02*
X14986848Y-14628984D01*
X14986848Y-14628984D02*
X15005896Y-14638508D01*
X15005896Y-14638508D02*
X15015420Y-14648031D01*
X15015420Y-14648031D02*
X15024944Y-14667079D01*
X15024944Y-14667079D02*
X15024944Y-14686127D01*
X15024944Y-14686127D02*
X15015420Y-14714698D01*
X15015420Y-14714698D02*
X14901134Y-14828984D01*
X14901134Y-14828984D02*
X15024944Y-14828984D01*
X15101134Y-14628984D02*
X15101134Y-14667079D01*
X15177325Y-14628984D02*
X15177325Y-14667079D01*
X15472563Y-14905174D02*
X15463039Y-14895650D01*
X15463039Y-14895650D02*
X15443991Y-14867079D01*
X15443991Y-14867079D02*
X15434468Y-14848031D01*
X15434468Y-14848031D02*
X15424944Y-14819460D01*
X15424944Y-14819460D02*
X15415420Y-14771841D01*
X15415420Y-14771841D02*
X15415420Y-14733746D01*
X15415420Y-14733746D02*
X15424944Y-14686127D01*
X15424944Y-14686127D02*
X15434468Y-14657555D01*
X15434468Y-14657555D02*
X15443991Y-14638508D01*
X15443991Y-14638508D02*
X15463039Y-14609936D01*
X15463039Y-14609936D02*
X15472563Y-14600412D01*
X15577325Y-14714698D02*
X15558277Y-14705174D01*
X15558277Y-14705174D02*
X15548753Y-14695650D01*
X15548753Y-14695650D02*
X15539229Y-14676603D01*
X15539229Y-14676603D02*
X15539229Y-14667079D01*
X15539229Y-14667079D02*
X15548753Y-14648031D01*
X15548753Y-14648031D02*
X15558277Y-14638508D01*
X15558277Y-14638508D02*
X15577325Y-14628984D01*
X15577325Y-14628984D02*
X15615420Y-14628984D01*
X15615420Y-14628984D02*
X15634468Y-14638508D01*
X15634468Y-14638508D02*
X15643991Y-14648031D01*
X15643991Y-14648031D02*
X15653515Y-14667079D01*
X15653515Y-14667079D02*
X15653515Y-14676603D01*
X15653515Y-14676603D02*
X15643991Y-14695650D01*
X15643991Y-14695650D02*
X15634468Y-14705174D01*
X15634468Y-14705174D02*
X15615420Y-14714698D01*
X15615420Y-14714698D02*
X15577325Y-14714698D01*
X15577325Y-14714698D02*
X15558277Y-14724222D01*
X15558277Y-14724222D02*
X15548753Y-14733746D01*
X15548753Y-14733746D02*
X15539229Y-14752793D01*
X15539229Y-14752793D02*
X15539229Y-14790888D01*
X15539229Y-14790888D02*
X15548753Y-14809936D01*
X15548753Y-14809936D02*
X15558277Y-14819460D01*
X15558277Y-14819460D02*
X15577325Y-14828984D01*
X15577325Y-14828984D02*
X15615420Y-14828984D01*
X15615420Y-14828984D02*
X15634468Y-14819460D01*
X15634468Y-14819460D02*
X15643991Y-14809936D01*
X15643991Y-14809936D02*
X15653515Y-14790888D01*
X15653515Y-14790888D02*
X15653515Y-14752793D01*
X15653515Y-14752793D02*
X15643991Y-14733746D01*
X15643991Y-14733746D02*
X15634468Y-14724222D01*
X15634468Y-14724222D02*
X15615420Y-14714698D01*
X15891610Y-14828984D02*
X15891610Y-14628984D01*
X15977325Y-14828984D02*
X15977325Y-14724222D01*
X15977325Y-14724222D02*
X15967801Y-14705174D01*
X15967801Y-14705174D02*
X15948753Y-14695650D01*
X15948753Y-14695650D02*
X15920182Y-14695650D01*
X15920182Y-14695650D02*
X15901134Y-14705174D01*
X15901134Y-14705174D02*
X15891610Y-14714698D01*
X16101134Y-14828984D02*
X16082087Y-14819460D01*
X16082087Y-14819460D02*
X16072563Y-14809936D01*
X16072563Y-14809936D02*
X16063039Y-14790888D01*
X16063039Y-14790888D02*
X16063039Y-14733746D01*
X16063039Y-14733746D02*
X16072563Y-14714698D01*
X16072563Y-14714698D02*
X16082087Y-14705174D01*
X16082087Y-14705174D02*
X16101134Y-14695650D01*
X16101134Y-14695650D02*
X16129706Y-14695650D01*
X16129706Y-14695650D02*
X16148753Y-14705174D01*
X16148753Y-14705174D02*
X16158277Y-14714698D01*
X16158277Y-14714698D02*
X16167801Y-14733746D01*
X16167801Y-14733746D02*
X16167801Y-14790888D01*
X16167801Y-14790888D02*
X16158277Y-14809936D01*
X16158277Y-14809936D02*
X16148753Y-14819460D01*
X16148753Y-14819460D02*
X16129706Y-14828984D01*
X16129706Y-14828984D02*
X16101134Y-14828984D01*
X16282087Y-14828984D02*
X16263039Y-14819460D01*
X16263039Y-14819460D02*
X16253515Y-14800412D01*
X16253515Y-14800412D02*
X16253515Y-14628984D01*
X16434468Y-14819460D02*
X16415420Y-14828984D01*
X16415420Y-14828984D02*
X16377325Y-14828984D01*
X16377325Y-14828984D02*
X16358277Y-14819460D01*
X16358277Y-14819460D02*
X16348753Y-14800412D01*
X16348753Y-14800412D02*
X16348753Y-14724222D01*
X16348753Y-14724222D02*
X16358277Y-14705174D01*
X16358277Y-14705174D02*
X16377325Y-14695650D01*
X16377325Y-14695650D02*
X16415420Y-14695650D01*
X16415420Y-14695650D02*
X16434468Y-14705174D01*
X16434468Y-14705174D02*
X16443991Y-14724222D01*
X16443991Y-14724222D02*
X16443991Y-14743269D01*
X16443991Y-14743269D02*
X16348753Y-14762317D01*
X16520182Y-14819460D02*
X16539230Y-14828984D01*
X16539230Y-14828984D02*
X16577325Y-14828984D01*
X16577325Y-14828984D02*
X16596372Y-14819460D01*
X16596372Y-14819460D02*
X16605896Y-14800412D01*
X16605896Y-14800412D02*
X16605896Y-14790888D01*
X16605896Y-14790888D02*
X16596372Y-14771841D01*
X16596372Y-14771841D02*
X16577325Y-14762317D01*
X16577325Y-14762317D02*
X16548753Y-14762317D01*
X16548753Y-14762317D02*
X16529706Y-14752793D01*
X16529706Y-14752793D02*
X16520182Y-14733746D01*
X16520182Y-14733746D02*
X16520182Y-14724222D01*
X16520182Y-14724222D02*
X16529706Y-14705174D01*
X16529706Y-14705174D02*
X16548753Y-14695650D01*
X16548753Y-14695650D02*
X16577325Y-14695650D01*
X16577325Y-14695650D02*
X16596372Y-14705174D01*
X16672563Y-14905174D02*
X16682087Y-14895650D01*
X16682087Y-14895650D02*
X16701134Y-14867079D01*
X16701134Y-14867079D02*
X16710658Y-14848031D01*
X16710658Y-14848031D02*
X16720182Y-14819460D01*
X16720182Y-14819460D02*
X16729706Y-14771841D01*
X16729706Y-14771841D02*
X16729706Y-14733746D01*
X16729706Y-14733746D02*
X16720182Y-14686127D01*
X16720182Y-14686127D02*
X16710658Y-14657555D01*
X16710658Y-14657555D02*
X16701134Y-14638508D01*
X16701134Y-14638508D02*
X16682087Y-14609936D01*
X16682087Y-14609936D02*
X16672563Y-14600412D01*
D15*
X11767500Y-14936500D02*
X11897500Y-15066500D01*
X11897500Y-14936500D02*
X11767500Y-15066500D01*
X11832500Y-14936500D02*
X11832500Y-15066500D01*
X11767500Y-15001500D02*
X11897500Y-15001500D01*
D11*
X12263039Y-15092984D02*
X12148753Y-15092984D01*
X12205896Y-15092984D02*
X12205896Y-14892984D01*
X12205896Y-14892984D02*
X12186848Y-14921555D01*
X12186848Y-14921555D02*
X12167801Y-14940603D01*
X12167801Y-14940603D02*
X12148753Y-14950127D01*
X12348753Y-15073936D02*
X12358277Y-15083460D01*
X12358277Y-15083460D02*
X12348753Y-15092984D01*
X12348753Y-15092984D02*
X12339229Y-15083460D01*
X12339229Y-15083460D02*
X12348753Y-15073936D01*
X12348753Y-15073936D02*
X12348753Y-15092984D01*
X12424943Y-14892984D02*
X12548753Y-14892984D01*
X12548753Y-14892984D02*
X12482086Y-14969174D01*
X12482086Y-14969174D02*
X12510658Y-14969174D01*
X12510658Y-14969174D02*
X12529705Y-14978698D01*
X12529705Y-14978698D02*
X12539229Y-14988222D01*
X12539229Y-14988222D02*
X12548753Y-15007269D01*
X12548753Y-15007269D02*
X12548753Y-15054888D01*
X12548753Y-15054888D02*
X12539229Y-15073936D01*
X12539229Y-15073936D02*
X12529705Y-15083460D01*
X12529705Y-15083460D02*
X12510658Y-15092984D01*
X12510658Y-15092984D02*
X12453515Y-15092984D01*
X12453515Y-15092984D02*
X12434467Y-15083460D01*
X12434467Y-15083460D02*
X12424943Y-15073936D01*
X12672562Y-14892984D02*
X12691610Y-14892984D01*
X12691610Y-14892984D02*
X12710658Y-14902508D01*
X12710658Y-14902508D02*
X12720182Y-14912031D01*
X12720182Y-14912031D02*
X12729705Y-14931079D01*
X12729705Y-14931079D02*
X12739229Y-14969174D01*
X12739229Y-14969174D02*
X12739229Y-15016793D01*
X12739229Y-15016793D02*
X12729705Y-15054888D01*
X12729705Y-15054888D02*
X12720182Y-15073936D01*
X12720182Y-15073936D02*
X12710658Y-15083460D01*
X12710658Y-15083460D02*
X12691610Y-15092984D01*
X12691610Y-15092984D02*
X12672562Y-15092984D01*
X12672562Y-15092984D02*
X12653515Y-15083460D01*
X12653515Y-15083460D02*
X12643991Y-15073936D01*
X12643991Y-15073936D02*
X12634467Y-15054888D01*
X12634467Y-15054888D02*
X12624943Y-15016793D01*
X12624943Y-15016793D02*
X12624943Y-14969174D01*
X12624943Y-14969174D02*
X12634467Y-14931079D01*
X12634467Y-14931079D02*
X12643991Y-14912031D01*
X12643991Y-14912031D02*
X12653515Y-14902508D01*
X12653515Y-14902508D02*
X12672562Y-14892984D01*
X12863039Y-14892984D02*
X12882086Y-14892984D01*
X12882086Y-14892984D02*
X12901134Y-14902508D01*
X12901134Y-14902508D02*
X12910658Y-14912031D01*
X12910658Y-14912031D02*
X12920182Y-14931079D01*
X12920182Y-14931079D02*
X12929705Y-14969174D01*
X12929705Y-14969174D02*
X12929705Y-15016793D01*
X12929705Y-15016793D02*
X12920182Y-15054888D01*
X12920182Y-15054888D02*
X12910658Y-15073936D01*
X12910658Y-15073936D02*
X12901134Y-15083460D01*
X12901134Y-15083460D02*
X12882086Y-15092984D01*
X12882086Y-15092984D02*
X12863039Y-15092984D01*
X12863039Y-15092984D02*
X12843991Y-15083460D01*
X12843991Y-15083460D02*
X12834467Y-15073936D01*
X12834467Y-15073936D02*
X12824943Y-15054888D01*
X12824943Y-15054888D02*
X12815420Y-15016793D01*
X12815420Y-15016793D02*
X12815420Y-14969174D01*
X12815420Y-14969174D02*
X12824943Y-14931079D01*
X12824943Y-14931079D02*
X12834467Y-14912031D01*
X12834467Y-14912031D02*
X12843991Y-14902508D01*
X12843991Y-14902508D02*
X12863039Y-14892984D01*
X13015420Y-15092984D02*
X13015420Y-14959650D01*
X13015420Y-14978698D02*
X13024943Y-14969174D01*
X13024943Y-14969174D02*
X13043991Y-14959650D01*
X13043991Y-14959650D02*
X13072563Y-14959650D01*
X13072563Y-14959650D02*
X13091610Y-14969174D01*
X13091610Y-14969174D02*
X13101134Y-14988222D01*
X13101134Y-14988222D02*
X13101134Y-15092984D01*
X13101134Y-14988222D02*
X13110658Y-14969174D01*
X13110658Y-14969174D02*
X13129705Y-14959650D01*
X13129705Y-14959650D02*
X13158277Y-14959650D01*
X13158277Y-14959650D02*
X13177324Y-14969174D01*
X13177324Y-14969174D02*
X13186848Y-14988222D01*
X13186848Y-14988222D02*
X13186848Y-15092984D01*
X13282086Y-15092984D02*
X13282086Y-14959650D01*
X13282086Y-14978698D02*
X13291610Y-14969174D01*
X13291610Y-14969174D02*
X13310658Y-14959650D01*
X13310658Y-14959650D02*
X13339229Y-14959650D01*
X13339229Y-14959650D02*
X13358277Y-14969174D01*
X13358277Y-14969174D02*
X13367801Y-14988222D01*
X13367801Y-14988222D02*
X13367801Y-15092984D01*
X13367801Y-14988222D02*
X13377324Y-14969174D01*
X13377324Y-14969174D02*
X13396372Y-14959650D01*
X13396372Y-14959650D02*
X13424943Y-14959650D01*
X13424943Y-14959650D02*
X13443991Y-14969174D01*
X13443991Y-14969174D02*
X13453515Y-14988222D01*
X13453515Y-14988222D02*
X13453515Y-15092984D01*
X13843991Y-14883460D02*
X13672563Y-15140603D01*
X14101134Y-14892984D02*
X14120182Y-14892984D01*
X14120182Y-14892984D02*
X14139229Y-14902508D01*
X14139229Y-14902508D02*
X14148753Y-14912031D01*
X14148753Y-14912031D02*
X14158277Y-14931079D01*
X14158277Y-14931079D02*
X14167801Y-14969174D01*
X14167801Y-14969174D02*
X14167801Y-15016793D01*
X14167801Y-15016793D02*
X14158277Y-15054888D01*
X14158277Y-15054888D02*
X14148753Y-15073936D01*
X14148753Y-15073936D02*
X14139229Y-15083460D01*
X14139229Y-15083460D02*
X14120182Y-15092984D01*
X14120182Y-15092984D02*
X14101134Y-15092984D01*
X14101134Y-15092984D02*
X14082086Y-15083460D01*
X14082086Y-15083460D02*
X14072563Y-15073936D01*
X14072563Y-15073936D02*
X14063039Y-15054888D01*
X14063039Y-15054888D02*
X14053515Y-15016793D01*
X14053515Y-15016793D02*
X14053515Y-14969174D01*
X14053515Y-14969174D02*
X14063039Y-14931079D01*
X14063039Y-14931079D02*
X14072563Y-14912031D01*
X14072563Y-14912031D02*
X14082086Y-14902508D01*
X14082086Y-14902508D02*
X14101134Y-14892984D01*
X14253515Y-15073936D02*
X14263039Y-15083460D01*
X14263039Y-15083460D02*
X14253515Y-15092984D01*
X14253515Y-15092984D02*
X14243991Y-15083460D01*
X14243991Y-15083460D02*
X14253515Y-15073936D01*
X14253515Y-15073936D02*
X14253515Y-15092984D01*
X14386848Y-14892984D02*
X14405896Y-14892984D01*
X14405896Y-14892984D02*
X14424944Y-14902508D01*
X14424944Y-14902508D02*
X14434467Y-14912031D01*
X14434467Y-14912031D02*
X14443991Y-14931079D01*
X14443991Y-14931079D02*
X14453515Y-14969174D01*
X14453515Y-14969174D02*
X14453515Y-15016793D01*
X14453515Y-15016793D02*
X14443991Y-15054888D01*
X14443991Y-15054888D02*
X14434467Y-15073936D01*
X14434467Y-15073936D02*
X14424944Y-15083460D01*
X14424944Y-15083460D02*
X14405896Y-15092984D01*
X14405896Y-15092984D02*
X14386848Y-15092984D01*
X14386848Y-15092984D02*
X14367801Y-15083460D01*
X14367801Y-15083460D02*
X14358277Y-15073936D01*
X14358277Y-15073936D02*
X14348753Y-15054888D01*
X14348753Y-15054888D02*
X14339229Y-15016793D01*
X14339229Y-15016793D02*
X14339229Y-14969174D01*
X14339229Y-14969174D02*
X14348753Y-14931079D01*
X14348753Y-14931079D02*
X14358277Y-14912031D01*
X14358277Y-14912031D02*
X14367801Y-14902508D01*
X14367801Y-14902508D02*
X14386848Y-14892984D01*
X14634467Y-14892984D02*
X14539229Y-14892984D01*
X14539229Y-14892984D02*
X14529706Y-14988222D01*
X14529706Y-14988222D02*
X14539229Y-14978698D01*
X14539229Y-14978698D02*
X14558277Y-14969174D01*
X14558277Y-14969174D02*
X14605896Y-14969174D01*
X14605896Y-14969174D02*
X14624944Y-14978698D01*
X14624944Y-14978698D02*
X14634467Y-14988222D01*
X14634467Y-14988222D02*
X14643991Y-15007269D01*
X14643991Y-15007269D02*
X14643991Y-15054888D01*
X14643991Y-15054888D02*
X14634467Y-15073936D01*
X14634467Y-15073936D02*
X14624944Y-15083460D01*
X14624944Y-15083460D02*
X14605896Y-15092984D01*
X14605896Y-15092984D02*
X14558277Y-15092984D01*
X14558277Y-15092984D02*
X14539229Y-15083460D01*
X14539229Y-15083460D02*
X14529706Y-15073936D01*
X14834467Y-15092984D02*
X14720182Y-15092984D01*
X14777325Y-15092984D02*
X14777325Y-14892984D01*
X14777325Y-14892984D02*
X14758277Y-14921555D01*
X14758277Y-14921555D02*
X14739229Y-14940603D01*
X14739229Y-14940603D02*
X14720182Y-14950127D01*
X14910658Y-14912031D02*
X14920182Y-14902508D01*
X14920182Y-14902508D02*
X14939229Y-14892984D01*
X14939229Y-14892984D02*
X14986848Y-14892984D01*
X14986848Y-14892984D02*
X15005896Y-14902508D01*
X15005896Y-14902508D02*
X15015420Y-14912031D01*
X15015420Y-14912031D02*
X15024944Y-14931079D01*
X15024944Y-14931079D02*
X15024944Y-14950127D01*
X15024944Y-14950127D02*
X15015420Y-14978698D01*
X15015420Y-14978698D02*
X14901134Y-15092984D01*
X14901134Y-15092984D02*
X15024944Y-15092984D01*
X15101134Y-14892984D02*
X15101134Y-14931079D01*
X15177325Y-14892984D02*
X15177325Y-14931079D01*
X15472563Y-15169174D02*
X15463039Y-15159650D01*
X15463039Y-15159650D02*
X15443991Y-15131079D01*
X15443991Y-15131079D02*
X15434468Y-15112031D01*
X15434468Y-15112031D02*
X15424944Y-15083460D01*
X15424944Y-15083460D02*
X15415420Y-15035841D01*
X15415420Y-15035841D02*
X15415420Y-14997746D01*
X15415420Y-14997746D02*
X15424944Y-14950127D01*
X15424944Y-14950127D02*
X15434468Y-14921555D01*
X15434468Y-14921555D02*
X15443991Y-14902508D01*
X15443991Y-14902508D02*
X15463039Y-14873936D01*
X15463039Y-14873936D02*
X15472563Y-14864412D01*
X15577325Y-14978698D02*
X15558277Y-14969174D01*
X15558277Y-14969174D02*
X15548753Y-14959650D01*
X15548753Y-14959650D02*
X15539229Y-14940603D01*
X15539229Y-14940603D02*
X15539229Y-14931079D01*
X15539229Y-14931079D02*
X15548753Y-14912031D01*
X15548753Y-14912031D02*
X15558277Y-14902508D01*
X15558277Y-14902508D02*
X15577325Y-14892984D01*
X15577325Y-14892984D02*
X15615420Y-14892984D01*
X15615420Y-14892984D02*
X15634468Y-14902508D01*
X15634468Y-14902508D02*
X15643991Y-14912031D01*
X15643991Y-14912031D02*
X15653515Y-14931079D01*
X15653515Y-14931079D02*
X15653515Y-14940603D01*
X15653515Y-14940603D02*
X15643991Y-14959650D01*
X15643991Y-14959650D02*
X15634468Y-14969174D01*
X15634468Y-14969174D02*
X15615420Y-14978698D01*
X15615420Y-14978698D02*
X15577325Y-14978698D01*
X15577325Y-14978698D02*
X15558277Y-14988222D01*
X15558277Y-14988222D02*
X15548753Y-14997746D01*
X15548753Y-14997746D02*
X15539229Y-15016793D01*
X15539229Y-15016793D02*
X15539229Y-15054888D01*
X15539229Y-15054888D02*
X15548753Y-15073936D01*
X15548753Y-15073936D02*
X15558277Y-15083460D01*
X15558277Y-15083460D02*
X15577325Y-15092984D01*
X15577325Y-15092984D02*
X15615420Y-15092984D01*
X15615420Y-15092984D02*
X15634468Y-15083460D01*
X15634468Y-15083460D02*
X15643991Y-15073936D01*
X15643991Y-15073936D02*
X15653515Y-15054888D01*
X15653515Y-15054888D02*
X15653515Y-15016793D01*
X15653515Y-15016793D02*
X15643991Y-14997746D01*
X15643991Y-14997746D02*
X15634468Y-14988222D01*
X15634468Y-14988222D02*
X15615420Y-14978698D01*
X15891610Y-15092984D02*
X15891610Y-14892984D01*
X15977325Y-15092984D02*
X15977325Y-14988222D01*
X15977325Y-14988222D02*
X15967801Y-14969174D01*
X15967801Y-14969174D02*
X15948753Y-14959650D01*
X15948753Y-14959650D02*
X15920182Y-14959650D01*
X15920182Y-14959650D02*
X15901134Y-14969174D01*
X15901134Y-14969174D02*
X15891610Y-14978698D01*
X16101134Y-15092984D02*
X16082087Y-15083460D01*
X16082087Y-15083460D02*
X16072563Y-15073936D01*
X16072563Y-15073936D02*
X16063039Y-15054888D01*
X16063039Y-15054888D02*
X16063039Y-14997746D01*
X16063039Y-14997746D02*
X16072563Y-14978698D01*
X16072563Y-14978698D02*
X16082087Y-14969174D01*
X16082087Y-14969174D02*
X16101134Y-14959650D01*
X16101134Y-14959650D02*
X16129706Y-14959650D01*
X16129706Y-14959650D02*
X16148753Y-14969174D01*
X16148753Y-14969174D02*
X16158277Y-14978698D01*
X16158277Y-14978698D02*
X16167801Y-14997746D01*
X16167801Y-14997746D02*
X16167801Y-15054888D01*
X16167801Y-15054888D02*
X16158277Y-15073936D01*
X16158277Y-15073936D02*
X16148753Y-15083460D01*
X16148753Y-15083460D02*
X16129706Y-15092984D01*
X16129706Y-15092984D02*
X16101134Y-15092984D01*
X16282087Y-15092984D02*
X16263039Y-15083460D01*
X16263039Y-15083460D02*
X16253515Y-15064412D01*
X16253515Y-15064412D02*
X16253515Y-14892984D01*
X16434468Y-15083460D02*
X16415420Y-15092984D01*
X16415420Y-15092984D02*
X16377325Y-15092984D01*
X16377325Y-15092984D02*
X16358277Y-15083460D01*
X16358277Y-15083460D02*
X16348753Y-15064412D01*
X16348753Y-15064412D02*
X16348753Y-14988222D01*
X16348753Y-14988222D02*
X16358277Y-14969174D01*
X16358277Y-14969174D02*
X16377325Y-14959650D01*
X16377325Y-14959650D02*
X16415420Y-14959650D01*
X16415420Y-14959650D02*
X16434468Y-14969174D01*
X16434468Y-14969174D02*
X16443991Y-14988222D01*
X16443991Y-14988222D02*
X16443991Y-15007269D01*
X16443991Y-15007269D02*
X16348753Y-15026317D01*
X16520182Y-15083460D02*
X16539230Y-15092984D01*
X16539230Y-15092984D02*
X16577325Y-15092984D01*
X16577325Y-15092984D02*
X16596372Y-15083460D01*
X16596372Y-15083460D02*
X16605896Y-15064412D01*
X16605896Y-15064412D02*
X16605896Y-15054888D01*
X16605896Y-15054888D02*
X16596372Y-15035841D01*
X16596372Y-15035841D02*
X16577325Y-15026317D01*
X16577325Y-15026317D02*
X16548753Y-15026317D01*
X16548753Y-15026317D02*
X16529706Y-15016793D01*
X16529706Y-15016793D02*
X16520182Y-14997746D01*
X16520182Y-14997746D02*
X16520182Y-14988222D01*
X16520182Y-14988222D02*
X16529706Y-14969174D01*
X16529706Y-14969174D02*
X16548753Y-14959650D01*
X16548753Y-14959650D02*
X16577325Y-14959650D01*
X16577325Y-14959650D02*
X16596372Y-14969174D01*
X16672563Y-15169174D02*
X16682087Y-15159650D01*
X16682087Y-15159650D02*
X16701134Y-15131079D01*
X16701134Y-15131079D02*
X16710658Y-15112031D01*
X16710658Y-15112031D02*
X16720182Y-15083460D01*
X16720182Y-15083460D02*
X16729706Y-15035841D01*
X16729706Y-15035841D02*
X16729706Y-14997746D01*
X16729706Y-14997746D02*
X16720182Y-14950127D01*
X16720182Y-14950127D02*
X16710658Y-14921555D01*
X16710658Y-14921555D02*
X16701134Y-14902508D01*
X16701134Y-14902508D02*
X16682087Y-14873936D01*
X16682087Y-14873936D02*
X16672563Y-14864412D01*
D16*
X11729500Y-15181500D02*
X11897500Y-15349500D01*
X11897500Y-15181500D02*
X11729500Y-15349500D01*
X11872897Y-15324897D02*
X11872897Y-15206102D01*
X11754102Y-15206102D01*
X11754102Y-15324897D01*
X11872897Y-15324897D01*
D11*
X12263039Y-15356984D02*
X12148753Y-15356984D01*
X12205896Y-15356984D02*
X12205896Y-15156984D01*
X12205896Y-15156984D02*
X12186848Y-15185555D01*
X12186848Y-15185555D02*
X12167801Y-15204603D01*
X12167801Y-15204603D02*
X12148753Y-15214127D01*
X12348753Y-15337936D02*
X12358277Y-15347460D01*
X12358277Y-15347460D02*
X12348753Y-15356984D01*
X12348753Y-15356984D02*
X12339229Y-15347460D01*
X12339229Y-15347460D02*
X12348753Y-15337936D01*
X12348753Y-15337936D02*
X12348753Y-15356984D01*
X12529705Y-15156984D02*
X12491610Y-15156984D01*
X12491610Y-15156984D02*
X12472562Y-15166508D01*
X12472562Y-15166508D02*
X12463039Y-15176031D01*
X12463039Y-15176031D02*
X12443991Y-15204603D01*
X12443991Y-15204603D02*
X12434467Y-15242698D01*
X12434467Y-15242698D02*
X12434467Y-15318888D01*
X12434467Y-15318888D02*
X12443991Y-15337936D01*
X12443991Y-15337936D02*
X12453515Y-15347460D01*
X12453515Y-15347460D02*
X12472562Y-15356984D01*
X12472562Y-15356984D02*
X12510658Y-15356984D01*
X12510658Y-15356984D02*
X12529705Y-15347460D01*
X12529705Y-15347460D02*
X12539229Y-15337936D01*
X12539229Y-15337936D02*
X12548753Y-15318888D01*
X12548753Y-15318888D02*
X12548753Y-15271269D01*
X12548753Y-15271269D02*
X12539229Y-15252222D01*
X12539229Y-15252222D02*
X12529705Y-15242698D01*
X12529705Y-15242698D02*
X12510658Y-15233174D01*
X12510658Y-15233174D02*
X12472562Y-15233174D01*
X12472562Y-15233174D02*
X12453515Y-15242698D01*
X12453515Y-15242698D02*
X12443991Y-15252222D01*
X12443991Y-15252222D02*
X12434467Y-15271269D01*
X12663039Y-15242698D02*
X12643991Y-15233174D01*
X12643991Y-15233174D02*
X12634467Y-15223650D01*
X12634467Y-15223650D02*
X12624943Y-15204603D01*
X12624943Y-15204603D02*
X12624943Y-15195079D01*
X12624943Y-15195079D02*
X12634467Y-15176031D01*
X12634467Y-15176031D02*
X12643991Y-15166508D01*
X12643991Y-15166508D02*
X12663039Y-15156984D01*
X12663039Y-15156984D02*
X12701134Y-15156984D01*
X12701134Y-15156984D02*
X12720182Y-15166508D01*
X12720182Y-15166508D02*
X12729705Y-15176031D01*
X12729705Y-15176031D02*
X12739229Y-15195079D01*
X12739229Y-15195079D02*
X12739229Y-15204603D01*
X12739229Y-15204603D02*
X12729705Y-15223650D01*
X12729705Y-15223650D02*
X12720182Y-15233174D01*
X12720182Y-15233174D02*
X12701134Y-15242698D01*
X12701134Y-15242698D02*
X12663039Y-15242698D01*
X12663039Y-15242698D02*
X12643991Y-15252222D01*
X12643991Y-15252222D02*
X12634467Y-15261746D01*
X12634467Y-15261746D02*
X12624943Y-15280793D01*
X12624943Y-15280793D02*
X12624943Y-15318888D01*
X12624943Y-15318888D02*
X12634467Y-15337936D01*
X12634467Y-15337936D02*
X12643991Y-15347460D01*
X12643991Y-15347460D02*
X12663039Y-15356984D01*
X12663039Y-15356984D02*
X12701134Y-15356984D01*
X12701134Y-15356984D02*
X12720182Y-15347460D01*
X12720182Y-15347460D02*
X12729705Y-15337936D01*
X12729705Y-15337936D02*
X12739229Y-15318888D01*
X12739229Y-15318888D02*
X12739229Y-15280793D01*
X12739229Y-15280793D02*
X12729705Y-15261746D01*
X12729705Y-15261746D02*
X12720182Y-15252222D01*
X12720182Y-15252222D02*
X12701134Y-15242698D01*
X12863039Y-15156984D02*
X12882086Y-15156984D01*
X12882086Y-15156984D02*
X12901134Y-15166508D01*
X12901134Y-15166508D02*
X12910658Y-15176031D01*
X12910658Y-15176031D02*
X12920182Y-15195079D01*
X12920182Y-15195079D02*
X12929705Y-15233174D01*
X12929705Y-15233174D02*
X12929705Y-15280793D01*
X12929705Y-15280793D02*
X12920182Y-15318888D01*
X12920182Y-15318888D02*
X12910658Y-15337936D01*
X12910658Y-15337936D02*
X12901134Y-15347460D01*
X12901134Y-15347460D02*
X12882086Y-15356984D01*
X12882086Y-15356984D02*
X12863039Y-15356984D01*
X12863039Y-15356984D02*
X12843991Y-15347460D01*
X12843991Y-15347460D02*
X12834467Y-15337936D01*
X12834467Y-15337936D02*
X12824943Y-15318888D01*
X12824943Y-15318888D02*
X12815420Y-15280793D01*
X12815420Y-15280793D02*
X12815420Y-15233174D01*
X12815420Y-15233174D02*
X12824943Y-15195079D01*
X12824943Y-15195079D02*
X12834467Y-15176031D01*
X12834467Y-15176031D02*
X12843991Y-15166508D01*
X12843991Y-15166508D02*
X12863039Y-15156984D01*
X13015420Y-15356984D02*
X13015420Y-15223650D01*
X13015420Y-15242698D02*
X13024943Y-15233174D01*
X13024943Y-15233174D02*
X13043991Y-15223650D01*
X13043991Y-15223650D02*
X13072563Y-15223650D01*
X13072563Y-15223650D02*
X13091610Y-15233174D01*
X13091610Y-15233174D02*
X13101134Y-15252222D01*
X13101134Y-15252222D02*
X13101134Y-15356984D01*
X13101134Y-15252222D02*
X13110658Y-15233174D01*
X13110658Y-15233174D02*
X13129705Y-15223650D01*
X13129705Y-15223650D02*
X13158277Y-15223650D01*
X13158277Y-15223650D02*
X13177324Y-15233174D01*
X13177324Y-15233174D02*
X13186848Y-15252222D01*
X13186848Y-15252222D02*
X13186848Y-15356984D01*
X13282086Y-15356984D02*
X13282086Y-15223650D01*
X13282086Y-15242698D02*
X13291610Y-15233174D01*
X13291610Y-15233174D02*
X13310658Y-15223650D01*
X13310658Y-15223650D02*
X13339229Y-15223650D01*
X13339229Y-15223650D02*
X13358277Y-15233174D01*
X13358277Y-15233174D02*
X13367801Y-15252222D01*
X13367801Y-15252222D02*
X13367801Y-15356984D01*
X13367801Y-15252222D02*
X13377324Y-15233174D01*
X13377324Y-15233174D02*
X13396372Y-15223650D01*
X13396372Y-15223650D02*
X13424943Y-15223650D01*
X13424943Y-15223650D02*
X13443991Y-15233174D01*
X13443991Y-15233174D02*
X13453515Y-15252222D01*
X13453515Y-15252222D02*
X13453515Y-15356984D01*
X13843991Y-15147460D02*
X13672563Y-15404603D01*
X14101134Y-15156984D02*
X14120182Y-15156984D01*
X14120182Y-15156984D02*
X14139229Y-15166508D01*
X14139229Y-15166508D02*
X14148753Y-15176031D01*
X14148753Y-15176031D02*
X14158277Y-15195079D01*
X14158277Y-15195079D02*
X14167801Y-15233174D01*
X14167801Y-15233174D02*
X14167801Y-15280793D01*
X14167801Y-15280793D02*
X14158277Y-15318888D01*
X14158277Y-15318888D02*
X14148753Y-15337936D01*
X14148753Y-15337936D02*
X14139229Y-15347460D01*
X14139229Y-15347460D02*
X14120182Y-15356984D01*
X14120182Y-15356984D02*
X14101134Y-15356984D01*
X14101134Y-15356984D02*
X14082086Y-15347460D01*
X14082086Y-15347460D02*
X14072563Y-15337936D01*
X14072563Y-15337936D02*
X14063039Y-15318888D01*
X14063039Y-15318888D02*
X14053515Y-15280793D01*
X14053515Y-15280793D02*
X14053515Y-15233174D01*
X14053515Y-15233174D02*
X14063039Y-15195079D01*
X14063039Y-15195079D02*
X14072563Y-15176031D01*
X14072563Y-15176031D02*
X14082086Y-15166508D01*
X14082086Y-15166508D02*
X14101134Y-15156984D01*
X14253515Y-15337936D02*
X14263039Y-15347460D01*
X14263039Y-15347460D02*
X14253515Y-15356984D01*
X14253515Y-15356984D02*
X14243991Y-15347460D01*
X14243991Y-15347460D02*
X14253515Y-15337936D01*
X14253515Y-15337936D02*
X14253515Y-15356984D01*
X14386848Y-15156984D02*
X14405896Y-15156984D01*
X14405896Y-15156984D02*
X14424944Y-15166508D01*
X14424944Y-15166508D02*
X14434467Y-15176031D01*
X14434467Y-15176031D02*
X14443991Y-15195079D01*
X14443991Y-15195079D02*
X14453515Y-15233174D01*
X14453515Y-15233174D02*
X14453515Y-15280793D01*
X14453515Y-15280793D02*
X14443991Y-15318888D01*
X14443991Y-15318888D02*
X14434467Y-15337936D01*
X14434467Y-15337936D02*
X14424944Y-15347460D01*
X14424944Y-15347460D02*
X14405896Y-15356984D01*
X14405896Y-15356984D02*
X14386848Y-15356984D01*
X14386848Y-15356984D02*
X14367801Y-15347460D01*
X14367801Y-15347460D02*
X14358277Y-15337936D01*
X14358277Y-15337936D02*
X14348753Y-15318888D01*
X14348753Y-15318888D02*
X14339229Y-15280793D01*
X14339229Y-15280793D02*
X14339229Y-15233174D01*
X14339229Y-15233174D02*
X14348753Y-15195079D01*
X14348753Y-15195079D02*
X14358277Y-15176031D01*
X14358277Y-15176031D02*
X14367801Y-15166508D01*
X14367801Y-15166508D02*
X14386848Y-15156984D01*
X14624944Y-15156984D02*
X14586848Y-15156984D01*
X14586848Y-15156984D02*
X14567801Y-15166508D01*
X14567801Y-15166508D02*
X14558277Y-15176031D01*
X14558277Y-15176031D02*
X14539229Y-15204603D01*
X14539229Y-15204603D02*
X14529706Y-15242698D01*
X14529706Y-15242698D02*
X14529706Y-15318888D01*
X14529706Y-15318888D02*
X14539229Y-15337936D01*
X14539229Y-15337936D02*
X14548753Y-15347460D01*
X14548753Y-15347460D02*
X14567801Y-15356984D01*
X14567801Y-15356984D02*
X14605896Y-15356984D01*
X14605896Y-15356984D02*
X14624944Y-15347460D01*
X14624944Y-15347460D02*
X14634467Y-15337936D01*
X14634467Y-15337936D02*
X14643991Y-15318888D01*
X14643991Y-15318888D02*
X14643991Y-15271269D01*
X14643991Y-15271269D02*
X14634467Y-15252222D01*
X14634467Y-15252222D02*
X14624944Y-15242698D01*
X14624944Y-15242698D02*
X14605896Y-15233174D01*
X14605896Y-15233174D02*
X14567801Y-15233174D01*
X14567801Y-15233174D02*
X14548753Y-15242698D01*
X14548753Y-15242698D02*
X14539229Y-15252222D01*
X14539229Y-15252222D02*
X14529706Y-15271269D01*
X14815420Y-15156984D02*
X14777325Y-15156984D01*
X14777325Y-15156984D02*
X14758277Y-15166508D01*
X14758277Y-15166508D02*
X14748753Y-15176031D01*
X14748753Y-15176031D02*
X14729706Y-15204603D01*
X14729706Y-15204603D02*
X14720182Y-15242698D01*
X14720182Y-15242698D02*
X14720182Y-15318888D01*
X14720182Y-15318888D02*
X14729706Y-15337936D01*
X14729706Y-15337936D02*
X14739229Y-15347460D01*
X14739229Y-15347460D02*
X14758277Y-15356984D01*
X14758277Y-15356984D02*
X14796372Y-15356984D01*
X14796372Y-15356984D02*
X14815420Y-15347460D01*
X14815420Y-15347460D02*
X14824944Y-15337936D01*
X14824944Y-15337936D02*
X14834467Y-15318888D01*
X14834467Y-15318888D02*
X14834467Y-15271269D01*
X14834467Y-15271269D02*
X14824944Y-15252222D01*
X14824944Y-15252222D02*
X14815420Y-15242698D01*
X14815420Y-15242698D02*
X14796372Y-15233174D01*
X14796372Y-15233174D02*
X14758277Y-15233174D01*
X14758277Y-15233174D02*
X14739229Y-15242698D01*
X14739229Y-15242698D02*
X14729706Y-15252222D01*
X14729706Y-15252222D02*
X14720182Y-15271269D01*
X15024944Y-15356984D02*
X14910658Y-15356984D01*
X14967801Y-15356984D02*
X14967801Y-15156984D01*
X14967801Y-15156984D02*
X14948753Y-15185555D01*
X14948753Y-15185555D02*
X14929706Y-15204603D01*
X14929706Y-15204603D02*
X14910658Y-15214127D01*
X15101134Y-15156984D02*
X15101134Y-15195079D01*
X15177325Y-15156984D02*
X15177325Y-15195079D01*
X15472563Y-15433174D02*
X15463039Y-15423650D01*
X15463039Y-15423650D02*
X15443991Y-15395079D01*
X15443991Y-15395079D02*
X15434468Y-15376031D01*
X15434468Y-15376031D02*
X15424944Y-15347460D01*
X15424944Y-15347460D02*
X15415420Y-15299841D01*
X15415420Y-15299841D02*
X15415420Y-15261746D01*
X15415420Y-15261746D02*
X15424944Y-15214127D01*
X15424944Y-15214127D02*
X15434468Y-15185555D01*
X15434468Y-15185555D02*
X15443991Y-15166508D01*
X15443991Y-15166508D02*
X15463039Y-15137936D01*
X15463039Y-15137936D02*
X15472563Y-15128412D01*
X15529706Y-15156984D02*
X15653515Y-15156984D01*
X15653515Y-15156984D02*
X15586848Y-15233174D01*
X15586848Y-15233174D02*
X15615420Y-15233174D01*
X15615420Y-15233174D02*
X15634468Y-15242698D01*
X15634468Y-15242698D02*
X15643991Y-15252222D01*
X15643991Y-15252222D02*
X15653515Y-15271269D01*
X15653515Y-15271269D02*
X15653515Y-15318888D01*
X15653515Y-15318888D02*
X15643991Y-15337936D01*
X15643991Y-15337936D02*
X15634468Y-15347460D01*
X15634468Y-15347460D02*
X15615420Y-15356984D01*
X15615420Y-15356984D02*
X15558277Y-15356984D01*
X15558277Y-15356984D02*
X15539229Y-15347460D01*
X15539229Y-15347460D02*
X15529706Y-15337936D01*
X15891610Y-15356984D02*
X15891610Y-15156984D01*
X15977325Y-15356984D02*
X15977325Y-15252222D01*
X15977325Y-15252222D02*
X15967801Y-15233174D01*
X15967801Y-15233174D02*
X15948753Y-15223650D01*
X15948753Y-15223650D02*
X15920182Y-15223650D01*
X15920182Y-15223650D02*
X15901134Y-15233174D01*
X15901134Y-15233174D02*
X15891610Y-15242698D01*
X16101134Y-15356984D02*
X16082087Y-15347460D01*
X16082087Y-15347460D02*
X16072563Y-15337936D01*
X16072563Y-15337936D02*
X16063039Y-15318888D01*
X16063039Y-15318888D02*
X16063039Y-15261746D01*
X16063039Y-15261746D02*
X16072563Y-15242698D01*
X16072563Y-15242698D02*
X16082087Y-15233174D01*
X16082087Y-15233174D02*
X16101134Y-15223650D01*
X16101134Y-15223650D02*
X16129706Y-15223650D01*
X16129706Y-15223650D02*
X16148753Y-15233174D01*
X16148753Y-15233174D02*
X16158277Y-15242698D01*
X16158277Y-15242698D02*
X16167801Y-15261746D01*
X16167801Y-15261746D02*
X16167801Y-15318888D01*
X16167801Y-15318888D02*
X16158277Y-15337936D01*
X16158277Y-15337936D02*
X16148753Y-15347460D01*
X16148753Y-15347460D02*
X16129706Y-15356984D01*
X16129706Y-15356984D02*
X16101134Y-15356984D01*
X16282087Y-15356984D02*
X16263039Y-15347460D01*
X16263039Y-15347460D02*
X16253515Y-15328412D01*
X16253515Y-15328412D02*
X16253515Y-15156984D01*
X16434468Y-15347460D02*
X16415420Y-15356984D01*
X16415420Y-15356984D02*
X16377325Y-15356984D01*
X16377325Y-15356984D02*
X16358277Y-15347460D01*
X16358277Y-15347460D02*
X16348753Y-15328412D01*
X16348753Y-15328412D02*
X16348753Y-15252222D01*
X16348753Y-15252222D02*
X16358277Y-15233174D01*
X16358277Y-15233174D02*
X16377325Y-15223650D01*
X16377325Y-15223650D02*
X16415420Y-15223650D01*
X16415420Y-15223650D02*
X16434468Y-15233174D01*
X16434468Y-15233174D02*
X16443991Y-15252222D01*
X16443991Y-15252222D02*
X16443991Y-15271269D01*
X16443991Y-15271269D02*
X16348753Y-15290317D01*
X16520182Y-15347460D02*
X16539230Y-15356984D01*
X16539230Y-15356984D02*
X16577325Y-15356984D01*
X16577325Y-15356984D02*
X16596372Y-15347460D01*
X16596372Y-15347460D02*
X16605896Y-15328412D01*
X16605896Y-15328412D02*
X16605896Y-15318888D01*
X16605896Y-15318888D02*
X16596372Y-15299841D01*
X16596372Y-15299841D02*
X16577325Y-15290317D01*
X16577325Y-15290317D02*
X16548753Y-15290317D01*
X16548753Y-15290317D02*
X16529706Y-15280793D01*
X16529706Y-15280793D02*
X16520182Y-15261746D01*
X16520182Y-15261746D02*
X16520182Y-15252222D01*
X16520182Y-15252222D02*
X16529706Y-15233174D01*
X16529706Y-15233174D02*
X16548753Y-15223650D01*
X16548753Y-15223650D02*
X16577325Y-15223650D01*
X16577325Y-15223650D02*
X16596372Y-15233174D01*
X16672563Y-15433174D02*
X16682087Y-15423650D01*
X16682087Y-15423650D02*
X16701134Y-15395079D01*
X16701134Y-15395079D02*
X16710658Y-15376031D01*
X16710658Y-15376031D02*
X16720182Y-15347460D01*
X16720182Y-15347460D02*
X16729706Y-15299841D01*
X16729706Y-15299841D02*
X16729706Y-15261746D01*
X16729706Y-15261746D02*
X16720182Y-15214127D01*
X16720182Y-15214127D02*
X16710658Y-15185555D01*
X16710658Y-15185555D02*
X16701134Y-15166508D01*
X16701134Y-15166508D02*
X16682087Y-15137936D01*
X16682087Y-15137936D02*
X16672563Y-15128412D01*
X11697500Y-15453500D02*
X11897500Y-15653500D01*
X11897500Y-15453500D02*
X11697500Y-15653500D01*
X11797500Y-15653500D02*
X11897500Y-15553500D01*
X11797500Y-15453500D01*
X11697500Y-15553500D01*
X11797500Y-15653500D01*
X12148753Y-15464031D02*
X12158277Y-15454508D01*
X12158277Y-15454508D02*
X12177324Y-15444984D01*
X12177324Y-15444984D02*
X12224943Y-15444984D01*
X12224943Y-15444984D02*
X12243991Y-15454508D01*
X12243991Y-15454508D02*
X12253515Y-15464031D01*
X12253515Y-15464031D02*
X12263039Y-15483079D01*
X12263039Y-15483079D02*
X12263039Y-15502127D01*
X12263039Y-15502127D02*
X12253515Y-15530698D01*
X12253515Y-15530698D02*
X12139229Y-15644984D01*
X12139229Y-15644984D02*
X12263039Y-15644984D01*
X12348753Y-15625936D02*
X12358277Y-15635460D01*
X12358277Y-15635460D02*
X12348753Y-15644984D01*
X12348753Y-15644984D02*
X12339229Y-15635460D01*
X12339229Y-15635460D02*
X12348753Y-15625936D01*
X12348753Y-15625936D02*
X12348753Y-15644984D01*
X12424943Y-15444984D02*
X12548753Y-15444984D01*
X12548753Y-15444984D02*
X12482086Y-15521174D01*
X12482086Y-15521174D02*
X12510658Y-15521174D01*
X12510658Y-15521174D02*
X12529705Y-15530698D01*
X12529705Y-15530698D02*
X12539229Y-15540222D01*
X12539229Y-15540222D02*
X12548753Y-15559269D01*
X12548753Y-15559269D02*
X12548753Y-15606888D01*
X12548753Y-15606888D02*
X12539229Y-15625936D01*
X12539229Y-15625936D02*
X12529705Y-15635460D01*
X12529705Y-15635460D02*
X12510658Y-15644984D01*
X12510658Y-15644984D02*
X12453515Y-15644984D01*
X12453515Y-15644984D02*
X12434467Y-15635460D01*
X12434467Y-15635460D02*
X12424943Y-15625936D01*
X12672562Y-15444984D02*
X12691610Y-15444984D01*
X12691610Y-15444984D02*
X12710658Y-15454508D01*
X12710658Y-15454508D02*
X12720182Y-15464031D01*
X12720182Y-15464031D02*
X12729705Y-15483079D01*
X12729705Y-15483079D02*
X12739229Y-15521174D01*
X12739229Y-15521174D02*
X12739229Y-15568793D01*
X12739229Y-15568793D02*
X12729705Y-15606888D01*
X12729705Y-15606888D02*
X12720182Y-15625936D01*
X12720182Y-15625936D02*
X12710658Y-15635460D01*
X12710658Y-15635460D02*
X12691610Y-15644984D01*
X12691610Y-15644984D02*
X12672562Y-15644984D01*
X12672562Y-15644984D02*
X12653515Y-15635460D01*
X12653515Y-15635460D02*
X12643991Y-15625936D01*
X12643991Y-15625936D02*
X12634467Y-15606888D01*
X12634467Y-15606888D02*
X12624943Y-15568793D01*
X12624943Y-15568793D02*
X12624943Y-15521174D01*
X12624943Y-15521174D02*
X12634467Y-15483079D01*
X12634467Y-15483079D02*
X12643991Y-15464031D01*
X12643991Y-15464031D02*
X12653515Y-15454508D01*
X12653515Y-15454508D02*
X12672562Y-15444984D01*
X12863039Y-15444984D02*
X12882086Y-15444984D01*
X12882086Y-15444984D02*
X12901134Y-15454508D01*
X12901134Y-15454508D02*
X12910658Y-15464031D01*
X12910658Y-15464031D02*
X12920182Y-15483079D01*
X12920182Y-15483079D02*
X12929705Y-15521174D01*
X12929705Y-15521174D02*
X12929705Y-15568793D01*
X12929705Y-15568793D02*
X12920182Y-15606888D01*
X12920182Y-15606888D02*
X12910658Y-15625936D01*
X12910658Y-15625936D02*
X12901134Y-15635460D01*
X12901134Y-15635460D02*
X12882086Y-15644984D01*
X12882086Y-15644984D02*
X12863039Y-15644984D01*
X12863039Y-15644984D02*
X12843991Y-15635460D01*
X12843991Y-15635460D02*
X12834467Y-15625936D01*
X12834467Y-15625936D02*
X12824943Y-15606888D01*
X12824943Y-15606888D02*
X12815420Y-15568793D01*
X12815420Y-15568793D02*
X12815420Y-15521174D01*
X12815420Y-15521174D02*
X12824943Y-15483079D01*
X12824943Y-15483079D02*
X12834467Y-15464031D01*
X12834467Y-15464031D02*
X12843991Y-15454508D01*
X12843991Y-15454508D02*
X12863039Y-15444984D01*
X13015420Y-15644984D02*
X13015420Y-15511650D01*
X13015420Y-15530698D02*
X13024943Y-15521174D01*
X13024943Y-15521174D02*
X13043991Y-15511650D01*
X13043991Y-15511650D02*
X13072563Y-15511650D01*
X13072563Y-15511650D02*
X13091610Y-15521174D01*
X13091610Y-15521174D02*
X13101134Y-15540222D01*
X13101134Y-15540222D02*
X13101134Y-15644984D01*
X13101134Y-15540222D02*
X13110658Y-15521174D01*
X13110658Y-15521174D02*
X13129705Y-15511650D01*
X13129705Y-15511650D02*
X13158277Y-15511650D01*
X13158277Y-15511650D02*
X13177324Y-15521174D01*
X13177324Y-15521174D02*
X13186848Y-15540222D01*
X13186848Y-15540222D02*
X13186848Y-15644984D01*
X13282086Y-15644984D02*
X13282086Y-15511650D01*
X13282086Y-15530698D02*
X13291610Y-15521174D01*
X13291610Y-15521174D02*
X13310658Y-15511650D01*
X13310658Y-15511650D02*
X13339229Y-15511650D01*
X13339229Y-15511650D02*
X13358277Y-15521174D01*
X13358277Y-15521174D02*
X13367801Y-15540222D01*
X13367801Y-15540222D02*
X13367801Y-15644984D01*
X13367801Y-15540222D02*
X13377324Y-15521174D01*
X13377324Y-15521174D02*
X13396372Y-15511650D01*
X13396372Y-15511650D02*
X13424943Y-15511650D01*
X13424943Y-15511650D02*
X13443991Y-15521174D01*
X13443991Y-15521174D02*
X13453515Y-15540222D01*
X13453515Y-15540222D02*
X13453515Y-15644984D01*
X13843991Y-15435460D02*
X13672563Y-15692603D01*
X14101134Y-15444984D02*
X14120182Y-15444984D01*
X14120182Y-15444984D02*
X14139229Y-15454508D01*
X14139229Y-15454508D02*
X14148753Y-15464031D01*
X14148753Y-15464031D02*
X14158277Y-15483079D01*
X14158277Y-15483079D02*
X14167801Y-15521174D01*
X14167801Y-15521174D02*
X14167801Y-15568793D01*
X14167801Y-15568793D02*
X14158277Y-15606888D01*
X14158277Y-15606888D02*
X14148753Y-15625936D01*
X14148753Y-15625936D02*
X14139229Y-15635460D01*
X14139229Y-15635460D02*
X14120182Y-15644984D01*
X14120182Y-15644984D02*
X14101134Y-15644984D01*
X14101134Y-15644984D02*
X14082086Y-15635460D01*
X14082086Y-15635460D02*
X14072563Y-15625936D01*
X14072563Y-15625936D02*
X14063039Y-15606888D01*
X14063039Y-15606888D02*
X14053515Y-15568793D01*
X14053515Y-15568793D02*
X14053515Y-15521174D01*
X14053515Y-15521174D02*
X14063039Y-15483079D01*
X14063039Y-15483079D02*
X14072563Y-15464031D01*
X14072563Y-15464031D02*
X14082086Y-15454508D01*
X14082086Y-15454508D02*
X14101134Y-15444984D01*
X14253515Y-15625936D02*
X14263039Y-15635460D01*
X14263039Y-15635460D02*
X14253515Y-15644984D01*
X14253515Y-15644984D02*
X14243991Y-15635460D01*
X14243991Y-15635460D02*
X14253515Y-15625936D01*
X14253515Y-15625936D02*
X14253515Y-15644984D01*
X14386848Y-15444984D02*
X14405896Y-15444984D01*
X14405896Y-15444984D02*
X14424944Y-15454508D01*
X14424944Y-15454508D02*
X14434467Y-15464031D01*
X14434467Y-15464031D02*
X14443991Y-15483079D01*
X14443991Y-15483079D02*
X14453515Y-15521174D01*
X14453515Y-15521174D02*
X14453515Y-15568793D01*
X14453515Y-15568793D02*
X14443991Y-15606888D01*
X14443991Y-15606888D02*
X14434467Y-15625936D01*
X14434467Y-15625936D02*
X14424944Y-15635460D01*
X14424944Y-15635460D02*
X14405896Y-15644984D01*
X14405896Y-15644984D02*
X14386848Y-15644984D01*
X14386848Y-15644984D02*
X14367801Y-15635460D01*
X14367801Y-15635460D02*
X14358277Y-15625936D01*
X14358277Y-15625936D02*
X14348753Y-15606888D01*
X14348753Y-15606888D02*
X14339229Y-15568793D01*
X14339229Y-15568793D02*
X14339229Y-15521174D01*
X14339229Y-15521174D02*
X14348753Y-15483079D01*
X14348753Y-15483079D02*
X14358277Y-15464031D01*
X14358277Y-15464031D02*
X14367801Y-15454508D01*
X14367801Y-15454508D02*
X14386848Y-15444984D01*
X14548753Y-15644984D02*
X14586848Y-15644984D01*
X14586848Y-15644984D02*
X14605896Y-15635460D01*
X14605896Y-15635460D02*
X14615420Y-15625936D01*
X14615420Y-15625936D02*
X14634467Y-15597365D01*
X14634467Y-15597365D02*
X14643991Y-15559269D01*
X14643991Y-15559269D02*
X14643991Y-15483079D01*
X14643991Y-15483079D02*
X14634467Y-15464031D01*
X14634467Y-15464031D02*
X14624944Y-15454508D01*
X14624944Y-15454508D02*
X14605896Y-15444984D01*
X14605896Y-15444984D02*
X14567801Y-15444984D01*
X14567801Y-15444984D02*
X14548753Y-15454508D01*
X14548753Y-15454508D02*
X14539229Y-15464031D01*
X14539229Y-15464031D02*
X14529706Y-15483079D01*
X14529706Y-15483079D02*
X14529706Y-15530698D01*
X14529706Y-15530698D02*
X14539229Y-15549746D01*
X14539229Y-15549746D02*
X14548753Y-15559269D01*
X14548753Y-15559269D02*
X14567801Y-15568793D01*
X14567801Y-15568793D02*
X14605896Y-15568793D01*
X14605896Y-15568793D02*
X14624944Y-15559269D01*
X14624944Y-15559269D02*
X14634467Y-15549746D01*
X14634467Y-15549746D02*
X14643991Y-15530698D01*
X14767801Y-15444984D02*
X14786848Y-15444984D01*
X14786848Y-15444984D02*
X14805896Y-15454508D01*
X14805896Y-15454508D02*
X14815420Y-15464031D01*
X14815420Y-15464031D02*
X14824944Y-15483079D01*
X14824944Y-15483079D02*
X14834467Y-15521174D01*
X14834467Y-15521174D02*
X14834467Y-15568793D01*
X14834467Y-15568793D02*
X14824944Y-15606888D01*
X14824944Y-15606888D02*
X14815420Y-15625936D01*
X14815420Y-15625936D02*
X14805896Y-15635460D01*
X14805896Y-15635460D02*
X14786848Y-15644984D01*
X14786848Y-15644984D02*
X14767801Y-15644984D01*
X14767801Y-15644984D02*
X14748753Y-15635460D01*
X14748753Y-15635460D02*
X14739229Y-15625936D01*
X14739229Y-15625936D02*
X14729706Y-15606888D01*
X14729706Y-15606888D02*
X14720182Y-15568793D01*
X14720182Y-15568793D02*
X14720182Y-15521174D01*
X14720182Y-15521174D02*
X14729706Y-15483079D01*
X14729706Y-15483079D02*
X14739229Y-15464031D01*
X14739229Y-15464031D02*
X14748753Y-15454508D01*
X14748753Y-15454508D02*
X14767801Y-15444984D01*
X15005896Y-15444984D02*
X14967801Y-15444984D01*
X14967801Y-15444984D02*
X14948753Y-15454508D01*
X14948753Y-15454508D02*
X14939229Y-15464031D01*
X14939229Y-15464031D02*
X14920182Y-15492603D01*
X14920182Y-15492603D02*
X14910658Y-15530698D01*
X14910658Y-15530698D02*
X14910658Y-15606888D01*
X14910658Y-15606888D02*
X14920182Y-15625936D01*
X14920182Y-15625936D02*
X14929706Y-15635460D01*
X14929706Y-15635460D02*
X14948753Y-15644984D01*
X14948753Y-15644984D02*
X14986848Y-15644984D01*
X14986848Y-15644984D02*
X15005896Y-15635460D01*
X15005896Y-15635460D02*
X15015420Y-15625936D01*
X15015420Y-15625936D02*
X15024944Y-15606888D01*
X15024944Y-15606888D02*
X15024944Y-15559269D01*
X15024944Y-15559269D02*
X15015420Y-15540222D01*
X15015420Y-15540222D02*
X15005896Y-15530698D01*
X15005896Y-15530698D02*
X14986848Y-15521174D01*
X14986848Y-15521174D02*
X14948753Y-15521174D01*
X14948753Y-15521174D02*
X14929706Y-15530698D01*
X14929706Y-15530698D02*
X14920182Y-15540222D01*
X14920182Y-15540222D02*
X14910658Y-15559269D01*
X15101134Y-15444984D02*
X15101134Y-15483079D01*
X15177325Y-15444984D02*
X15177325Y-15483079D01*
X15472563Y-15721174D02*
X15463039Y-15711650D01*
X15463039Y-15711650D02*
X15443991Y-15683079D01*
X15443991Y-15683079D02*
X15434468Y-15664031D01*
X15434468Y-15664031D02*
X15424944Y-15635460D01*
X15424944Y-15635460D02*
X15415420Y-15587841D01*
X15415420Y-15587841D02*
X15415420Y-15549746D01*
X15415420Y-15549746D02*
X15424944Y-15502127D01*
X15424944Y-15502127D02*
X15434468Y-15473555D01*
X15434468Y-15473555D02*
X15443991Y-15454508D01*
X15443991Y-15454508D02*
X15463039Y-15425936D01*
X15463039Y-15425936D02*
X15472563Y-15416412D01*
X15539229Y-15464031D02*
X15548753Y-15454508D01*
X15548753Y-15454508D02*
X15567801Y-15444984D01*
X15567801Y-15444984D02*
X15615420Y-15444984D01*
X15615420Y-15444984D02*
X15634468Y-15454508D01*
X15634468Y-15454508D02*
X15643991Y-15464031D01*
X15643991Y-15464031D02*
X15653515Y-15483079D01*
X15653515Y-15483079D02*
X15653515Y-15502127D01*
X15653515Y-15502127D02*
X15643991Y-15530698D01*
X15643991Y-15530698D02*
X15529706Y-15644984D01*
X15529706Y-15644984D02*
X15653515Y-15644984D01*
X15891610Y-15644984D02*
X15891610Y-15444984D01*
X15977325Y-15644984D02*
X15977325Y-15540222D01*
X15977325Y-15540222D02*
X15967801Y-15521174D01*
X15967801Y-15521174D02*
X15948753Y-15511650D01*
X15948753Y-15511650D02*
X15920182Y-15511650D01*
X15920182Y-15511650D02*
X15901134Y-15521174D01*
X15901134Y-15521174D02*
X15891610Y-15530698D01*
X16101134Y-15644984D02*
X16082087Y-15635460D01*
X16082087Y-15635460D02*
X16072563Y-15625936D01*
X16072563Y-15625936D02*
X16063039Y-15606888D01*
X16063039Y-15606888D02*
X16063039Y-15549746D01*
X16063039Y-15549746D02*
X16072563Y-15530698D01*
X16072563Y-15530698D02*
X16082087Y-15521174D01*
X16082087Y-15521174D02*
X16101134Y-15511650D01*
X16101134Y-15511650D02*
X16129706Y-15511650D01*
X16129706Y-15511650D02*
X16148753Y-15521174D01*
X16148753Y-15521174D02*
X16158277Y-15530698D01*
X16158277Y-15530698D02*
X16167801Y-15549746D01*
X16167801Y-15549746D02*
X16167801Y-15606888D01*
X16167801Y-15606888D02*
X16158277Y-15625936D01*
X16158277Y-15625936D02*
X16148753Y-15635460D01*
X16148753Y-15635460D02*
X16129706Y-15644984D01*
X16129706Y-15644984D02*
X16101134Y-15644984D01*
X16282087Y-15644984D02*
X16263039Y-15635460D01*
X16263039Y-15635460D02*
X16253515Y-15616412D01*
X16253515Y-15616412D02*
X16253515Y-15444984D01*
X16434468Y-15635460D02*
X16415420Y-15644984D01*
X16415420Y-15644984D02*
X16377325Y-15644984D01*
X16377325Y-15644984D02*
X16358277Y-15635460D01*
X16358277Y-15635460D02*
X16348753Y-15616412D01*
X16348753Y-15616412D02*
X16348753Y-15540222D01*
X16348753Y-15540222D02*
X16358277Y-15521174D01*
X16358277Y-15521174D02*
X16377325Y-15511650D01*
X16377325Y-15511650D02*
X16415420Y-15511650D01*
X16415420Y-15511650D02*
X16434468Y-15521174D01*
X16434468Y-15521174D02*
X16443991Y-15540222D01*
X16443991Y-15540222D02*
X16443991Y-15559269D01*
X16443991Y-15559269D02*
X16348753Y-15578317D01*
X16520182Y-15635460D02*
X16539230Y-15644984D01*
X16539230Y-15644984D02*
X16577325Y-15644984D01*
X16577325Y-15644984D02*
X16596372Y-15635460D01*
X16596372Y-15635460D02*
X16605896Y-15616412D01*
X16605896Y-15616412D02*
X16605896Y-15606888D01*
X16605896Y-15606888D02*
X16596372Y-15587841D01*
X16596372Y-15587841D02*
X16577325Y-15578317D01*
X16577325Y-15578317D02*
X16548753Y-15578317D01*
X16548753Y-15578317D02*
X16529706Y-15568793D01*
X16529706Y-15568793D02*
X16520182Y-15549746D01*
X16520182Y-15549746D02*
X16520182Y-15540222D01*
X16520182Y-15540222D02*
X16529706Y-15521174D01*
X16529706Y-15521174D02*
X16548753Y-15511650D01*
X16548753Y-15511650D02*
X16577325Y-15511650D01*
X16577325Y-15511650D02*
X16596372Y-15521174D01*
X16672563Y-15721174D02*
X16682087Y-15711650D01*
X16682087Y-15711650D02*
X16701134Y-15683079D01*
X16701134Y-15683079D02*
X16710658Y-15664031D01*
X16710658Y-15664031D02*
X16720182Y-15635460D01*
X16720182Y-15635460D02*
X16729706Y-15587841D01*
X16729706Y-15587841D02*
X16729706Y-15549746D01*
X16729706Y-15549746D02*
X16720182Y-15502127D01*
X16720182Y-15502127D02*
X16710658Y-15473555D01*
X16710658Y-15473555D02*
X16701134Y-15454508D01*
X16701134Y-15454508D02*
X16682087Y-15425936D01*
X16682087Y-15425936D02*
X16672563Y-15416412D01*
M02*
