G04 #@! TF.GenerationSoftware,KiCad,Pcbnew,9.0.6-9.0.6~ubuntu22.04.1*
G04 #@! TF.CreationDate,2025-11-28T11:55:00+01:00*
G04 #@! TF.ProjectId,OZE_PowerBank,4f5a455f-506f-4776-9572-42616e6b2e6b,rev?*
G04 #@! TF.SameCoordinates,Original*
G04 #@! TF.FileFunction,Paste,Top*
G04 #@! TF.FilePolarity,Positive*
%FSLAX46Y46*%
G04 Gerber Fmt 4.6, Leading zero omitted, Abs format (unit mm)*
G04 Created by KiCad (PCBNEW 9.0.6-9.0.6~ubuntu22.04.1) date 2025-11-28 11:55:00*
%MOMM*%
%LPD*%
G01*
G04 APERTURE LIST*
G04 Aperture macros list*
%AMRoundRect*
0 Rectangle with rounded corners*
0 $1 Rounding radius*
0 $2 $3 $4 $5 $6 $7 $8 $9 X,Y pos of 4 corners*
0 Add a 4 corners polygon primitive as box body*
4,1,4,$2,$3,$4,$5,$6,$7,$8,$9,$2,$3,0*
0 Add four circle primitives for the rounded corners*
1,1,$1+$1,$2,$3*
1,1,$1+$1,$4,$5*
1,1,$1+$1,$6,$7*
1,1,$1+$1,$8,$9*
0 Add four rect primitives between the rounded corners*
20,1,$1+$1,$2,$3,$4,$5,0*
20,1,$1+$1,$4,$5,$6,$7,0*
20,1,$1+$1,$6,$7,$8,$9,0*
20,1,$1+$1,$8,$9,$2,$3,0*%
G04 Aperture macros list end*
%ADD10RoundRect,0.250000X0.475000X-0.337500X0.475000X0.337500X-0.475000X0.337500X-0.475000X-0.337500X0*%
%ADD11R,3.000000X5.600000*%
%ADD12RoundRect,0.250000X-0.475000X0.337500X-0.475000X-0.337500X0.475000X-0.337500X0.475000X0.337500X0*%
%ADD13RoundRect,0.248780X0.451220X-0.261220X0.451220X0.261220X-0.451220X0.261220X-0.451220X-0.261220X0*%
%ADD14RoundRect,0.250000X-0.475000X0.250000X-0.475000X-0.250000X0.475000X-0.250000X0.475000X0.250000X0*%
%ADD15R,1.200000X1.400000*%
%ADD16RoundRect,0.250001X0.462499X0.624999X-0.462499X0.624999X-0.462499X-0.624999X0.462499X-0.624999X0*%
%ADD17RoundRect,0.140000X0.140000X0.170000X-0.140000X0.170000X-0.140000X-0.170000X0.140000X-0.170000X0*%
%ADD18RoundRect,0.250000X0.337500X0.475000X-0.337500X0.475000X-0.337500X-0.475000X0.337500X-0.475000X0*%
%ADD19RoundRect,0.250000X0.450000X-0.350000X0.450000X0.350000X-0.450000X0.350000X-0.450000X-0.350000X0*%
%ADD20RoundRect,0.237500X-0.250000X-0.237500X0.250000X-0.237500X0.250000X0.237500X-0.250000X0.237500X0*%
%ADD21RoundRect,0.140000X-0.170000X0.140000X-0.170000X-0.140000X0.170000X-0.140000X0.170000X0.140000X0*%
%ADD22RoundRect,0.175000X0.425000X-0.175000X0.425000X0.175000X-0.425000X0.175000X-0.425000X-0.175000X0*%
%ADD23RoundRect,0.190000X-0.410000X0.190000X-0.410000X-0.190000X0.410000X-0.190000X0.410000X0.190000X0*%
%ADD24RoundRect,0.200000X-0.400000X0.200000X-0.400000X-0.200000X0.400000X-0.200000X0.400000X0.200000X0*%
%ADD25RoundRect,0.175000X-0.425000X0.175000X-0.425000X-0.175000X0.425000X-0.175000X0.425000X0.175000X0*%
%ADD26RoundRect,0.190000X0.410000X-0.190000X0.410000X0.190000X-0.410000X0.190000X-0.410000X-0.190000X0*%
%ADD27RoundRect,0.200000X0.400000X-0.200000X0.400000X0.200000X-0.400000X0.200000X-0.400000X-0.200000X0*%
%ADD28O,1.700000X1.100000*%
%ADD29RoundRect,0.135000X0.135000X0.185000X-0.135000X0.185000X-0.135000X-0.185000X0.135000X-0.185000X0*%
%ADD30RoundRect,0.250000X-0.337500X-0.475000X0.337500X-0.475000X0.337500X0.475000X-0.337500X0.475000X0*%
%ADD31RoundRect,0.250000X-0.450000X0.350000X-0.450000X-0.350000X0.450000X-0.350000X0.450000X0.350000X0*%
%ADD32RoundRect,0.112500X-0.187500X-0.112500X0.187500X-0.112500X0.187500X0.112500X-0.187500X0.112500X0*%
%ADD33RoundRect,0.250000X-0.350000X-0.450000X0.350000X-0.450000X0.350000X0.450000X-0.350000X0.450000X0*%
%ADD34RoundRect,0.250000X-0.400000X-0.625000X0.400000X-0.625000X0.400000X0.625000X-0.400000X0.625000X0*%
%ADD35R,2.050000X4.300000*%
%ADD36R,3.000000X1.250000*%
%ADD37R,0.600000X1.200000*%
%ADD38RoundRect,0.140000X0.170000X-0.140000X0.170000X0.140000X-0.170000X0.140000X-0.170000X-0.140000X0*%
%ADD39RoundRect,0.250001X2.474999X-0.799999X2.474999X0.799999X-2.474999X0.799999X-2.474999X-0.799999X0*%
%ADD40RoundRect,0.250000X-0.250000X-0.475000X0.250000X-0.475000X0.250000X0.475000X-0.250000X0.475000X0*%
%ADD41RoundRect,0.250000X0.250000X0.475000X-0.250000X0.475000X-0.250000X-0.475000X0.250000X-0.475000X0*%
%ADD42RoundRect,0.135000X0.185000X-0.135000X0.185000X0.135000X-0.185000X0.135000X-0.185000X-0.135000X0*%
%ADD43RoundRect,0.250001X-0.462499X-0.624999X0.462499X-0.624999X0.462499X0.624999X-0.462499X0.624999X0*%
%ADD44RoundRect,0.140000X-0.140000X-0.170000X0.140000X-0.170000X0.140000X0.170000X-0.140000X0.170000X0*%
%ADD45R,0.600000X1.300000*%
%ADD46RoundRect,0.250000X0.650000X-1.000000X0.650000X1.000000X-0.650000X1.000000X-0.650000X-1.000000X0*%
%ADD47RoundRect,0.250000X1.000000X0.650000X-1.000000X0.650000X-1.000000X-0.650000X1.000000X-0.650000X0*%
%ADD48RoundRect,0.250000X0.350000X0.450000X-0.350000X0.450000X-0.350000X-0.450000X0.350000X-0.450000X0*%
%ADD49RoundRect,0.250000X-0.650000X1.000000X-0.650000X-1.000000X0.650000X-1.000000X0.650000X1.000000X0*%
%ADD50RoundRect,0.250000X-0.315000X-0.400000X0.315000X-0.400000X0.315000X0.400000X-0.315000X0.400000X0*%
%ADD51RoundRect,0.075000X-0.362500X-0.075000X0.362500X-0.075000X0.362500X0.075000X-0.362500X0.075000X0*%
%ADD52RoundRect,0.150000X-0.512500X-0.150000X0.512500X-0.150000X0.512500X0.150000X-0.512500X0.150000X0*%
%ADD53RoundRect,0.075000X-0.662500X-0.075000X0.662500X-0.075000X0.662500X0.075000X-0.662500X0.075000X0*%
%ADD54RoundRect,0.075000X-0.075000X-0.662500X0.075000X-0.662500X0.075000X0.662500X-0.075000X0.662500X0*%
%ADD55RoundRect,0.112500X0.187500X0.112500X-0.187500X0.112500X-0.187500X-0.112500X0.187500X-0.112500X0*%
%ADD56RoundRect,0.250000X0.475000X-0.250000X0.475000X0.250000X-0.475000X0.250000X-0.475000X-0.250000X0*%
%ADD57RoundRect,0.150000X0.512500X0.150000X-0.512500X0.150000X-0.512500X-0.150000X0.512500X-0.150000X0*%
%ADD58R,0.850000X0.250000*%
%ADD59R,0.250000X0.850000*%
%ADD60R,1.700000X2.700000*%
G04 APERTURE END LIST*
D10*
G04 #@! TO.C,C10*
X164637500Y-98587500D03*
X164637500Y-96512500D03*
G04 #@! TD*
D11*
G04 #@! TO.C,L1*
X167750000Y-46000000D03*
X177250000Y-46000000D03*
G04 #@! TD*
D12*
G04 #@! TO.C,C29*
X194500000Y-41962500D03*
X194500000Y-44037500D03*
G04 #@! TD*
D13*
G04 #@! TO.C,R11*
X181000000Y-64410000D03*
X181000000Y-62590000D03*
G04 #@! TD*
D14*
G04 #@! TO.C,C13*
X134000000Y-86570000D03*
X134000000Y-88470000D03*
G04 #@! TD*
D15*
G04 #@! TO.C,Y1*
X152695000Y-72787500D03*
X152695000Y-74987500D03*
X154295000Y-74987500D03*
X154295000Y-72787500D03*
G04 #@! TD*
D14*
G04 #@! TO.C,C25*
X195250000Y-109000000D03*
X195250000Y-110900000D03*
G04 #@! TD*
D12*
G04 #@! TO.C,C24*
X194250000Y-102412500D03*
X194250000Y-104487500D03*
G04 #@! TD*
D16*
G04 #@! TO.C,D8*
X205725000Y-34000000D03*
X202750000Y-34000000D03*
G04 #@! TD*
D17*
G04 #@! TO.C,C11*
X167295000Y-81487500D03*
X166295000Y-81487500D03*
G04 #@! TD*
D18*
G04 #@! TO.C,C35*
X184537500Y-115500000D03*
X182462500Y-115500000D03*
G04 #@! TD*
D19*
G04 #@! TO.C,R17*
X144000000Y-50500000D03*
X144000000Y-48500000D03*
G04 #@! TD*
D20*
G04 #@! TO.C,100k1*
X200587500Y-111500000D03*
X202412500Y-111500000D03*
G04 #@! TD*
D21*
G04 #@! TO.C,C8*
X170000000Y-72000000D03*
X170000000Y-73000000D03*
G04 #@! TD*
D22*
G04 #@! TO.C,J9*
X212920000Y-109500000D03*
D23*
X212920000Y-107480000D03*
D24*
X212920000Y-106250000D03*
D25*
X212920000Y-108500000D03*
D26*
X212920000Y-110520000D03*
D27*
X212920000Y-111750000D03*
D28*
X213000000Y-113320000D03*
X216800000Y-113320000D03*
X213000000Y-104680000D03*
X216800000Y-104680000D03*
G04 #@! TD*
D20*
G04 #@! TO.C,FB1*
X156087500Y-86500000D03*
X157912500Y-86500000D03*
G04 #@! TD*
D29*
G04 #@! TO.C,R15*
X160010000Y-59500000D03*
X158990000Y-59500000D03*
G04 #@! TD*
D21*
G04 #@! TO.C,C15*
X157000000Y-76500000D03*
X157000000Y-77500000D03*
G04 #@! TD*
D12*
G04 #@! TO.C,C20*
X150000000Y-56962500D03*
X150000000Y-59037500D03*
G04 #@! TD*
D19*
G04 #@! TO.C,R24*
X204500000Y-50000000D03*
X204500000Y-48000000D03*
G04 #@! TD*
D14*
G04 #@! TO.C,C1*
X146500000Y-114550000D03*
X146500000Y-116450000D03*
G04 #@! TD*
D30*
G04 #@! TO.C,C18*
X123462500Y-50000000D03*
X125537500Y-50000000D03*
G04 #@! TD*
D21*
G04 #@! TO.C,C27*
X197250000Y-108450000D03*
X197250000Y-109450000D03*
G04 #@! TD*
D12*
G04 #@! TO.C,C22*
X189250000Y-102412500D03*
X189250000Y-104487500D03*
G04 #@! TD*
D31*
G04 #@! TO.C,R4*
X161500000Y-119500000D03*
X161500000Y-121500000D03*
G04 #@! TD*
G04 #@! TO.C,R5*
X165000000Y-66500000D03*
X165000000Y-68500000D03*
G04 #@! TD*
D32*
G04 #@! TO.C,D4*
X137950000Y-65500000D03*
X140050000Y-65500000D03*
G04 #@! TD*
D33*
G04 #@! TO.C,R12*
X143000000Y-67000000D03*
X145000000Y-67000000D03*
G04 #@! TD*
D34*
G04 #@! TO.C,R23*
X197450000Y-42000000D03*
X200550000Y-42000000D03*
G04 #@! TD*
D30*
G04 #@! TO.C,C4*
X173462500Y-97500000D03*
X175537500Y-97500000D03*
G04 #@! TD*
D35*
G04 #@! TO.C,C21*
X136000000Y-44600000D03*
X136000000Y-53000000D03*
G04 #@! TD*
D36*
G04 #@! TO.C,J10*
X205620000Y-94000000D03*
X205620000Y-91500000D03*
X205620000Y-89500000D03*
X205620000Y-87000000D03*
G04 #@! TD*
D16*
G04 #@! TO.C,D1*
X176487500Y-86000000D03*
X173512500Y-86000000D03*
G04 #@! TD*
D37*
G04 #@! TO.C,IC2*
X194250000Y-86320000D03*
X193300000Y-86320000D03*
X192350000Y-86320000D03*
X192350000Y-88820000D03*
X193300000Y-88820000D03*
X194250000Y-88820000D03*
G04 #@! TD*
D38*
G04 #@! TO.C,C6*
X156795000Y-75487500D03*
X156795000Y-74487500D03*
G04 #@! TD*
D39*
G04 #@! TO.C,F1*
X141500000Y-86475000D03*
X141500000Y-79525000D03*
G04 #@! TD*
D30*
G04 #@! TO.C,C5*
X160757500Y-67487500D03*
X162832500Y-67487500D03*
G04 #@! TD*
D21*
G04 #@! TO.C,C30*
X202000000Y-45000000D03*
X202000000Y-46000000D03*
G04 #@! TD*
D12*
G04 #@! TO.C,C23*
X191750000Y-102412500D03*
X191750000Y-104487500D03*
G04 #@! TD*
D13*
G04 #@! TO.C,R10*
X177500000Y-64410000D03*
X177500000Y-62590000D03*
G04 #@! TD*
D40*
G04 #@! TO.C,C16*
X158050000Y-88500000D03*
X159950000Y-88500000D03*
G04 #@! TD*
D41*
G04 #@! TO.C,C33*
X192912500Y-91000000D03*
X191012500Y-91000000D03*
G04 #@! TD*
D40*
G04 #@! TO.C,C31*
X200550000Y-94500000D03*
X202450000Y-94500000D03*
G04 #@! TD*
D42*
G04 #@! TO.C,R19*
X201250000Y-103460000D03*
X201250000Y-102440000D03*
G04 #@! TD*
D40*
G04 #@! TO.C,C17*
X123550000Y-54000000D03*
X125450000Y-54000000D03*
G04 #@! TD*
D43*
G04 #@! TO.C,D2*
X156012500Y-98500000D03*
X158987500Y-98500000D03*
G04 #@! TD*
D38*
G04 #@! TO.C,C7*
X159500000Y-71500000D03*
X159500000Y-70500000D03*
G04 #@! TD*
D19*
G04 #@! TO.C,R18*
X155000000Y-50500000D03*
X155000000Y-48500000D03*
G04 #@! TD*
G04 #@! TO.C,R14*
X128500000Y-48000000D03*
X128500000Y-46000000D03*
G04 #@! TD*
D33*
G04 #@! TO.C,R16*
X158500000Y-61500000D03*
X160500000Y-61500000D03*
G04 #@! TD*
D44*
G04 #@! TO.C,C9*
X161295000Y-69487500D03*
X162295000Y-69487500D03*
G04 #@! TD*
D45*
G04 #@! TO.C,Q1*
X138950000Y-69450000D03*
X137050000Y-69450000D03*
X138000000Y-71550000D03*
G04 #@! TD*
D42*
G04 #@! TO.C,R20*
X199750000Y-103460000D03*
X199750000Y-102440000D03*
G04 #@! TD*
D46*
G04 #@! TO.C,D6*
X147500000Y-53000000D03*
X147500000Y-49000000D03*
G04 #@! TD*
G04 #@! TO.C,D7*
X159000000Y-53000000D03*
X159000000Y-49000000D03*
G04 #@! TD*
D47*
G04 #@! TO.C,D5*
X146500000Y-58000000D03*
X142500000Y-58000000D03*
G04 #@! TD*
D48*
G04 #@! TO.C,R22*
X199250000Y-34000000D03*
X197250000Y-34000000D03*
G04 #@! TD*
D38*
G04 #@! TO.C,C3*
X156795000Y-72987500D03*
X156795000Y-71987500D03*
G04 #@! TD*
D49*
G04 #@! TO.C,D10*
X197500000Y-89500000D03*
X197500000Y-93500000D03*
G04 #@! TD*
D31*
G04 #@! TO.C,R6*
X156000000Y-101000000D03*
X156000000Y-103000000D03*
G04 #@! TD*
D35*
G04 #@! TO.C,C28*
X186500000Y-42300000D03*
X186500000Y-50700000D03*
G04 #@! TD*
D19*
G04 #@! TO.C,R25*
X204500000Y-54500000D03*
X204500000Y-52500000D03*
G04 #@! TD*
D48*
G04 #@! TO.C,R3*
X171000000Y-86000000D03*
X169000000Y-86000000D03*
G04 #@! TD*
D50*
G04 #@! TO.C,U3*
X153840000Y-57500000D03*
X153840000Y-59000000D03*
X155140000Y-57500000D03*
X155140000Y-59000000D03*
D51*
X152552500Y-56650000D03*
X152552500Y-57450000D03*
X152552500Y-58250000D03*
X152552500Y-59050000D03*
X152552500Y-59850000D03*
X156427500Y-59850000D03*
X156427500Y-59050000D03*
X156427500Y-58250000D03*
X156427500Y-57450000D03*
X156427500Y-56650000D03*
G04 #@! TD*
D52*
G04 #@! TO.C,U4*
X197862500Y-45050000D03*
X197862500Y-46000000D03*
X197862500Y-46950000D03*
X200137500Y-46950000D03*
X200137500Y-45050000D03*
G04 #@! TD*
D48*
G04 #@! TO.C,R13*
X125500000Y-46000000D03*
X123500000Y-46000000D03*
G04 #@! TD*
D53*
G04 #@! TO.C,U2*
X159837500Y-72750000D03*
X159837500Y-73250000D03*
X159837500Y-73750000D03*
X159837500Y-74250000D03*
X159837500Y-74750000D03*
X159837500Y-75250000D03*
X159837500Y-75750000D03*
X159837500Y-76250000D03*
X159837500Y-76750000D03*
X159837500Y-77250000D03*
X159837500Y-77750000D03*
X159837500Y-78250000D03*
D54*
X161250000Y-79662500D03*
X161750000Y-79662500D03*
X162250000Y-79662500D03*
X162750000Y-79662500D03*
X163250000Y-79662500D03*
X163750000Y-79662500D03*
X164250000Y-79662500D03*
X164750000Y-79662500D03*
X165250000Y-79662500D03*
X165750000Y-79662500D03*
X166250000Y-79662500D03*
X166750000Y-79662500D03*
D53*
X168162500Y-78250000D03*
X168162500Y-77750000D03*
X168162500Y-77250000D03*
X168162500Y-76750000D03*
X168162500Y-76250000D03*
X168162500Y-75750000D03*
X168162500Y-75250000D03*
X168162500Y-74750000D03*
X168162500Y-74250000D03*
X168162500Y-73750000D03*
X168162500Y-73250000D03*
X168162500Y-72750000D03*
D54*
X166750000Y-71337500D03*
X166250000Y-71337500D03*
X165750000Y-71337500D03*
X165250000Y-71337500D03*
X164750000Y-71337500D03*
X164250000Y-71337500D03*
X163750000Y-71337500D03*
X163250000Y-71337500D03*
X162750000Y-71337500D03*
X162250000Y-71337500D03*
X161750000Y-71337500D03*
X161250000Y-71337500D03*
G04 #@! TD*
D55*
G04 #@! TO.C,D3*
X145050000Y-75000000D03*
X142950000Y-75000000D03*
G04 #@! TD*
D42*
G04 #@! TO.C,R21*
X198250000Y-103460000D03*
X198250000Y-102440000D03*
G04 #@! TD*
D56*
G04 #@! TO.C,C32*
X210000000Y-106950000D03*
X210000000Y-105050000D03*
G04 #@! TD*
D13*
G04 #@! TO.C,R7*
X167500000Y-64410000D03*
X167500000Y-62590000D03*
G04 #@! TD*
D57*
G04 #@! TO.C,U1*
X169275000Y-98500000D03*
X169275000Y-97550000D03*
X169275000Y-96600000D03*
X167000000Y-96600000D03*
X167000000Y-98500000D03*
G04 #@! TD*
D40*
G04 #@! TO.C,C14*
X156050000Y-82000000D03*
X157950000Y-82000000D03*
G04 #@! TD*
D41*
G04 #@! TO.C,C2*
X137450000Y-104000000D03*
X135550000Y-104000000D03*
G04 #@! TD*
D31*
G04 #@! TO.C,R2*
X159000000Y-119500000D03*
X159000000Y-121500000D03*
G04 #@! TD*
D46*
G04 #@! TO.C,D9*
X197500000Y-86000000D03*
X197500000Y-82000000D03*
G04 #@! TD*
D14*
G04 #@! TO.C,C19*
X139500000Y-58050000D03*
X139500000Y-59950000D03*
G04 #@! TD*
D31*
G04 #@! TO.C,R1*
X153000000Y-78000000D03*
X153000000Y-80000000D03*
G04 #@! TD*
D41*
G04 #@! TO.C,C26*
X196200000Y-106450000D03*
X194300000Y-106450000D03*
G04 #@! TD*
D58*
G04 #@! TO.C,IC1*
X198550000Y-106250000D03*
X198550000Y-106750000D03*
X198550000Y-107250000D03*
X198550000Y-107750000D03*
X198550000Y-108250000D03*
X198550000Y-108750000D03*
D59*
X199250000Y-109450000D03*
X199750000Y-109450000D03*
X200250000Y-109450000D03*
X200750000Y-109450000D03*
D58*
X201450000Y-108750000D03*
X201450000Y-108250000D03*
X201450000Y-107750000D03*
X201450000Y-107250000D03*
X201450000Y-106750000D03*
X201450000Y-106250000D03*
D59*
X200750000Y-105550000D03*
X200250000Y-105550000D03*
X199750000Y-105550000D03*
X199250000Y-105550000D03*
D60*
X200000000Y-107500000D03*
G04 #@! TD*
D13*
G04 #@! TO.C,R9*
X174000000Y-64410000D03*
X174000000Y-62590000D03*
G04 #@! TD*
D40*
G04 #@! TO.C,C12*
X156050000Y-84500000D03*
X157950000Y-84500000D03*
G04 #@! TD*
D13*
G04 #@! TO.C,R8*
X171000000Y-64410000D03*
X171000000Y-62590000D03*
G04 #@! TD*
D30*
G04 #@! TO.C,C34*
X155962500Y-38000000D03*
X158037500Y-38000000D03*
G04 #@! TD*
M02*
