M48
; DRILL file {KiCad 9.0.6-9.0.6~ubuntu22.04.1} date 2025-11-28T11:55:00+0100
; FORMAT={-:-/ absolute / metric / decimal}
; #@! TF.CreationDate,2025-11-28T11:55:00+01:00
; #@! TF.GenerationSoftware,Kicad,Pcbnew,9.0.6-9.0.6~ubuntu22.04.1
; #@! TF.FileFunction,Plated,1,4,PTH
FMAT,2
METRIC
; #@! TA.AperFunction,Plated,PTH,ViaDrill
T1C0.300
; #@! TA.AperFunction,Plated,PTH,ComponentDrill
T2C0.300
; #@! TA.AperFunction,Plated,PTH,ComponentDrill
T3C0.600
; #@! TA.AperFunction,Plated,PTH,ComponentDrill
T4C1.000
; #@! TA.AperFunction,Plated,PTH,ComponentDrill
T5C1.100
; #@! TA.AperFunction,Plated,PTH,ComponentDrill
T6C1.200
; #@! TA.AperFunction,Plated,PTH,ComponentDrill
T7C1.300
; #@! TA.AperFunction,Plated,PTH,ComponentDrill
T8C1.680
; #@! TA.AperFunction,Plated,PTH,ComponentDrill
T9C2.300
%
G90
G05
T1
X122.5Y-35.0
X122.5Y-40.0
X122.5Y-60.0
X122.5Y-62.5
X122.5Y-65.0
X122.5Y-70.0
X122.5Y-72.5
X122.5Y-75.0
X122.5Y-95.0
X122.5Y-100.0
X122.5Y-105.0
X122.5Y-110.0
X122.5Y-115.0
X122.5Y-120.0
X125.0Y-35.0
X125.0Y-40.0
X125.0Y-60.0
X125.0Y-62.5
X125.0Y-75.0
X125.0Y-95.0
X125.0Y-100.0
X125.0Y-105.0
X125.0Y-110.0
X125.0Y-115.0
X125.0Y-120.0
X127.0Y-47.0
X127.5Y-30.0
X127.5Y-35.0
X127.5Y-40.0
X127.5Y-52.5
X127.5Y-55.0
X127.5Y-60.0
X127.5Y-62.5
X127.5Y-65.0
X127.5Y-67.5
X127.5Y-70.0
X127.5Y-75.0
X127.5Y-95.0
X127.5Y-100.0
X127.5Y-105.0
X127.5Y-110.0
X127.5Y-125.0
X130.0Y-30.0
X130.0Y-35.0
X130.0Y-40.0
X130.0Y-50.0
X130.0Y-52.5
X130.0Y-62.5
X130.0Y-85.0
X130.0Y-95.0
X130.0Y-100.0
X130.0Y-105.0
X130.0Y-110.0
X130.0Y-125.0
X132.5Y-30.0
X132.5Y-35.0
X132.5Y-40.0
X132.5Y-45.0
X132.5Y-47.5
X132.5Y-50.0
X132.5Y-52.5
X132.5Y-57.5
X132.5Y-65.0
X132.5Y-67.5
X132.5Y-70.0
X132.5Y-72.5
X132.5Y-75.0
X132.5Y-77.5
X132.5Y-82.5
X132.5Y-85.0
X132.5Y-87.5
X132.5Y-90.0
X132.5Y-95.0
X132.5Y-105.0
X132.5Y-110.0
X132.5Y-112.5
X132.5Y-120.0
X132.5Y-125.0
X135.0Y-30.0
X135.0Y-35.0
X135.0Y-47.5
X135.0Y-50.0
X135.0Y-60.0
X135.0Y-67.5
X135.0Y-70.0
X135.0Y-72.5
X135.0Y-75.0
X135.0Y-77.5
X135.0Y-90.0
X135.0Y-95.0
X135.0Y-100.0
X135.0Y-110.0
X135.0Y-112.5
X135.0Y-115.0
X135.0Y-117.5
X135.0Y-120.0
X135.0Y-125.0
X137.5Y-30.0
X137.5Y-35.0
X137.5Y-40.0
X137.5Y-57.0
X137.5Y-58.0
X137.5Y-59.0
X137.5Y-62.5
X137.5Y-80.0
X137.5Y-82.5
X137.5Y-110.0
X137.5Y-112.5
X137.5Y-115.0
X137.5Y-117.5
X137.5Y-120.0
X137.5Y-125.0
X140.0Y-30.0
X140.0Y-35.0
X140.0Y-45.0
X140.0Y-47.5
X140.0Y-50.0
X140.0Y-52.5
X140.0Y-55.0
X140.0Y-72.5
X140.0Y-82.5
X140.0Y-92.5
X140.0Y-95.0
X140.0Y-110.0
X140.0Y-112.5
X140.0Y-120.0
X140.0Y-125.0
X142.5Y-30.0
X142.5Y-35.0
X142.5Y-45.0
X142.5Y-47.5
X142.5Y-50.0
X142.5Y-55.0
X142.5Y-65.0
X142.5Y-70.0
X142.5Y-72.5
X142.5Y-82.5
X142.5Y-90.0
X142.5Y-92.5
X142.5Y-110.0
X142.5Y-125.0
X145.0Y-30.0
X145.0Y-40.0
X145.0Y-55.0
X145.0Y-65.0
X145.0Y-70.0
X145.0Y-72.5
X145.0Y-77.5
X145.0Y-80.0
X145.0Y-90.0
X145.0Y-105.0
X145.0Y-110.0
X145.0Y-120.0
X145.0Y-125.0
X146.5Y-91.0
X146.5Y-94.5
X147.5Y-37.5
X147.5Y-40.0
X147.5Y-55.0
X147.5Y-65.0
X147.5Y-67.5
X147.5Y-70.0
X147.5Y-72.5
X147.5Y-75.0
X147.5Y-77.5
X147.5Y-85.0
X147.5Y-87.5
X147.5Y-120.0
X147.5Y-125.0
X148.5Y-59.0
X150.0Y-37.5
X150.0Y-40.0
X150.0Y-47.5
X150.0Y-50.0
X150.0Y-52.5
X150.0Y-65.0
X150.0Y-67.5
X150.0Y-70.0
X150.0Y-72.5
X150.0Y-75.0
X150.0Y-82.5
X150.0Y-95.0
X150.0Y-100.0
X150.0Y-105.0
X150.0Y-110.0
X150.0Y-115.0
X150.0Y-120.0
X150.0Y-125.0
X151.257Y-58.166
X152.5Y-37.5
X152.5Y-40.0
X152.5Y-47.5
X152.5Y-50.0
X152.5Y-55.0
X152.5Y-65.0
X152.5Y-67.5
X152.5Y-70.0
X152.5Y-95.0
X152.5Y-100.0
X152.5Y-105.0
X152.5Y-110.0
X152.5Y-115.0
X152.5Y-120.0
X152.5Y-125.0
X155.0Y-55.0
X155.0Y-65.0
X155.0Y-67.5
X155.0Y-70.0
X155.0Y-77.0
X155.0Y-95.0
X155.0Y-105.0
X155.0Y-110.0
X155.0Y-115.0
X156.083Y-73.914
X156.972Y-78.359
X157.0Y-121.5
X157.5Y-65.0
X157.5Y-67.5
X157.5Y-80.0
X157.721Y-73.266
X157.737Y-70.358
X157.76Y-72.335
X157.988Y-77.25
X158.05Y-75.87
X158.25Y-78.25
X158.369Y-73.914
X159.131Y-68.834
X159.5Y-80.0
X160.0Y-37.5
X160.0Y-55.0
X160.0Y-57.5
X160.0Y-65.0
X160.0Y-82.5
X160.0Y-85.0
X160.0Y-102.5
X160.0Y-105.0
X160.0Y-107.5
X160.0Y-110.0
X160.0Y-112.5
X160.0Y-115.0
X161.5Y-81.0
X161.544Y-76.2
X162.306Y-78.486
X162.433Y-81.674
X162.5Y-32.5
X162.5Y-35.0
X162.5Y-37.5
X162.5Y-47.5
X162.5Y-50.0
X162.5Y-52.5
X162.5Y-55.0
X162.5Y-57.5
X162.5Y-65.0
X162.5Y-96.0
X163.223Y-82.804
X163.5Y-121.5
X164.0Y-83.439
X164.5Y-58.5
X164.5Y-65.0
X164.719Y-88.773
X164.719Y-94.869
X165.0Y-32.5
X165.0Y-35.0
X165.0Y-47.5
X165.0Y-50.0
X165.0Y-52.5
X165.0Y-55.0
X165.0Y-102.5
X165.0Y-107.5
X165.0Y-112.5
X165.0Y-117.5
X165.566Y-89.566
X165.989Y-74.93
X166.37Y-78.105
X166.762Y-74.052
X167.5Y-30.0
X167.5Y-40.0
X167.5Y-52.5
X167.5Y-66.5
X167.5Y-83.0
X167.5Y-86.0
X167.5Y-95.0
X167.5Y-102.5
X167.5Y-107.5
X167.5Y-112.5
X167.5Y-117.5
X167.5Y-122.5
X167.5Y-125.0
X167.843Y-70.343
X168.275Y-69.5
X168.5Y-61.0
X169.291Y-67.818
X170.0Y-30.0
X170.0Y-40.0
X170.0Y-52.5
X170.0Y-68.5
X170.0Y-80.0
X170.0Y-102.5
X170.0Y-107.5
X170.0Y-112.5
X170.0Y-117.5
X170.0Y-122.5
X170.0Y-125.0
X170.815Y-77.089
X170.942Y-97.549
X171.676Y-68.511
X172.0Y-72.5
X172.5Y-30.0
X172.5Y-40.0
X172.5Y-42.5
X172.5Y-45.0
X172.5Y-47.5
X172.5Y-50.0
X172.5Y-52.5
X172.5Y-107.5
X172.5Y-112.5
X172.5Y-117.5
X172.5Y-122.5
X172.5Y-125.0
X172.72Y-67.818
X173.101Y-69.723
X173.101Y-72.898
X173.228Y-74.93
X173.5Y-61.0
X173.736Y-75.819
X173.876Y-72.376
X174.0Y-66.5
X174.214Y-83.215
X174.5Y-77.0
X175.0Y-30.0
X175.0Y-40.0
X175.0Y-52.5
X175.0Y-95.0
X175.0Y-107.5
X175.0Y-112.5
X175.0Y-117.5
X175.0Y-122.5
X175.0Y-125.0
X175.5Y-83.5
X176.5Y-78.0
X176.657Y-76.835
X176.708Y-83.792
X177.5Y-30.0
X177.5Y-32.5
X177.5Y-40.0
X177.5Y-52.5
X177.5Y-66.5
X177.5Y-95.0
X177.5Y-97.5
X177.5Y-100.0
X177.5Y-107.5
X177.5Y-112.5
X177.5Y-117.5
X177.5Y-120.0
X177.5Y-125.0
X178.0Y-61.0
X178.268Y-72.731
X179.0Y-70.5
X179.5Y-95.5
X180.0Y-30.0
X180.0Y-32.5
X180.0Y-35.0
X180.0Y-40.0
X180.0Y-50.0
X180.0Y-52.5
X180.0Y-97.5
X180.0Y-100.0
X180.0Y-107.5
X180.0Y-112.5
X180.0Y-117.5
X180.0Y-125.0
X181.0Y-66.5
X182.5Y-30.0
X182.5Y-32.5
X182.5Y-37.5
X182.5Y-40.0
X182.5Y-45.0
X182.5Y-47.5
X182.5Y-50.0
X182.5Y-52.5
X182.5Y-72.5
X182.5Y-92.5
X182.5Y-107.5
X182.5Y-112.5
X182.5Y-120.0
X182.5Y-122.5
X182.5Y-125.0
X182.5Y-125.0
X183.134Y-62.23
X183.388Y-101.346
X184.5Y-112.5
X185.0Y-30.0
X185.0Y-35.0
X185.0Y-37.5
X185.0Y-47.5
X185.0Y-95.0
X185.0Y-111.5
X185.0Y-125.0
X186.0Y-111.5
X186.5Y-112.5
X187.5Y-32.5
X187.5Y-35.0
X187.5Y-47.5
X187.5Y-117.5
X187.5Y-120.0
X187.5Y-122.5
X187.5Y-125.0
X190.0Y-32.5
X190.0Y-35.0
X190.0Y-45.0
X190.0Y-47.5
X190.0Y-50.0
X190.0Y-52.5
X190.0Y-67.5
X190.0Y-72.5
X190.0Y-75.0
X190.0Y-125.0
X191.262Y-108.966
X192.5Y-32.5
X192.5Y-35.0
X192.5Y-37.5
X192.5Y-45.0
X192.5Y-47.5
X192.5Y-50.0
X192.5Y-52.5
X192.5Y-115.0
X192.5Y-125.0
X192.51Y-110.05
X192.913Y-61.0
X194.945Y-94.615
X195.0Y-32.5
X195.0Y-35.0
X195.0Y-37.5
X195.0Y-67.5
X195.0Y-115.0
X195.0Y-117.5
X195.0Y-125.0
X195.072Y-90.424
X195.072Y-95.631
X195.834Y-96.393
X196.125Y-72.5
X196.625Y-45.974
X196.85Y-96.393
X197.0Y-73.533
X197.297Y-110.297
X197.43Y-43.87
X197.5Y-32.5
X197.5Y-37.5
X197.5Y-52.5
X197.5Y-55.0
X197.5Y-60.0
X197.5Y-69.469
X197.5Y-115.0
X197.5Y-117.5
X197.5Y-125.0
X197.993Y-96.393
X198.048Y-112.048
X198.157Y-104.357
X198.236Y-110.86
X199.136Y-96.393
X199.25Y-104.25
X200.0Y-32.5
X200.0Y-37.5
X200.0Y-50.0
X200.0Y-52.5
X200.0Y-57.5
X200.0Y-60.0
X200.0Y-72.5
X200.0Y-75.0
X200.0Y-85.0
X200.0Y-107.5
X200.0Y-115.0
X200.0Y-117.5
X200.0Y-125.0
X200.279Y-96.393
X200.419Y-104.28
X202.311Y-47.117
X202.5Y-32.5
X202.5Y-37.5
X202.5Y-40.0
X202.5Y-85.0
X202.5Y-87.5
X202.5Y-105.0
X202.5Y-115.0
X202.5Y-117.5
X202.5Y-125.0
X202.9Y-44.958
X205.0Y-32.5
X205.0Y-37.5
X205.0Y-40.0
X205.0Y-115.0
X205.0Y-117.5
X205.0Y-125.0
X207.5Y-32.5
X207.5Y-35.0
X207.5Y-37.5
X207.5Y-40.0
X207.5Y-45.0
X207.5Y-47.5
X207.5Y-50.0
X207.5Y-100.0
X207.5Y-110.0
X207.5Y-115.0
X207.5Y-125.0
X208.0Y-53.0
X208.5Y-52.5
X209.0Y-52.0
X209.3Y-83.93
X209.3Y-97.07
X209.5Y-51.5
X210.0Y-47.5
X210.0Y-65.0
X210.0Y-70.0
X210.0Y-75.0
X210.0Y-80.0
X210.0Y-87.5
X210.0Y-90.0
X210.0Y-92.5
X210.0Y-95.0
X210.0Y-100.0
X210.0Y-115.0
X210.0Y-125.0
X212.5Y-30.0
X212.5Y-40.0
X212.5Y-65.0
X212.5Y-70.0
X212.5Y-75.0
X212.5Y-80.0
X212.5Y-85.0
X212.5Y-87.5
X212.5Y-90.0
X212.5Y-92.5
X212.5Y-95.0
X212.5Y-115.0
X214.0Y-37.5
X215.0Y-40.0
X215.0Y-47.5
X215.0Y-102.5
X215.0Y-107.5
X215.0Y-110.0
X215.0Y-112.5
X215.0Y-115.0
X217.5Y-30.0
X217.5Y-32.5
X217.5Y-47.5
X217.5Y-97.5
X217.5Y-100.0
X217.5Y-102.5
X217.5Y-107.5
X217.5Y-110.0
X217.5Y-115.0
X217.5Y-117.5
X217.5Y-120.0
X217.5Y-122.5
X217.5Y-125.0
T2
X153.99Y-57.75
X153.99Y-58.75
X154.99Y-57.75
X154.99Y-58.75
T4
X156.42Y-124.5
X158.96Y-124.5
X161.5Y-124.5
X164.04Y-124.5
X166.42Y-91.5
X167.68Y-33.025
X168.96Y-91.5
X169.0Y-58.5
X170.22Y-33.025
X171.5Y-91.5
X171.54Y-58.5
X172.76Y-33.025
X174.04Y-91.5
X174.08Y-58.5
X175.3Y-33.025
X176.62Y-58.5
X179.16Y-58.5
X181.7Y-58.5
X184.24Y-58.5
X186.5Y-66.46
X186.5Y-69.0
X186.5Y-71.54
X186.5Y-74.08
X186.5Y-80.46
X186.5Y-83.0
X186.5Y-85.54
X186.5Y-88.08
X186.78Y-58.5
X189.32Y-58.5
X191.86Y-58.5
X193.025Y-72.7
X193.025Y-75.24
X193.025Y-77.78
X193.025Y-80.32
X203.0Y-58.84
X203.0Y-61.38
X203.0Y-63.92
X203.0Y-66.46
X203.0Y-69.0
X203.0Y-71.54
X203.0Y-74.08
X203.0Y-76.62
X203.0Y-79.16
X203.0Y-81.7
X207.92Y-119.0
X210.46Y-119.0
X213.0Y-119.0
X214.525Y-51.75
X214.525Y-54.25
X215.54Y-119.0
T5
X145.46Y-45.45
X148.0Y-45.45
X150.54Y-45.45
X156.96Y-45.45
X159.5Y-45.45
X162.04Y-45.45
T6
X130.0Y-113.037
X130.0Y-118.037
X142.5Y-113.037
X142.5Y-118.037
X148.5Y-33.0
X152.0Y-33.0
X155.5Y-33.0
X159.0Y-33.0
T7
X126.5Y-79.5
X126.5Y-84.5
X180.0Y-121.5
X185.0Y-121.5
X190.0Y-121.5
X195.0Y-121.5
X214.0Y-37.5
X214.0Y-42.5
T8
X131.8Y-98.0
X136.5Y-98.0
X141.2Y-98.0
T9
X209.3Y-83.93
X209.3Y-97.07
T3
G00X212.7Y-104.68
M15
G01X213.3Y-104.68
M16
G05
G00X212.7Y-113.32
M15
G01X213.3Y-113.32
M16
G05
G00X216.5Y-104.68
M15
G01X217.1Y-104.68
M16
G05
G00X216.5Y-113.32
M15
G01X217.1Y-113.32
M16
G05
T4
G00X124.0Y-66.4
M15
G01X124.0Y-68.6
M16
G05
G00X128.5Y-72.3
M15
G01X126.3Y-72.3
M16
G05
G00X130.3Y-66.2
M15
G01X130.3Y-68.8
M16
G05
M30
