%TF.GenerationSoftware,KiCad,Pcbnew,9.0.6-9.0.6~ubuntu22.04.1*%
%TF.CreationDate,2025-11-28T11:55:00+01:00*%
%TF.ProjectId,OZE_PowerBank,4f5a455f-506f-4776-9572-42616e6b2e6b,rev?*%
%TF.SameCoordinates,Original*%
%TF.FileFunction,Drillmap*%
%TF.FilePolarity,Positive*%
%FSLAX45Y45*%
G04 Gerber Fmt 4.5, Leading zero omitted, Abs format (unit mm)*
G04 Created by KiCad (PCBNEW 9.0.6-9.0.6~ubuntu22.04.1) date 2025-11-28 11:55:00*
%MOMM*%
%LPD*%
G01*
G04 APERTURE LIST*
%ADD10C,0.050000*%
%ADD11C,0.200000*%
%ADD12C,0.220000*%
G04 APERTURE END LIST*
D10*
X11900000Y-2775000D02*
X21900000Y-2775000D01*
X21900000Y-12775000D01*
X11900000Y-12775000D01*
X11900000Y-2775000D01*
D11*
D12*
X12240000Y-12290000D02*
X12460000Y-12510000D01*
X12460000Y-12290000D02*
X12240000Y-12510000D01*
X12290000Y-3040000D02*
X12510000Y-3260000D01*
X12510000Y-3040000D02*
X12290000Y-3260000D01*
X21340000Y-3040000D02*
X21560000Y-3260000D01*
X21560000Y-3040000D02*
X21340000Y-3260000D01*
X21340000Y-12290000D02*
X21560000Y-12510000D01*
X21560000Y-12290000D02*
X21340000Y-12510000D01*
D11*
X12158277Y-13088984D02*
X12158277Y-12888984D01*
X12158277Y-12888984D02*
X12205896Y-12888984D01*
X12205896Y-12888984D02*
X12234467Y-12898508D01*
X12234467Y-12898508D02*
X12253515Y-12917555D01*
X12253515Y-12917555D02*
X12263039Y-12936603D01*
X12263039Y-12936603D02*
X12272562Y-12974698D01*
X12272562Y-12974698D02*
X12272562Y-13003269D01*
X12272562Y-13003269D02*
X12263039Y-13041365D01*
X12263039Y-13041365D02*
X12253515Y-13060412D01*
X12253515Y-13060412D02*
X12234467Y-13079460D01*
X12234467Y-13079460D02*
X12205896Y-13088984D01*
X12205896Y-13088984D02*
X12158277Y-13088984D01*
X12358277Y-13088984D02*
X12358277Y-12955650D01*
X12358277Y-12993746D02*
X12367801Y-12974698D01*
X12367801Y-12974698D02*
X12377324Y-12965174D01*
X12377324Y-12965174D02*
X12396372Y-12955650D01*
X12396372Y-12955650D02*
X12415420Y-12955650D01*
X12482086Y-13088984D02*
X12482086Y-12955650D01*
X12482086Y-12888984D02*
X12472562Y-12898508D01*
X12472562Y-12898508D02*
X12482086Y-12908031D01*
X12482086Y-12908031D02*
X12491610Y-12898508D01*
X12491610Y-12898508D02*
X12482086Y-12888984D01*
X12482086Y-12888984D02*
X12482086Y-12908031D01*
X12605896Y-13088984D02*
X12586848Y-13079460D01*
X12586848Y-13079460D02*
X12577324Y-13060412D01*
X12577324Y-13060412D02*
X12577324Y-12888984D01*
X12710658Y-13088984D02*
X12691610Y-13079460D01*
X12691610Y-13079460D02*
X12682086Y-13060412D01*
X12682086Y-13060412D02*
X12682086Y-12888984D01*
X12939229Y-13088984D02*
X12939229Y-12888984D01*
X12939229Y-12888984D02*
X13005896Y-13031841D01*
X13005896Y-13031841D02*
X13072562Y-12888984D01*
X13072562Y-12888984D02*
X13072562Y-13088984D01*
X13253515Y-13088984D02*
X13253515Y-12984222D01*
X13253515Y-12984222D02*
X13243991Y-12965174D01*
X13243991Y-12965174D02*
X13224943Y-12955650D01*
X13224943Y-12955650D02*
X13186848Y-12955650D01*
X13186848Y-12955650D02*
X13167801Y-12965174D01*
X13253515Y-13079460D02*
X13234467Y-13088984D01*
X13234467Y-13088984D02*
X13186848Y-13088984D01*
X13186848Y-13088984D02*
X13167801Y-13079460D01*
X13167801Y-13079460D02*
X13158277Y-13060412D01*
X13158277Y-13060412D02*
X13158277Y-13041365D01*
X13158277Y-13041365D02*
X13167801Y-13022317D01*
X13167801Y-13022317D02*
X13186848Y-13012793D01*
X13186848Y-13012793D02*
X13234467Y-13012793D01*
X13234467Y-13012793D02*
X13253515Y-13003269D01*
X13348753Y-12955650D02*
X13348753Y-13155650D01*
X13348753Y-12965174D02*
X13367801Y-12955650D01*
X13367801Y-12955650D02*
X13405896Y-12955650D01*
X13405896Y-12955650D02*
X13424943Y-12965174D01*
X13424943Y-12965174D02*
X13434467Y-12974698D01*
X13434467Y-12974698D02*
X13443991Y-12993746D01*
X13443991Y-12993746D02*
X13443991Y-13050888D01*
X13443991Y-13050888D02*
X13434467Y-13069936D01*
X13434467Y-13069936D02*
X13424943Y-13079460D01*
X13424943Y-13079460D02*
X13405896Y-13088984D01*
X13405896Y-13088984D02*
X13367801Y-13088984D01*
X13367801Y-13088984D02*
X13348753Y-13079460D01*
X13529705Y-13069936D02*
X13539229Y-13079460D01*
X13539229Y-13079460D02*
X13529705Y-13088984D01*
X13529705Y-13088984D02*
X13520182Y-13079460D01*
X13520182Y-13079460D02*
X13529705Y-13069936D01*
X13529705Y-13069936D02*
X13529705Y-13088984D01*
X13529705Y-12965174D02*
X13539229Y-12974698D01*
X13539229Y-12974698D02*
X13529705Y-12984222D01*
X13529705Y-12984222D02*
X13520182Y-12974698D01*
X13520182Y-12974698D02*
X13529705Y-12965174D01*
X13529705Y-12965174D02*
X13529705Y-12984222D01*
X11697500Y-13317500D02*
X11897500Y-13517500D01*
X11897500Y-13317500D02*
X11697500Y-13517500D01*
X12148753Y-13328031D02*
X12158277Y-13318508D01*
X12158277Y-13318508D02*
X12177324Y-13308984D01*
X12177324Y-13308984D02*
X12224943Y-13308984D01*
X12224943Y-13308984D02*
X12243991Y-13318508D01*
X12243991Y-13318508D02*
X12253515Y-13328031D01*
X12253515Y-13328031D02*
X12263039Y-13347079D01*
X12263039Y-13347079D02*
X12263039Y-13366127D01*
X12263039Y-13366127D02*
X12253515Y-13394698D01*
X12253515Y-13394698D02*
X12139229Y-13508984D01*
X12139229Y-13508984D02*
X12263039Y-13508984D01*
X12348753Y-13489936D02*
X12358277Y-13499460D01*
X12358277Y-13499460D02*
X12348753Y-13508984D01*
X12348753Y-13508984D02*
X12339229Y-13499460D01*
X12339229Y-13499460D02*
X12348753Y-13489936D01*
X12348753Y-13489936D02*
X12348753Y-13508984D01*
X12434467Y-13328031D02*
X12443991Y-13318508D01*
X12443991Y-13318508D02*
X12463039Y-13308984D01*
X12463039Y-13308984D02*
X12510658Y-13308984D01*
X12510658Y-13308984D02*
X12529705Y-13318508D01*
X12529705Y-13318508D02*
X12539229Y-13328031D01*
X12539229Y-13328031D02*
X12548753Y-13347079D01*
X12548753Y-13347079D02*
X12548753Y-13366127D01*
X12548753Y-13366127D02*
X12539229Y-13394698D01*
X12539229Y-13394698D02*
X12424943Y-13508984D01*
X12424943Y-13508984D02*
X12548753Y-13508984D01*
X12672562Y-13308984D02*
X12691610Y-13308984D01*
X12691610Y-13308984D02*
X12710658Y-13318508D01*
X12710658Y-13318508D02*
X12720182Y-13328031D01*
X12720182Y-13328031D02*
X12729705Y-13347079D01*
X12729705Y-13347079D02*
X12739229Y-13385174D01*
X12739229Y-13385174D02*
X12739229Y-13432793D01*
X12739229Y-13432793D02*
X12729705Y-13470888D01*
X12729705Y-13470888D02*
X12720182Y-13489936D01*
X12720182Y-13489936D02*
X12710658Y-13499460D01*
X12710658Y-13499460D02*
X12691610Y-13508984D01*
X12691610Y-13508984D02*
X12672562Y-13508984D01*
X12672562Y-13508984D02*
X12653515Y-13499460D01*
X12653515Y-13499460D02*
X12643991Y-13489936D01*
X12643991Y-13489936D02*
X12634467Y-13470888D01*
X12634467Y-13470888D02*
X12624943Y-13432793D01*
X12624943Y-13432793D02*
X12624943Y-13385174D01*
X12624943Y-13385174D02*
X12634467Y-13347079D01*
X12634467Y-13347079D02*
X12643991Y-13328031D01*
X12643991Y-13328031D02*
X12653515Y-13318508D01*
X12653515Y-13318508D02*
X12672562Y-13308984D01*
X12863039Y-13308984D02*
X12882086Y-13308984D01*
X12882086Y-13308984D02*
X12901134Y-13318508D01*
X12901134Y-13318508D02*
X12910658Y-13328031D01*
X12910658Y-13328031D02*
X12920182Y-13347079D01*
X12920182Y-13347079D02*
X12929705Y-13385174D01*
X12929705Y-13385174D02*
X12929705Y-13432793D01*
X12929705Y-13432793D02*
X12920182Y-13470888D01*
X12920182Y-13470888D02*
X12910658Y-13489936D01*
X12910658Y-13489936D02*
X12901134Y-13499460D01*
X12901134Y-13499460D02*
X12882086Y-13508984D01*
X12882086Y-13508984D02*
X12863039Y-13508984D01*
X12863039Y-13508984D02*
X12843991Y-13499460D01*
X12843991Y-13499460D02*
X12834467Y-13489936D01*
X12834467Y-13489936D02*
X12824943Y-13470888D01*
X12824943Y-13470888D02*
X12815420Y-13432793D01*
X12815420Y-13432793D02*
X12815420Y-13385174D01*
X12815420Y-13385174D02*
X12824943Y-13347079D01*
X12824943Y-13347079D02*
X12834467Y-13328031D01*
X12834467Y-13328031D02*
X12843991Y-13318508D01*
X12843991Y-13318508D02*
X12863039Y-13308984D01*
X13015420Y-13508984D02*
X13015420Y-13375650D01*
X13015420Y-13394698D02*
X13024943Y-13385174D01*
X13024943Y-13385174D02*
X13043991Y-13375650D01*
X13043991Y-13375650D02*
X13072563Y-13375650D01*
X13072563Y-13375650D02*
X13091610Y-13385174D01*
X13091610Y-13385174D02*
X13101134Y-13404222D01*
X13101134Y-13404222D02*
X13101134Y-13508984D01*
X13101134Y-13404222D02*
X13110658Y-13385174D01*
X13110658Y-13385174D02*
X13129705Y-13375650D01*
X13129705Y-13375650D02*
X13158277Y-13375650D01*
X13158277Y-13375650D02*
X13177324Y-13385174D01*
X13177324Y-13385174D02*
X13186848Y-13404222D01*
X13186848Y-13404222D02*
X13186848Y-13508984D01*
X13282086Y-13508984D02*
X13282086Y-13375650D01*
X13282086Y-13394698D02*
X13291610Y-13385174D01*
X13291610Y-13385174D02*
X13310658Y-13375650D01*
X13310658Y-13375650D02*
X13339229Y-13375650D01*
X13339229Y-13375650D02*
X13358277Y-13385174D01*
X13358277Y-13385174D02*
X13367801Y-13404222D01*
X13367801Y-13404222D02*
X13367801Y-13508984D01*
X13367801Y-13404222D02*
X13377324Y-13385174D01*
X13377324Y-13385174D02*
X13396372Y-13375650D01*
X13396372Y-13375650D02*
X13424943Y-13375650D01*
X13424943Y-13375650D02*
X13443991Y-13385174D01*
X13443991Y-13385174D02*
X13453515Y-13404222D01*
X13453515Y-13404222D02*
X13453515Y-13508984D01*
X13843991Y-13299460D02*
X13672563Y-13556603D01*
X14101134Y-13308984D02*
X14120182Y-13308984D01*
X14120182Y-13308984D02*
X14139229Y-13318508D01*
X14139229Y-13318508D02*
X14148753Y-13328031D01*
X14148753Y-13328031D02*
X14158277Y-13347079D01*
X14158277Y-13347079D02*
X14167801Y-13385174D01*
X14167801Y-13385174D02*
X14167801Y-13432793D01*
X14167801Y-13432793D02*
X14158277Y-13470888D01*
X14158277Y-13470888D02*
X14148753Y-13489936D01*
X14148753Y-13489936D02*
X14139229Y-13499460D01*
X14139229Y-13499460D02*
X14120182Y-13508984D01*
X14120182Y-13508984D02*
X14101134Y-13508984D01*
X14101134Y-13508984D02*
X14082086Y-13499460D01*
X14082086Y-13499460D02*
X14072563Y-13489936D01*
X14072563Y-13489936D02*
X14063039Y-13470888D01*
X14063039Y-13470888D02*
X14053515Y-13432793D01*
X14053515Y-13432793D02*
X14053515Y-13385174D01*
X14053515Y-13385174D02*
X14063039Y-13347079D01*
X14063039Y-13347079D02*
X14072563Y-13328031D01*
X14072563Y-13328031D02*
X14082086Y-13318508D01*
X14082086Y-13318508D02*
X14101134Y-13308984D01*
X14253515Y-13489936D02*
X14263039Y-13499460D01*
X14263039Y-13499460D02*
X14253515Y-13508984D01*
X14253515Y-13508984D02*
X14243991Y-13499460D01*
X14243991Y-13499460D02*
X14253515Y-13489936D01*
X14253515Y-13489936D02*
X14253515Y-13508984D01*
X14386848Y-13308984D02*
X14405896Y-13308984D01*
X14405896Y-13308984D02*
X14424944Y-13318508D01*
X14424944Y-13318508D02*
X14434467Y-13328031D01*
X14434467Y-13328031D02*
X14443991Y-13347079D01*
X14443991Y-13347079D02*
X14453515Y-13385174D01*
X14453515Y-13385174D02*
X14453515Y-13432793D01*
X14453515Y-13432793D02*
X14443991Y-13470888D01*
X14443991Y-13470888D02*
X14434467Y-13489936D01*
X14434467Y-13489936D02*
X14424944Y-13499460D01*
X14424944Y-13499460D02*
X14405896Y-13508984D01*
X14405896Y-13508984D02*
X14386848Y-13508984D01*
X14386848Y-13508984D02*
X14367801Y-13499460D01*
X14367801Y-13499460D02*
X14358277Y-13489936D01*
X14358277Y-13489936D02*
X14348753Y-13470888D01*
X14348753Y-13470888D02*
X14339229Y-13432793D01*
X14339229Y-13432793D02*
X14339229Y-13385174D01*
X14339229Y-13385174D02*
X14348753Y-13347079D01*
X14348753Y-13347079D02*
X14358277Y-13328031D01*
X14358277Y-13328031D02*
X14367801Y-13318508D01*
X14367801Y-13318508D02*
X14386848Y-13308984D01*
X14567801Y-13394698D02*
X14548753Y-13385174D01*
X14548753Y-13385174D02*
X14539229Y-13375650D01*
X14539229Y-13375650D02*
X14529706Y-13356603D01*
X14529706Y-13356603D02*
X14529706Y-13347079D01*
X14529706Y-13347079D02*
X14539229Y-13328031D01*
X14539229Y-13328031D02*
X14548753Y-13318508D01*
X14548753Y-13318508D02*
X14567801Y-13308984D01*
X14567801Y-13308984D02*
X14605896Y-13308984D01*
X14605896Y-13308984D02*
X14624944Y-13318508D01*
X14624944Y-13318508D02*
X14634467Y-13328031D01*
X14634467Y-13328031D02*
X14643991Y-13347079D01*
X14643991Y-13347079D02*
X14643991Y-13356603D01*
X14643991Y-13356603D02*
X14634467Y-13375650D01*
X14634467Y-13375650D02*
X14624944Y-13385174D01*
X14624944Y-13385174D02*
X14605896Y-13394698D01*
X14605896Y-13394698D02*
X14567801Y-13394698D01*
X14567801Y-13394698D02*
X14548753Y-13404222D01*
X14548753Y-13404222D02*
X14539229Y-13413746D01*
X14539229Y-13413746D02*
X14529706Y-13432793D01*
X14529706Y-13432793D02*
X14529706Y-13470888D01*
X14529706Y-13470888D02*
X14539229Y-13489936D01*
X14539229Y-13489936D02*
X14548753Y-13499460D01*
X14548753Y-13499460D02*
X14567801Y-13508984D01*
X14567801Y-13508984D02*
X14605896Y-13508984D01*
X14605896Y-13508984D02*
X14624944Y-13499460D01*
X14624944Y-13499460D02*
X14634467Y-13489936D01*
X14634467Y-13489936D02*
X14643991Y-13470888D01*
X14643991Y-13470888D02*
X14643991Y-13432793D01*
X14643991Y-13432793D02*
X14634467Y-13413746D01*
X14634467Y-13413746D02*
X14624944Y-13404222D01*
X14624944Y-13404222D02*
X14605896Y-13394698D01*
X14815420Y-13308984D02*
X14777325Y-13308984D01*
X14777325Y-13308984D02*
X14758277Y-13318508D01*
X14758277Y-13318508D02*
X14748753Y-13328031D01*
X14748753Y-13328031D02*
X14729706Y-13356603D01*
X14729706Y-13356603D02*
X14720182Y-13394698D01*
X14720182Y-13394698D02*
X14720182Y-13470888D01*
X14720182Y-13470888D02*
X14729706Y-13489936D01*
X14729706Y-13489936D02*
X14739229Y-13499460D01*
X14739229Y-13499460D02*
X14758277Y-13508984D01*
X14758277Y-13508984D02*
X14796372Y-13508984D01*
X14796372Y-13508984D02*
X14815420Y-13499460D01*
X14815420Y-13499460D02*
X14824944Y-13489936D01*
X14824944Y-13489936D02*
X14834467Y-13470888D01*
X14834467Y-13470888D02*
X14834467Y-13423269D01*
X14834467Y-13423269D02*
X14824944Y-13404222D01*
X14824944Y-13404222D02*
X14815420Y-13394698D01*
X14815420Y-13394698D02*
X14796372Y-13385174D01*
X14796372Y-13385174D02*
X14758277Y-13385174D01*
X14758277Y-13385174D02*
X14739229Y-13394698D01*
X14739229Y-13394698D02*
X14729706Y-13404222D01*
X14729706Y-13404222D02*
X14720182Y-13423269D01*
X15005896Y-13308984D02*
X14967801Y-13308984D01*
X14967801Y-13308984D02*
X14948753Y-13318508D01*
X14948753Y-13318508D02*
X14939229Y-13328031D01*
X14939229Y-13328031D02*
X14920182Y-13356603D01*
X14920182Y-13356603D02*
X14910658Y-13394698D01*
X14910658Y-13394698D02*
X14910658Y-13470888D01*
X14910658Y-13470888D02*
X14920182Y-13489936D01*
X14920182Y-13489936D02*
X14929706Y-13499460D01*
X14929706Y-13499460D02*
X14948753Y-13508984D01*
X14948753Y-13508984D02*
X14986848Y-13508984D01*
X14986848Y-13508984D02*
X15005896Y-13499460D01*
X15005896Y-13499460D02*
X15015420Y-13489936D01*
X15015420Y-13489936D02*
X15024944Y-13470888D01*
X15024944Y-13470888D02*
X15024944Y-13423269D01*
X15024944Y-13423269D02*
X15015420Y-13404222D01*
X15015420Y-13404222D02*
X15005896Y-13394698D01*
X15005896Y-13394698D02*
X14986848Y-13385174D01*
X14986848Y-13385174D02*
X14948753Y-13385174D01*
X14948753Y-13385174D02*
X14929706Y-13394698D01*
X14929706Y-13394698D02*
X14920182Y-13404222D01*
X14920182Y-13404222D02*
X14910658Y-13423269D01*
X15101134Y-13308984D02*
X15101134Y-13347079D01*
X15177325Y-13308984D02*
X15177325Y-13347079D01*
X15472563Y-13585174D02*
X15463039Y-13575650D01*
X15463039Y-13575650D02*
X15443991Y-13547079D01*
X15443991Y-13547079D02*
X15434468Y-13528031D01*
X15434468Y-13528031D02*
X15424944Y-13499460D01*
X15424944Y-13499460D02*
X15415420Y-13451841D01*
X15415420Y-13451841D02*
X15415420Y-13413746D01*
X15415420Y-13413746D02*
X15424944Y-13366127D01*
X15424944Y-13366127D02*
X15434468Y-13337555D01*
X15434468Y-13337555D02*
X15443991Y-13318508D01*
X15443991Y-13318508D02*
X15463039Y-13289936D01*
X15463039Y-13289936D02*
X15472563Y-13280412D01*
X15634468Y-13375650D02*
X15634468Y-13508984D01*
X15586848Y-13299460D02*
X15539229Y-13442317D01*
X15539229Y-13442317D02*
X15663039Y-13442317D01*
X15891610Y-13508984D02*
X15891610Y-13308984D01*
X15977325Y-13508984D02*
X15977325Y-13404222D01*
X15977325Y-13404222D02*
X15967801Y-13385174D01*
X15967801Y-13385174D02*
X15948753Y-13375650D01*
X15948753Y-13375650D02*
X15920182Y-13375650D01*
X15920182Y-13375650D02*
X15901134Y-13385174D01*
X15901134Y-13385174D02*
X15891610Y-13394698D01*
X16101134Y-13508984D02*
X16082087Y-13499460D01*
X16082087Y-13499460D02*
X16072563Y-13489936D01*
X16072563Y-13489936D02*
X16063039Y-13470888D01*
X16063039Y-13470888D02*
X16063039Y-13413746D01*
X16063039Y-13413746D02*
X16072563Y-13394698D01*
X16072563Y-13394698D02*
X16082087Y-13385174D01*
X16082087Y-13385174D02*
X16101134Y-13375650D01*
X16101134Y-13375650D02*
X16129706Y-13375650D01*
X16129706Y-13375650D02*
X16148753Y-13385174D01*
X16148753Y-13385174D02*
X16158277Y-13394698D01*
X16158277Y-13394698D02*
X16167801Y-13413746D01*
X16167801Y-13413746D02*
X16167801Y-13470888D01*
X16167801Y-13470888D02*
X16158277Y-13489936D01*
X16158277Y-13489936D02*
X16148753Y-13499460D01*
X16148753Y-13499460D02*
X16129706Y-13508984D01*
X16129706Y-13508984D02*
X16101134Y-13508984D01*
X16282087Y-13508984D02*
X16263039Y-13499460D01*
X16263039Y-13499460D02*
X16253515Y-13480412D01*
X16253515Y-13480412D02*
X16253515Y-13308984D01*
X16434468Y-13499460D02*
X16415420Y-13508984D01*
X16415420Y-13508984D02*
X16377325Y-13508984D01*
X16377325Y-13508984D02*
X16358277Y-13499460D01*
X16358277Y-13499460D02*
X16348753Y-13480412D01*
X16348753Y-13480412D02*
X16348753Y-13404222D01*
X16348753Y-13404222D02*
X16358277Y-13385174D01*
X16358277Y-13385174D02*
X16377325Y-13375650D01*
X16377325Y-13375650D02*
X16415420Y-13375650D01*
X16415420Y-13375650D02*
X16434468Y-13385174D01*
X16434468Y-13385174D02*
X16443991Y-13404222D01*
X16443991Y-13404222D02*
X16443991Y-13423269D01*
X16443991Y-13423269D02*
X16348753Y-13442317D01*
X16520182Y-13499460D02*
X16539230Y-13508984D01*
X16539230Y-13508984D02*
X16577325Y-13508984D01*
X16577325Y-13508984D02*
X16596372Y-13499460D01*
X16596372Y-13499460D02*
X16605896Y-13480412D01*
X16605896Y-13480412D02*
X16605896Y-13470888D01*
X16605896Y-13470888D02*
X16596372Y-13451841D01*
X16596372Y-13451841D02*
X16577325Y-13442317D01*
X16577325Y-13442317D02*
X16548753Y-13442317D01*
X16548753Y-13442317D02*
X16529706Y-13432793D01*
X16529706Y-13432793D02*
X16520182Y-13413746D01*
X16520182Y-13413746D02*
X16520182Y-13404222D01*
X16520182Y-13404222D02*
X16529706Y-13385174D01*
X16529706Y-13385174D02*
X16548753Y-13375650D01*
X16548753Y-13375650D02*
X16577325Y-13375650D01*
X16577325Y-13375650D02*
X16596372Y-13385174D01*
X16672563Y-13585174D02*
X16682087Y-13575650D01*
X16682087Y-13575650D02*
X16701134Y-13547079D01*
X16701134Y-13547079D02*
X16710658Y-13528031D01*
X16710658Y-13528031D02*
X16720182Y-13499460D01*
X16720182Y-13499460D02*
X16729706Y-13451841D01*
X16729706Y-13451841D02*
X16729706Y-13413746D01*
X16729706Y-13413746D02*
X16720182Y-13366127D01*
X16720182Y-13366127D02*
X16710658Y-13337555D01*
X16710658Y-13337555D02*
X16701134Y-13318508D01*
X16701134Y-13318508D02*
X16682087Y-13289936D01*
X16682087Y-13289936D02*
X16672563Y-13280412D01*
X17034468Y-13585174D02*
X17024944Y-13575650D01*
X17024944Y-13575650D02*
X17005896Y-13547079D01*
X17005896Y-13547079D02*
X16996373Y-13528031D01*
X16996373Y-13528031D02*
X16986849Y-13499460D01*
X16986849Y-13499460D02*
X16977325Y-13451841D01*
X16977325Y-13451841D02*
X16977325Y-13413746D01*
X16977325Y-13413746D02*
X16986849Y-13366127D01*
X16986849Y-13366127D02*
X16996373Y-13337555D01*
X16996373Y-13337555D02*
X17005896Y-13318508D01*
X17005896Y-13318508D02*
X17024944Y-13289936D01*
X17024944Y-13289936D02*
X17034468Y-13280412D01*
X17110658Y-13375650D02*
X17110658Y-13508984D01*
X17110658Y-13394698D02*
X17120182Y-13385174D01*
X17120182Y-13385174D02*
X17139230Y-13375650D01*
X17139230Y-13375650D02*
X17167801Y-13375650D01*
X17167801Y-13375650D02*
X17186849Y-13385174D01*
X17186849Y-13385174D02*
X17196373Y-13404222D01*
X17196373Y-13404222D02*
X17196373Y-13508984D01*
X17320182Y-13508984D02*
X17301134Y-13499460D01*
X17301134Y-13499460D02*
X17291611Y-13489936D01*
X17291611Y-13489936D02*
X17282087Y-13470888D01*
X17282087Y-13470888D02*
X17282087Y-13413746D01*
X17282087Y-13413746D02*
X17291611Y-13394698D01*
X17291611Y-13394698D02*
X17301134Y-13385174D01*
X17301134Y-13385174D02*
X17320182Y-13375650D01*
X17320182Y-13375650D02*
X17348754Y-13375650D01*
X17348754Y-13375650D02*
X17367801Y-13385174D01*
X17367801Y-13385174D02*
X17377325Y-13394698D01*
X17377325Y-13394698D02*
X17386849Y-13413746D01*
X17386849Y-13413746D02*
X17386849Y-13470888D01*
X17386849Y-13470888D02*
X17377325Y-13489936D01*
X17377325Y-13489936D02*
X17367801Y-13499460D01*
X17367801Y-13499460D02*
X17348754Y-13508984D01*
X17348754Y-13508984D02*
X17320182Y-13508984D01*
X17443992Y-13375650D02*
X17520182Y-13375650D01*
X17472563Y-13308984D02*
X17472563Y-13480412D01*
X17472563Y-13480412D02*
X17482087Y-13499460D01*
X17482087Y-13499460D02*
X17501134Y-13508984D01*
X17501134Y-13508984D02*
X17520182Y-13508984D01*
X17739230Y-13375650D02*
X17739230Y-13575650D01*
X17739230Y-13385174D02*
X17758277Y-13375650D01*
X17758277Y-13375650D02*
X17796373Y-13375650D01*
X17796373Y-13375650D02*
X17815420Y-13385174D01*
X17815420Y-13385174D02*
X17824944Y-13394698D01*
X17824944Y-13394698D02*
X17834468Y-13413746D01*
X17834468Y-13413746D02*
X17834468Y-13470888D01*
X17834468Y-13470888D02*
X17824944Y-13489936D01*
X17824944Y-13489936D02*
X17815420Y-13499460D01*
X17815420Y-13499460D02*
X17796373Y-13508984D01*
X17796373Y-13508984D02*
X17758277Y-13508984D01*
X17758277Y-13508984D02*
X17739230Y-13499460D01*
X17948754Y-13508984D02*
X17929706Y-13499460D01*
X17929706Y-13499460D02*
X17920182Y-13480412D01*
X17920182Y-13480412D02*
X17920182Y-13308984D01*
X18110658Y-13508984D02*
X18110658Y-13404222D01*
X18110658Y-13404222D02*
X18101135Y-13385174D01*
X18101135Y-13385174D02*
X18082087Y-13375650D01*
X18082087Y-13375650D02*
X18043992Y-13375650D01*
X18043992Y-13375650D02*
X18024944Y-13385174D01*
X18110658Y-13499460D02*
X18091611Y-13508984D01*
X18091611Y-13508984D02*
X18043992Y-13508984D01*
X18043992Y-13508984D02*
X18024944Y-13499460D01*
X18024944Y-13499460D02*
X18015420Y-13480412D01*
X18015420Y-13480412D02*
X18015420Y-13461365D01*
X18015420Y-13461365D02*
X18024944Y-13442317D01*
X18024944Y-13442317D02*
X18043992Y-13432793D01*
X18043992Y-13432793D02*
X18091611Y-13432793D01*
X18091611Y-13432793D02*
X18110658Y-13423269D01*
X18177325Y-13375650D02*
X18253515Y-13375650D01*
X18205896Y-13308984D02*
X18205896Y-13480412D01*
X18205896Y-13480412D02*
X18215420Y-13499460D01*
X18215420Y-13499460D02*
X18234468Y-13508984D01*
X18234468Y-13508984D02*
X18253515Y-13508984D01*
X18396373Y-13499460D02*
X18377325Y-13508984D01*
X18377325Y-13508984D02*
X18339230Y-13508984D01*
X18339230Y-13508984D02*
X18320182Y-13499460D01*
X18320182Y-13499460D02*
X18310658Y-13480412D01*
X18310658Y-13480412D02*
X18310658Y-13404222D01*
X18310658Y-13404222D02*
X18320182Y-13385174D01*
X18320182Y-13385174D02*
X18339230Y-13375650D01*
X18339230Y-13375650D02*
X18377325Y-13375650D01*
X18377325Y-13375650D02*
X18396373Y-13385174D01*
X18396373Y-13385174D02*
X18405896Y-13404222D01*
X18405896Y-13404222D02*
X18405896Y-13423269D01*
X18405896Y-13423269D02*
X18310658Y-13442317D01*
X18577325Y-13508984D02*
X18577325Y-13308984D01*
X18577325Y-13499460D02*
X18558277Y-13508984D01*
X18558277Y-13508984D02*
X18520182Y-13508984D01*
X18520182Y-13508984D02*
X18501135Y-13499460D01*
X18501135Y-13499460D02*
X18491611Y-13489936D01*
X18491611Y-13489936D02*
X18482087Y-13470888D01*
X18482087Y-13470888D02*
X18482087Y-13413746D01*
X18482087Y-13413746D02*
X18491611Y-13394698D01*
X18491611Y-13394698D02*
X18501135Y-13385174D01*
X18501135Y-13385174D02*
X18520182Y-13375650D01*
X18520182Y-13375650D02*
X18558277Y-13375650D01*
X18558277Y-13375650D02*
X18577325Y-13385174D01*
X18653516Y-13585174D02*
X18663039Y-13575650D01*
X18663039Y-13575650D02*
X18682087Y-13547079D01*
X18682087Y-13547079D02*
X18691611Y-13528031D01*
X18691611Y-13528031D02*
X18701135Y-13499460D01*
X18701135Y-13499460D02*
X18710658Y-13451841D01*
X18710658Y-13451841D02*
X18710658Y-13413746D01*
X18710658Y-13413746D02*
X18701135Y-13366127D01*
X18701135Y-13366127D02*
X18691611Y-13337555D01*
X18691611Y-13337555D02*
X18682087Y-13318508D01*
X18682087Y-13318508D02*
X18663039Y-13289936D01*
X18663039Y-13289936D02*
X18653516Y-13280412D01*
M02*
